<svg width="48" height="48" viewBox="0 0 48 48" fill="none" xmlns="http://www.w3.org/2000/svg">
<g clip-path="url(#clip0)">
<path d="M48.2366 6.2349C47.1701 6.76789 46.063 7.18839 44.927 7.49281C46.1788 6.1522 47.1199 4.47538 47.6509 2.60375C47.8024 2.06943 47.2875 1.60739 46.8594 1.89348C45.279 2.94998 43.5767 3.74255 41.7996 4.24944C41.6965 4.27885 41.5902 4.29375 41.4834 4.29375C41.1597 4.29375 40.845 4.15829 40.5975 3.91244C38.7068 2.03434 36.2751 1 33.7504 1C32.6579 1 31.5549 1.19191 30.4719 1.57046C27.1165 2.74343 24.5275 5.86294 23.7152 9.71172C23.4104 11.1553 23.3279 12.6003 23.4698 14.0063C23.486 14.1679 23.4183 14.2807 23.3765 14.3336C23.3031 14.4263 23.1991 14.4794 23.091 14.4794C23.079 14.4794 23.0666 14.4788 23.0543 14.4775C15.7093 13.7084 9.08596 9.72017 4.40421 3.24767C4.16548 2.91753 3.70766 2.95802 3.51737 3.32589C2.60056 5.0986 2.11606 7.12613 2.11606 9.18928C2.11606 12.3511 3.24317 15.3308 5.20095 17.5031C4.37765 17.2831 3.5808 16.9366 2.84059 16.4732C2.48248 16.249 2.04187 16.5372 2.03684 16.9988C1.98558 21.696 4.42563 25.8755 8.08091 27.7576C8.0073 27.7596 7.93369 27.7605 7.85996 27.7605C7.28055 27.7605 6.69389 27.6975 6.11646 27.5731C5.71318 27.4863 5.37438 27.9175 5.49961 28.3581C6.68604 32.5328 9.87532 35.61 13.6919 36.3087C10.5244 38.7051 6.83572 39.9692 2.99659 39.9692L1.79973 39.9684C1.43098 39.9684 1.11909 40.2394 1.02512 40.6419C0.93255 41.0384 1.10306 41.4566 1.41752 41.6628C5.74361 44.5003 10.6781 46 15.6898 46C20.0766 46 24.1801 45.0188 27.8864 43.0839C31.2841 41.31 34.2866 38.7742 36.8105 35.5471C39.1616 32.5409 41.0001 29.0705 42.2748 25.2325C43.4899 21.5741 44.1322 17.6704 44.1322 13.9435V13.766C44.132 13.1676 44.3722 12.6045 44.7911 12.2212C46.381 10.7664 47.7654 9.05382 48.9059 7.13114C49.207 6.62347 48.7321 5.98719 48.2366 6.2349Z" fill="#E7E7EA"/>
</g>
<defs>
<clipPath id="clip0">
<rect width="48" height="48" fill="white"/>
</clipPath>
</defs>
</svg>
