<svg width="48" height="48" viewBox="0 0 48 48" fill="none" xmlns="http://www.w3.org/2000/svg">
<g clip-path="url(#clip0)">
<path fill-rule="evenodd" clip-rule="evenodd" d="M19.9192 18.5308C15.4335 21.1206 22.2777 33.9516 27.1863 31.1176C28.058 32.6274 30.8657 37.4906 31.7374 39.0003C29.6664 40.1961 27.9133 40.9498 25.5123 39.5773C18.8458 35.7663 11.5073 23.0611 11.7165 15.4825C11.789 12.8504 13.3398 11.8191 15.3683 10.6479C16.24 12.1577 19.0477 17.0208 19.9194 18.5306L19.9192 18.5308Z" fill="#EEEEF1"/>
<path fill-rule="evenodd" clip-rule="evenodd" d="M21.8002 18.3167C21.3156 18.5965 20.6919 18.4295 20.412 17.9448L16.1216 10.5134C15.8417 10.0286 16.0087 9.40496 16.4934 9.12511L18.7484 7.82319C19.2331 7.5433 19.8569 7.71048 20.1368 8.1952L24.4272 15.6265C24.7071 16.1111 24.54 16.7348 24.0553 17.0147L21.8004 18.3166L21.8002 18.3167Z" fill="#EEEEF1"/>
<path fill-rule="evenodd" clip-rule="evenodd" d="M33.5214 38.6179C33.0368 38.8977 32.4131 38.7307 32.1332 38.2459L27.8428 30.8146C27.5629 30.3299 27.7299 29.7061 28.2146 29.4263L30.4696 28.1244C30.9543 27.8446 31.5781 28.0118 31.858 28.4964L36.1484 35.9277C36.4283 36.4124 36.2612 37.0362 35.7765 37.3159L33.5216 38.6179L33.5214 38.6179Z" fill="#EEEEF1"/>
<path d="M24 0H24.0004V0.00558965C30.6302 0.00569128 36.63 2.69047 40.9694 7.03041C45.3091 11.3701 47.9939 17.3697 47.994 23.9995H47.9996V24.0006H47.994C47.9939 30.6304 45.3091 36.6302 40.9692 40.9697C36.6294 45.3094 30.63 47.9941 24.0001 47.9943V47.9999H23.999V47.9943C17.3692 47.9942 11.3694 45.3094 7.02992 40.9694C2.69022 36.6297 0.00551023 30.6302 0.00534551 24.0004H-0.000244141V23.9992H0.00534551C0.00544714 17.3694 2.69022 11.3696 7.03017 7.03017C11.3699 2.69047 17.3694 0.00575437 23.9993 0.00558965V0H24V0ZM24.0004 2.86261V2.8682H23.9993V2.86261C18.1689 2.86276 12.8858 5.23065 9.05865 9.05808C5.23089 12.8858 2.86293 18.1694 2.86293 23.9995H2.86852V24.0006H2.86293C2.86308 29.8309 5.23097 35.114 9.0584 38.9412C12.8861 42.769 18.1697 45.1369 23.9998 45.1369V45.1314H24.0009V45.1369C29.8312 45.1368 35.1144 42.7689 38.9415 38.9415C42.7693 35.1138 45.1373 29.8302 45.1373 24H45.1317V23.9989H45.1373C45.1371 18.1686 42.7692 12.8855 38.9418 9.05833C35.1141 5.23057 29.8305 2.86261 24.0004 2.86261V2.86261Z" fill="#EEEEF1"/>
<path fill-rule="evenodd" clip-rule="evenodd" d="M16.64 0H31.36C44.8 0 48 3.2 48 16.64V31.36C48 44.8 44.8 48 31.36 48H16.64C3.2 48 0 44.8 0 31.36V16.64C0 3.2 3.2 0 16.64 0Z" fill="#EEEEF1"/>
<path fill-rule="evenodd" clip-rule="evenodd" d="M39.3085 16.5366C39.5309 15.7949 39.3085 15.25 38.2501 15.25H34.7501C33.8601 15.25 33.4499 15.7207 33.2273 16.2398C33.2273 16.2398 31.4475 20.5782 28.926 23.3963C28.1103 24.212 27.7395 24.4716 27.2945 24.4716C27.072 24.4716 26.75 24.212 26.75 23.4705V16.5366C26.75 15.6466 26.4917 15.25 25.7501 15.25H20.2501C19.6939 15.25 19.3595 15.663 19.3595 16.0545C19.3595 16.8981 20.6201 17.0927 20.7501 19.4658V24.62C20.7501 25.75 20.546 25.9549 20.101 25.9549C18.9145 25.9549 16.0283 21.5971 14.3165 16.6107C13.981 15.6415 13.6446 15.25 12.7501 15.25H9.25006C8.25006 15.25 8.05005 15.7207 8.05005 16.2398C8.05005 17.1669 9.23663 21.7648 13.575 27.8459C16.4671 31.9988 20.5421 34.25 24.2501 34.25C26.4748 34.25 26.7501 33.75 26.7501 32.8887V29.75C26.7501 28.75 26.9608 28.5504 27.6653 28.5504C28.1844 28.5504 29.0744 28.81 31.1509 30.8123C33.524 33.1854 33.9152 34.25 35.2501 34.25H38.7501C39.7501 34.25 40.2501 33.75 39.9616 32.7633C39.646 31.7799 38.5129 30.353 37.0095 28.6617C36.1937 27.6976 34.9701 26.6594 34.5993 26.1402C34.0802 25.4728 34.2285 25.1761 34.5993 24.5829C34.5993 24.5829 38.8635 18.5759 39.3085 16.5366V16.5366Z" fill="#1E2226"/>
</g>
<defs>
<clipPath id="clip0">
<rect width="48" height="48" fill="white"/>
</clipPath>
</defs>
</svg>
