<svg width="52" height="52" viewBox="0 0 52 52" fill="none" xmlns="http://www.w3.org/2000/svg">
<path d="M45.5 3.25H6.5C5.63805 3.25 4.8114 3.59241 4.2019 4.2019C3.59241 4.8114 3.25 5.63805 3.25 6.5V45.5C3.25 46.362 3.59241 47.1886 4.2019 47.7981C4.8114 48.4076 5.63805 48.75 6.5 48.75H24.9167V31.4167H20.5833V24.9167H24.9167V20.5833C24.9167 18.2848 25.8298 16.0804 27.4551 14.4551C29.0804 12.8298 31.2848 11.9167 33.5833 11.9167H40.0833V18.4167H33.5833C33.0087 18.4167 32.4576 18.6449 32.0513 19.0513C31.6449 19.4576 31.4167 20.0087 31.4167 20.5833V24.9167H40.0833L39 31.4167H31.4167V48.75H45.5C46.362 48.75 47.1886 48.4076 47.7981 47.7981C48.4076 47.1886 48.75 46.362 48.75 45.5V6.5C48.75 5.63805 48.4076 4.8114 47.7981 4.2019C47.1886 3.59241 46.362 3.25 45.5 3.25Z" stroke="#D04E54" stroke-width="2" stroke-linecap="round" stroke-linejoin="round"/>
</svg>
