<svg width="52" height="52" viewBox="0 0 52 52" fill="none" xmlns="http://www.w3.org/2000/svg">
<path d="M44.9927 0H7.00716C3.13729 0 0 3.13714 0 7.0071V44.9926C0 48.8626 3.13716 51.9997 7.00716 51.9997H25.7415L25.7734 33.4179H20.9458C20.3184 33.4179 19.8092 32.9106 19.8068 32.2832L19.7836 26.2935C19.7812 25.6627 20.2919 25.15 20.9228 25.15H25.7416V19.3624C25.7416 12.646 29.8436 8.98884 35.8351 8.98884H40.7517C41.3807 8.98884 41.8908 9.4988 41.8908 10.128V15.1785C41.8908 15.8074 41.3811 16.3173 40.7523 16.3176L37.7351 16.319C34.4767 16.319 33.8458 17.8674 33.8458 20.1397V25.1501H41.0056C41.6878 25.1501 42.2171 25.7458 42.1367 26.4233L41.4267 32.4131C41.3588 32.9862 40.8728 33.4181 40.2956 33.4181H33.8777L33.8458 52H44.993C48.8628 52 52 48.8629 52 44.993V7.0071C51.9999 3.13714 48.8627 0 44.9927 0Z" fill="#D04E54"/>
</svg>
