<svg width="52" height="52" viewBox="0 0 52 52" fill="none" xmlns="http://www.w3.org/2000/svg">
<path d="M36.8767 3.25H15.1233C8.56587 3.25 3.25 8.56587 3.25 15.1233V36.8767C3.25 43.4341 8.56587 48.75 15.1233 48.75H36.8767C43.4341 48.75 48.75 43.4341 48.75 36.8767V15.1233C48.75 8.56587 43.4341 3.25 36.8767 3.25Z" stroke="#D04E54" stroke-width="3" stroke-linecap="round" stroke-linejoin="round"/>
<path d="M25.9999 37.9163C32.5813 37.9163 37.9166 32.5811 37.9166 25.9997C37.9166 19.4183 32.5813 14.083 25.9999 14.083C19.4185 14.083 14.0833 19.4183 14.0833 25.9997C14.0833 32.5811 19.4185 37.9163 25.9999 37.9163Z" stroke="#D04E54" stroke-width="3" stroke-linecap="round" stroke-linejoin="round"/>
<path d="M39.0001 11.9167C39.5984 11.9167 40.0834 11.4316 40.0834 10.8333C40.0834 10.235 39.5984 9.75 39.0001 9.75C38.4018 9.75 37.9167 10.235 37.9167 10.8333C37.9167 11.4316 38.4018 11.9167 39.0001 11.9167Z" stroke="#D04E54" stroke-width="3" stroke-linecap="round" stroke-linejoin="round"/>
</svg>
