<svg width="52" height="52" viewBox="0 0 52 52" fill="none" xmlns="http://www.w3.org/2000/svg">
<path d="M36.5089 0H15.4911C6.94926 0 0 6.94926 0 15.4911V36.5089C0 45.0507 6.94926 52 15.4911 52H36.5089C45.0507 52 52 45.0507 52 36.5089V15.4911C51.9999 6.94926 45.0506 0 36.5089 0ZM46.7688 36.5089C46.7688 42.1752 42.1752 46.7688 36.5089 46.7688H15.4911C9.82475 46.7688 5.2312 42.1752 5.2312 36.5089V15.4911C5.2312 9.82466 9.82475 5.2312 15.4911 5.2312H36.5089C42.1752 5.2312 46.7688 9.82466 46.7688 15.4911V36.5089Z" fill="#D04E54"/>
<path d="M25.9999 12.5518C18.5841 12.5518 12.5508 18.585 12.5508 26.0007C12.5508 33.4164 18.5841 39.4498 25.9999 39.4498C33.4157 39.4498 39.4489 33.4165 39.4489 26.0007C39.4489 18.5849 33.4157 12.5518 25.9999 12.5518ZM25.9999 34.2187C21.4613 34.2187 17.782 30.5394 17.782 26.0008C17.782 21.4622 21.4614 17.783 25.9999 17.783C30.5385 17.783 34.2177 21.4622 34.2177 26.0008C34.2177 30.5393 30.5384 34.2187 25.9999 34.2187Z" fill="#D04E54"/>
<path d="M39.475 15.875C41.2549 15.875 42.6977 14.4322 42.6977 12.6524C42.6977 10.8725 41.2549 9.42969 39.475 9.42969C37.6952 9.42969 36.2524 10.8725 36.2524 12.6524C36.2524 14.4322 37.6952 15.875 39.475 15.875Z" fill="#D04E54"/>
</svg>
