<svg width="42" height="42" viewBox="0 0 42 42" fill="none" xmlns="http://www.w3.org/2000/svg">
<path d="M29.488 0H12.512C5.61287 0 0 5.61287 0 12.512V29.488C0 36.3871 5.61287 42 12.512 42H29.488C36.3871 42 42 36.3871 42 29.488V12.512C41.9999 5.61287 36.3871 0 29.488 0ZM37.7748 29.488C37.7748 34.0646 34.0646 37.7748 29.488 37.7748H12.512C7.93538 37.7748 4.2252 34.0646 4.2252 29.488V12.512C4.2252 7.9353 7.93538 4.2252 12.512 4.2252H29.488C34.0646 4.2252 37.7748 7.9353 37.7748 12.512V29.488Z" fill="#728AB7"/>
<path d="M20.9994 10.1372C15.0097 10.1372 10.1367 15.0102 10.1367 20.9998C10.1367 26.9894 15.0097 31.8625 20.9994 31.8625C26.9891 31.8625 31.8621 26.9895 31.8621 20.9998C31.8621 15.0101 26.9891 10.1372 20.9994 10.1372ZM20.9994 27.6374C17.3336 27.6374 14.3619 24.6657 14.3619 20.9999C14.3619 17.3341 17.3337 14.3624 20.9994 14.3624C24.6652 14.3624 27.6369 17.3341 27.6369 20.9999C27.6369 24.6656 24.6652 27.6374 20.9994 27.6374Z" fill="#728AB7"/>
<path d="M31.8842 12.8216C33.3217 12.8216 34.4871 11.6562 34.4871 10.2186C34.4871 8.78109 33.3217 7.61572 31.8842 7.61572C30.4466 7.61572 29.2812 8.78109 29.2812 10.2186C29.2812 11.6562 30.4466 12.8216 31.8842 12.8216Z" fill="#728AB7"/>
</svg>
