<svg width="53" height="52" viewBox="0 0 53 52" fill="none" xmlns="http://www.w3.org/2000/svg">
<g clip-path="url(#clip0)">
<path fill-rule="evenodd" clip-rule="evenodd" d="M22.0791 20.0749C17.2196 22.8805 24.6341 36.7808 29.9517 33.7107C30.896 35.3463 33.9378 40.6147 34.8821 42.2502C32.6385 43.5456 30.7394 44.3622 28.1383 42.8752C20.9162 38.7467 12.9662 24.9828 13.1928 16.7726C13.2714 13.9211 14.9514 12.8039 17.1489 11.5352C18.0932 13.1708 21.1349 18.4391 22.0793 20.0747L22.0791 20.0749Z" fill="#D04E54"/>
<path fill-rule="evenodd" clip-rule="evenodd" d="M24.1169 19.8431C23.5918 20.1462 22.9162 19.9653 22.613 19.4402L17.965 11.3895C17.6618 10.8644 17.8427 10.1887 18.3679 9.88553L20.8107 8.47512C21.3358 8.17191 22.0117 8.35302 22.3148 8.87813L26.9628 16.9287C27.266 17.4537 27.085 18.1294 26.5599 18.4326L24.117 19.843L24.1169 19.8431Z" fill="#D04E54"/>
<path fill-rule="evenodd" clip-rule="evenodd" d="M36.8149 41.8362C36.2898 42.1393 35.6141 41.9584 35.311 41.4332L30.663 33.3826C30.3598 32.8575 30.5407 32.1817 31.0658 31.8787L33.5087 30.4682C34.0338 30.1651 34.7096 30.3462 35.0128 30.8713L39.6608 38.9218C39.9639 39.4469 39.7829 40.1226 39.2579 40.4257L36.815 41.8361L36.8149 41.8362Z" fill="#D04E54"/>
<path d="M26.5 0H26.5004V0.00605545C33.6827 0.00616555 40.1825 2.91467 44.8835 7.61628C49.5849 12.3176 52.4933 18.8171 52.4935 25.9995H52.4995V26.0007H52.4935C52.4934 33.183 49.5849 39.6828 44.8833 44.3838C40.1818 49.0852 33.6824 51.9936 26.5001 51.9938V51.9998H26.4989V51.9938C19.3166 51.9937 12.8168 49.0852 8.11571 44.3836C3.41437 39.6821 0.505929 33.1827 0.50575 26.0004H0.499695V25.9992H0.50575C0.50586 18.8169 3.41437 12.3171 8.11598 7.61601C12.8173 2.91467 19.3168 0.0062339 26.4991 0.00605545V0H26.5V0ZM26.5004 3.10116V3.10721H26.4991V3.10116C20.183 3.10132 14.4596 5.66654 10.3135 9.81292C6.16676 13.9596 3.60146 19.6835 3.60146 25.9995H3.60752V26.0007H3.60146C3.60163 32.3168 6.16685 38.0402 10.3132 42.1863C14.4599 46.3331 20.1838 48.8984 26.4998 48.8984V48.8923H26.501V48.8984C32.8171 48.8982 38.5405 46.333 42.6866 42.1866C46.8334 38.0399 49.3987 32.316 49.3987 26.0001H49.3926V25.9988H49.3987C49.3985 19.6827 46.8333 13.9593 42.6869 9.81319C38.5402 5.66645 32.8163 3.10116 26.5004 3.10116Z" fill="#D04E54"/>
</g>
<defs>
<clipPath id="clip0">
<rect width="52" height="52" fill="white" transform="translate(0.5)"/>
</clipPath>
</defs>
</svg>
