<svg width="52" height="52" viewBox="0 0 52 52" fill="none" xmlns="http://www.w3.org/2000/svg">
<path d="M25.9999 14.0833C28.0111 14.0833 29.94 14.8823 31.3621 16.3044C32.7843 17.7266 33.5832 19.6554 33.5832 21.6667M18.4166 29.25C21.2332 32.0667 27.4516 35.75 30.3332 35.75C31.5973 35.763 32.827 35.3388 33.8142 34.5491C34.8013 33.7594 35.4851 32.6528 35.7499 31.4167V29.25C35.7499 29.25 33.0849 27.95 31.4166 27.0833C29.7482 26.2167 27.0832 29.25 27.0832 29.25C25.0555 28.5894 23.2036 27.4783 21.6666 26C20.1882 24.4629 18.6606 22.5277 18 20.5C18 20.5 21.4499 17.9183 20.5832 16.25C19.7166 14.5817 18.4166 11.9167 18.4166 11.9167H16.2499C15.0138 12.1814 13.9072 12.8653 13.1175 13.8524C12.3278 14.8395 11.9035 16.0693 11.9166 17.3333C11.9166 20.215 15.5999 26.4333 18.4166 29.25ZM25.9999 18.4167C26.8618 18.4167 27.6885 18.7591 28.298 19.3686C28.9075 19.9781 29.2499 20.8047 29.2499 21.6667L25.9999 18.4167ZM25.9999 9.75C29.1604 9.75 32.1914 11.0055 34.4262 13.2403C36.6611 15.4751 37.9166 18.5062 37.9166 21.6667L25.9999 9.75Z" stroke="#D04E54" stroke-width="2" stroke-linecap="round" stroke-linejoin="round"/>
<path d="M26 3.25C14.1917 3.25 3.25 5.15667 3.25 22.75C3.25 34.0167 7.75667 38.8483 14.0833 40.8633V46.5183C14.0352 46.9941 14.1458 47.4724 14.3979 47.8787C14.65 48.285 15.0294 48.5965 15.477 48.7647C15.9246 48.9328 16.4153 48.9482 16.8725 48.8084C17.3298 48.6686 17.728 48.3814 18.005 47.9917L23.075 42.2067H26C37.8083 42.2067 48.75 40.3217 48.75 22.7067C48.75 5.09167 37.8083 3.25 26 3.25Z" stroke="#D04E54" stroke-width="2" stroke-linecap="round" stroke-linejoin="round"/>
</svg>
