<svg width="24" height="24" viewBox="0 0 24 24" fill="none" xmlns="http://www.w3.org/2000/svg">
<path d="M12 1C6.68 1 1 1.73 1 10.5C1 15.14 2.64 18 6 19.22V21.47C6.00185 21.7803 6.09802 22.0827 6.27575 22.3371C6.45348 22.5915 6.70436 22.7858 6.9951 22.8943C7.28584 23.0028 7.6027 23.0203 7.90363 22.9445C8.20456 22.8688 8.47532 22.7033 8.68 22.47L10.87 20H12C17.32 20 23 19.27 23 10.5C23 1.73 17.32 1 12 1ZM12 8C12.5304 8 13.0391 8.21071 13.4142 8.58579C13.7893 8.96086 14 9.46957 14 10C14 10.1326 13.9473 10.2598 13.8536 10.3536C13.7598 10.4473 13.6326 10.5 13.5 10.5C13.3674 10.5 13.2402 10.4473 13.1464 10.3536C13.0527 10.2598 13 10.1326 13 10C13 9.73478 12.8946 9.48043 12.7071 9.29289C12.5196 9.10536 12.2652 9 12 9C11.8674 9 11.7402 8.94732 11.6464 8.85355C11.5527 8.75979 11.5 8.63261 11.5 8.5C11.5 8.36739 11.5527 8.24021 11.6464 8.14645C11.7402 8.05268 11.8674 8 12 8ZM11.5 6.5C11.5 6.36739 11.5527 6.24021 11.6464 6.14645C11.7402 6.05268 11.8674 6 12 6C13.0609 6 14.0783 6.42143 14.8284 7.17157C15.5786 7.92172 16 8.93913 16 10C16 10.1326 15.9473 10.2598 15.8536 10.3536C15.7598 10.4473 15.6326 10.5 15.5 10.5C15.3674 10.5 15.2402 10.4473 15.1464 10.3536C15.0527 10.2598 15 10.1326 15 10C15 9.20435 14.6839 8.44129 14.1213 7.87868C13.5587 7.31607 12.7956 7 12 7C11.8674 7 11.7402 6.94732 11.6464 6.85355C11.5527 6.75979 11.5 6.63261 11.5 6.5ZM17 14.5C16.8807 15.2062 16.5127 15.8464 15.9625 16.305C15.4122 16.7635 14.7161 17.01 14 17C12.43 17 9.41 15.12 8.15 13.85C6.89 12.58 5 9.57 5 8C4.98999 7.28385 5.23653 6.58775 5.69504 6.03754C6.15356 5.48732 6.79379 5.1193 7.5 5H8.5C8.59371 4.99981 8.68559 5.02596 8.76515 5.07547C8.84472 5.12498 8.90877 5.19585 8.95 5.28C8.95 5.28 9.55 6.5 9.95 7.28C10.35 8.06 9.56 9.17 9.08 9.65C9.3662 10.3944 9.79795 11.0744 10.35 11.65C10.9256 12.2021 11.6056 12.6338 12.35 12.92C12.8208 12.3786 13.47 12.0238 14.18 11.92C14.3645 11.9202 14.5463 11.9648 14.71 12.05L16.71 13.05C16.7942 13.0912 16.865 13.1553 16.9145 13.2348C16.964 13.3144 16.9902 13.4063 16.99 13.5L17 14.5ZM17.5 10.5C17.3674 10.5 17.2402 10.4473 17.1464 10.3536C17.0527 10.2598 17 10.1326 17 10C17 8.67392 16.4732 7.40215 15.5355 6.46447C14.5979 5.52678 13.3261 5 12 5C11.8674 5 11.7402 4.94732 11.6464 4.85355C11.5527 4.75979 11.5 4.63261 11.5 4.5C11.5 4.36739 11.5527 4.24021 11.6464 4.14645C11.7402 4.05268 11.8674 4 12 4C13.5913 4 15.1174 4.63214 16.2426 5.75736C17.3679 6.88258 18 8.4087 18 10C18 10.1326 17.9473 10.2598 17.8536 10.3536C17.7598 10.4473 17.6326 10.5 17.5 10.5Z" fill="#D04E54"/>
</svg>
