<svg width="52" height="52" viewBox="0 0 52 52" fill="none" xmlns="http://www.w3.org/2000/svg">
<path d="M26.4196 14.0833C28.4308 14.0833 30.3596 14.8823 31.7818 16.3044C33.2039 17.7266 34.0029 19.6554 34.0029 21.6667M18.8362 29.25C21.6529 32.0667 27.8712 35.75 30.7529 35.75C32.017 35.763 33.2467 35.3388 34.2338 34.5491C35.221 33.7594 35.9048 32.6528 36.1696 31.4167V29.25C36.1696 29.25 33.5046 27.95 31.8362 27.0833C30.1679 26.2167 27.5029 29.25 27.5029 29.25C25.4752 28.5894 23.6233 27.4783 22.0862 26C20.6079 24.4629 19.0803 22.5277 18.4197 20.5C18.4197 20.5 21.8696 17.9183 21.0029 16.25C20.1362 14.5817 18.8362 11.9167 18.8362 11.9167H16.6696C15.4335 12.1814 14.3268 12.8653 13.5371 13.8524C12.7474 14.8395 12.3232 16.0693 12.3362 17.3333C12.3362 20.215 16.0196 26.4333 18.8362 29.25ZM26.4196 18.4167C27.2815 18.4167 28.1082 18.7591 28.7177 19.3686C29.3272 19.9781 29.6696 20.8047 29.6696 21.6667L26.4196 18.4167ZM26.4196 9.75C29.5801 9.75 32.6111 11.0055 34.8459 13.2403C37.0807 15.4751 38.3362 18.5062 38.3362 21.6667L37 17L36 15L34.5 13.5L32.5 12L30.5 11L28.7177 10.381L26.4196 9.75Z" stroke="#D04E54" stroke-width="3" stroke-linecap="round" stroke-linejoin="round"/>
<path d="M26 3.25C14.1917 3.25 3.25 5.15667 3.25 22.75C3.25 34.0167 7.75667 38.8483 14.0833 40.8633V46.5183C14.0352 46.9941 14.1458 47.4724 14.3979 47.8787C14.65 48.285 15.0294 48.5965 15.477 48.7647C15.9246 48.9328 16.4153 48.9482 16.8725 48.8084C17.3298 48.6686 17.728 48.3814 18.005 47.9917L23.075 42.2067H26C37.8083 42.2067 48.75 40.3217 48.75 22.7067C48.75 5.09167 37.8083 3.25 26 3.25Z" stroke="#D04E54" stroke-width="3" stroke-linecap="round" stroke-linejoin="round"/>
</svg>
