<svg width="52" height="52" viewBox="0 0 52 52" fill="none" xmlns="http://www.w3.org/2000/svg">
<path d="M26 52C40.3594 52 52 40.3594 52 26C52 11.6406 40.3594 0 26 0C11.6406 0 0 11.6406 0 26C0 40.3594 11.6406 52 26 52Z" fill="#D04E54"/>
<path d="M10.8207 25.774L28.3294 18.5601C30.0577 17.8086 35.919 15.404 35.919 15.404C35.919 15.404 38.6242 14.352 38.3987 16.9069C38.3236 17.9589 37.7224 21.641 37.1213 25.6237L35.2427 37.4214C35.2427 37.4214 35.0924 39.1497 33.8149 39.4503C32.5375 39.7508 30.4334 38.3982 30.0577 38.0977C29.7571 37.8722 24.4219 34.4907 22.4681 32.8375C21.9421 32.3867 21.3409 31.4849 22.5432 30.4329C25.2484 27.9532 28.4797 24.8722 30.4334 22.9185C31.3351 22.0167 32.2369 19.9127 28.4797 22.4676L17.8843 29.6063C17.8843 29.6063 16.682 30.3578 14.4276 29.6815C12.1733 29.0052 9.54326 28.1034 9.54326 28.1034C9.54326 28.1034 7.73979 26.9763 10.8207 25.774Z" fill="white"/>
</svg>
