<svg width="52" height="52" viewBox="0 0 52 52" fill="none" xmlns="http://www.w3.org/2000/svg">
<path d="M45.0955 7.53178C43.7601 8.06842 5.85838 24.3247 5.85838 24.3247C5.85838 24.3247 4.02278 24.9632 4.16838 26.1426C4.31398 27.3219 5.81158 27.8617 5.81158 27.8617L15.5668 31.2022C15.5668 31.2022 18.5121 41.0281 19.0924 42.8928C19.6727 44.7607 20.1365 44.8043 20.1365 44.8043C20.6753 45.0435 21.1682 44.6619 21.1682 44.6619L27.4717 38.815L37.2976 46.4787C39.9537 47.6581 40.9199 45.2016 40.9199 45.2016L47.6893 9.91962C48.2883 7.18962 46.5057 6.96706 45.0955 7.53178Z" stroke="#D04E54" stroke-width="3" stroke-miterlimit="10"/>
<path d="M15.6001 31.1996L40.5601 14.5596L22.8801 35.3596" stroke="#D04E54" stroke-width="3" stroke-miterlimit="10" stroke-linecap="round" stroke-linejoin="round"/>
<path d="M20.8 44.7204L22.88 35.3604L27.04 38.4804" stroke="#D04E54" stroke-width="3" stroke-miterlimit="10" stroke-linecap="round" stroke-linejoin="round"/>
</svg>
