<svg width="52" height="52" viewBox="0 0 52 52" fill="none" xmlns="http://www.w3.org/2000/svg">
<g clip-path="url(#clip0)">
<path d="M4.33344 7.58366C6.97284 10.8196 10.269 13.4585 14.0039 15.326C17.7389 17.1935 21.8277 18.247 26.0001 18.417C25.4368 16.1203 25.3934 9.88033 29.7701 7.28033C31.5493 6.11077 33.6215 5.46508 35.7501 5.41699C37.1391 5.42014 38.5125 5.71048 39.784 6.26977C41.0554 6.82906 42.1975 7.64522 43.1384 8.66699C45.4189 8.1816 47.6111 7.34854 49.6384 6.19699C48.9268 8.52224 47.3843 10.5043 45.3051 11.7653C47.2893 11.5936 49.2341 11.1111 51.0684 10.3353C49.6878 12.3924 47.9397 14.1773 45.9118 15.6003C47.4501 29.402 35.0784 46.562 17.4851 46.562C11.7788 46.5932 6.16815 45.097 1.23511 42.2287C3.92463 42.5635 6.65407 42.3523 9.26008 41.6077C11.8661 40.8631 14.2951 39.6005 16.4018 37.8953C14.071 37.7581 11.8241 36.9765 9.91133 35.6376C7.99858 34.2987 6.49512 32.455 5.56844 30.312C7.73511 31.0053 9.79344 31.352 10.9851 30.312C8.5508 29.6926 6.37985 28.3075 4.79221 26.361C3.20457 24.4145 2.28421 22.0095 2.16677 19.5003C2.88259 20.2002 3.72956 20.7519 4.65909 21.1237C5.58861 21.4955 6.5824 21.6801 7.58344 21.667C5.40325 20.1311 3.86617 17.8451 3.26651 15.2465C2.66684 12.648 3.04673 9.91956 4.33344 7.58366V7.58366Z" stroke="#D04E54" stroke-width="3" stroke-linecap="round" stroke-linejoin="round"/>
</g>
<defs>
<clipPath id="clip0">
<rect width="52" height="52" fill="white"/>
</clipPath>
</defs>
</svg>
