<svg width="50" height="52" viewBox="0 0 50 52" fill="none" xmlns="http://www.w3.org/2000/svg">
<path d="M49.2048 6.04921C48.0939 6.66512 46.9406 7.15102 45.7573 7.5028C47.0612 5.95365 48.0416 4.01599 48.5947 1.85322C48.7525 1.23578 48.2161 0.701872 47.7702 1.03246C46.124 2.25331 44.3508 3.16917 42.4996 3.7549C42.3922 3.78889 42.2814 3.80612 42.1702 3.80612C41.8331 3.80612 41.5053 3.64958 41.2474 3.36548C39.2779 1.19524 36.7449 0 34.115 0C32.977 0 31.8281 0.221764 30.6999 0.659196C27.2047 2.01463 24.5078 5.6194 23.6616 10.0669C23.3442 11.7351 23.2582 13.4048 23.406 15.0295C23.4229 15.2162 23.3524 15.3465 23.3088 15.4077C23.2324 15.5148 23.124 15.5762 23.0115 15.5762C22.999 15.5762 22.986 15.5755 22.9732 15.574C15.3222 14.6852 8.42287 10.0766 3.54606 2.59731C3.29737 2.21581 2.82048 2.26261 2.62226 2.68769C1.66725 4.73615 1.16257 7.07908 1.16257 9.46316C1.16257 13.1169 2.33664 16.5601 4.37599 19.0702C3.51838 18.816 2.68833 18.4156 1.91728 17.8801C1.54425 17.621 1.08528 17.9541 1.08004 18.4875C1.02664 23.9153 3.56837 28.7451 7.37595 30.9199C7.29927 30.9222 7.22259 30.9232 7.14579 30.9232C6.54224 30.9232 5.93113 30.8504 5.32965 30.7067C4.90957 30.6064 4.55665 31.1046 4.68709 31.6138C5.92296 36.4379 9.24512 39.9938 13.2207 40.8011C9.92121 43.5704 6.07888 45.0311 2.07978 45.0311L0.833057 45.0302C0.448934 45.0302 0.124057 45.3433 0.0261669 45.8084C-0.07026 46.2666 0.107356 46.7499 0.434915 46.9881C4.94126 50.267 10.0814 52 15.3019 52C19.8715 52 24.146 50.8662 28.0067 48.6302C31.546 46.5804 34.6736 43.6502 37.3026 39.9211C39.7516 36.4472 41.6668 32.437 42.9946 28.0021C44.2603 23.7745 44.9293 19.2636 44.9293 14.957V14.7518C44.9292 14.0603 45.1794 13.4097 45.6158 12.9667C47.2719 11.2856 48.714 9.30663 49.902 7.08487C50.2156 6.49823 49.7209 5.76298 49.2048 6.04921Z" fill="#D04E54"/>
</svg>
