<svg width="52" height="52" viewBox="0 0 52 52" fill="none" xmlns="http://www.w3.org/2000/svg">
<g clip-path="url(#clip0)">
<path d="M1.08325 14.0837H9.74992C9.74992 14.0837 14.7549 27.0837 19.4999 27.0837C20.3883 27.0837 20.5833 25.4587 20.5833 20.5837C20.5833 15.7087 19.3049 14.0837 18.4166 14.0837C18.4166 13.1953 20.1066 11.917 24.9166 11.917C29.7266 11.917 29.2499 12.047 29.2499 14.0837V22.7503C29.2499 25.2637 30.0733 27.0837 31.4166 27.0837C32.7599 27.0837 40.5599 17.4637 41.1666 14.0837H50.9166C50.9166 15.232 42.2499 27.2137 42.2499 28.167C42.2499 29.1203 50.9166 37.917 50.9166 39.0003C50.9166 40.0837 49.0316 40.0837 46.5833 40.0837H41.1666C39.8883 40.0837 34.3199 33.5837 31.4166 33.5837C28.5133 33.5837 30.8099 40.0837 28.1666 40.0837H23.8333C15.7733 40.0837 2.16659 20.3887 1.08325 14.0837Z" stroke="#D04E54" stroke-width="3" stroke-linecap="round" stroke-linejoin="round"/>
</g>
<defs>
<clipPath id="clip0">
<rect width="52" height="52" fill="white"/>
</clipPath>
</defs>
</svg>
