<svg width="52" height="52" viewBox="0 0 52 52" fill="none" xmlns="http://www.w3.org/2000/svg">
<path fill-rule="evenodd" clip-rule="evenodd" d="M18.0267 0H33.9733C48.5333 0 52 3.46667 52 18.0267V33.9733C52 48.5333 48.5333 52 33.9733 52H18.0267C3.46667 52 0 48.5333 0 33.9733V18.0267C0 3.46667 3.46667 0 18.0267 0Z" fill="#D04E54"/>
<path fill-rule="evenodd" clip-rule="evenodd" d="M42.5842 17.9143C42.8251 17.1109 42.5842 16.5205 41.4376 16.5205H37.6459C36.6818 16.5205 36.2373 17.0305 35.9963 17.5928C35.9963 17.5928 34.0681 22.2928 31.3366 25.3457C30.4528 26.2294 30.0511 26.5106 29.569 26.5106C29.3281 26.5106 28.9792 26.2294 28.9792 25.426V17.9143C28.9792 16.9502 28.6994 16.5205 27.8959 16.5205H21.9376C21.3351 16.5205 20.9728 16.968 20.9728 17.392C20.9728 18.306 22.3385 18.5168 22.4792 21.0877V26.6713C22.4792 27.8955 22.2581 28.1175 21.7761 28.1175C20.4907 28.1175 17.364 23.3965 15.5095 17.9946C15.1461 16.9446 14.7816 16.5205 13.8126 16.5205H10.0209C8.93756 16.5205 8.72089 17.0305 8.72089 17.5928C8.72089 18.5971 10.0063 23.5782 14.7062 30.1661C17.8394 34.6651 22.2539 37.1038 26.2709 37.1038C28.6811 37.1038 28.9792 36.5622 28.9792 35.6292V32.2288C28.9792 31.1455 29.2076 30.9293 29.9708 30.9293C30.5331 30.9293 31.4972 31.2105 33.7468 33.3797C36.3176 35.9505 36.7415 37.1038 38.1876 37.1038H41.9792C43.0626 37.1038 43.6042 36.5622 43.2918 35.4932C42.9498 34.4279 41.7224 32.8821 40.0937 31.0498C39.2099 30.0054 37.8843 28.8807 37.4825 28.3182C36.9202 27.5952 37.0809 27.2738 37.4825 26.6311C37.4825 26.6311 42.1022 20.1236 42.5842 17.9143Z" fill="white"/>
</svg>
