<svg width="24" height="24" viewBox="0 0 24 24" fill="none" xmlns="http://www.w3.org/2000/svg">
<g clip-path="url(#clip0)">
<path d="M19.9999 13C20.2399 12.55 21.0899 11.26 21.7299 10.3C23.6499 7.46 23.9999 6.86 23.9999 6.5C23.9999 6.36739 23.9472 6.24021 23.8534 6.14645C23.7597 6.05268 23.6325 6 23.4999 6H18.9999C18.8832 6.00043 18.7703 6.04165 18.6809 6.11653C18.5914 6.19141 18.5309 6.29522 18.5099 6.41C18.2599 7.79 15.0199 11.75 14.5099 12C14.2999 12 14.0099 11.48 14.0099 10.5V6.28C14.0373 6.11682 14.0301 5.9497 13.9888 5.78948C13.9474 5.62926 13.8729 5.47952 13.7699 5.35C13.4299 5 12.9199 5 11.4999 5C8.91988 5 7.99988 5.77 7.99988 6.5C7.99438 6.56285 8.00187 6.62616 8.02189 6.68599C8.0419 6.74583 8.07401 6.8009 8.11621 6.8478C8.15842 6.89469 8.20982 6.9324 8.26722 6.95859C8.32462 6.98477 8.3868 6.99887 8.44988 7C8.44988 7 8.99988 7.36 8.99988 9.5C9.02815 10.3355 8.98466 11.1719 8.86988 12C7.59988 11.77 5.83988 8.6 4.99988 6.32C4.96165 6.22024 4.89249 6.13535 4.80251 6.07777C4.71253 6.02018 4.60647 5.99293 4.49988 6H0.499878C0.425908 5.99879 0.352592 6.01401 0.285215 6.04456C0.217838 6.07511 0.158081 6.12023 0.110251 6.17667C0.062422 6.23311 0.0277126 6.29946 0.00862617 6.37094C-0.0104602 6.44241 -0.0134481 6.51723 -0.000121826 6.59C0.559878 9.61 6.90988 19 10.9999 19H12.9999C14.0599 19 14.1399 17.85 14.1999 17.09C14.2599 16.33 14.3099 16 14.4999 16C15.1199 16 16.3899 17.1 17.2199 17.82C18.0499 18.54 18.5899 19 18.9999 19H21.4999C22.7899 19 23.9999 19 23.9999 18C23.9999 17.62 23.6699 17.18 21.7699 15C21.1399 14.31 20.2899 13.36 19.9999 13Z" fill="#D04E54"/>
</g>
<defs>
<clipPath id="clip0">
<rect width="24" height="24" fill="white"/>
</clipPath>
</defs>
</svg>
