<svg width="51" height="51" viewBox="0 0 51 51" fill="none" xmlns="http://www.w3.org/2000/svg">
<path d="M8.50281 6.53516H8.08119C7.30821 6.53516 6.67578 7.16759 6.67578 7.94056C6.67578 8.71353 7.30821 9.34597 8.08119 9.34597H8.50281C9.27578 9.34597 9.90821 8.71353 9.90821 7.94056C9.90821 7.16759 9.27578 6.53516 8.50281 6.53516Z" fill="#D04E54"/>
<path d="M14.7567 6.53516H14.3351C13.5621 6.53516 12.9297 7.16759 12.9297 7.94056C12.9297 8.71353 13.5621 9.34597 14.3351 9.34597H14.7567C15.5297 9.34597 16.1621 8.71353 16.1621 7.94056C16.1621 7.16759 15.5297 6.53516 14.7567 6.53516Z" fill="#D04E54"/>
<path d="M21.0109 6.53516H20.5892C19.8163 6.53516 19.1838 7.16759 19.1838 7.94056C19.1838 8.71353 19.8163 9.34597 20.5892 9.34597H21.0109C21.7838 9.34597 22.4163 8.71353 22.4163 7.94056C22.4163 7.16759 21.7838 6.53516 21.0109 6.53516Z" fill="#D04E54"/>
<path d="M44.8324 0H5.76216C2.6 0 0 2.6 0 5.76216V44.9027C0 47.9946 2.6 50.5946 5.76216 50.5946H44.9027C48.0649 50.5946 50.6649 47.9946 50.6649 44.8324V5.76216C50.5946 2.6 47.9946 0 44.8324 0ZM47.7838 44.8324C47.7838 46.4487 46.4487 47.7838 44.8324 47.7838H5.76216C4.14595 47.7838 2.81081 46.4487 2.81081 44.8324V15.8108H41.5297C42.3027 15.8108 42.9351 15.1784 42.9351 14.4054C42.9351 13.6324 42.3027 13 41.5297 13H2.81081V5.76216C2.81081 4.14595 4.14595 2.81081 5.76216 2.81081H44.9027C46.4486 2.81081 47.7838 4.14595 47.7838 5.76216V44.8324Z" fill="#D04E54"/>
<path d="M30.2161 26.4219H29.4432C29.1621 26.4219 28.9513 26.5624 28.881 26.8435L27.5459 31.4111L26.4215 26.8435C26.3513 26.5624 26.1405 26.4219 25.8594 26.4219H24.8053C24.5243 26.4219 24.3134 26.6327 24.2432 26.8435L23.0486 31.4111L21.7134 26.8435C21.6432 26.5624 21.4324 26.4219 21.1513 26.4219H20.4486C20.027 26.4219 19.7459 26.8435 19.8864 27.1948L21.9243 33.6597C21.9945 33.9408 22.2053 34.0813 22.4864 34.0813H23.5405C23.8215 34.0813 24.0324 33.8705 24.1026 33.6597L25.2972 29.1624L26.4918 33.6597C26.5621 33.9408 26.7729 34.0813 27.054 34.0813H28.108C28.3891 34.0813 28.5999 33.9408 28.6702 33.6597L30.708 27.1948C30.8486 26.7732 30.5675 26.4219 30.2161 26.4219Z" fill="#D04E54"/>
<path d="M41.6704 26.4219H40.8975C40.6164 26.4219 40.4056 26.5624 40.3353 26.8435L39.0002 31.4111L37.8056 26.8435C37.7353 26.5624 37.5245 26.4219 37.2434 26.4219H36.1894C35.9083 26.4219 35.6975 26.6327 35.6272 26.8435L34.4326 31.4111L33.0975 26.8435C33.0272 26.5624 32.8164 26.4219 32.5353 26.4219H31.8326C31.411 26.4219 31.1299 26.8435 31.2704 27.1948L33.3083 33.6597C33.3786 33.9408 33.5894 34.0813 33.8704 34.0813H34.9245C35.2056 34.0813 35.4164 33.8705 35.4867 33.6597L36.6813 29.1624L37.8758 33.6597C37.9461 33.9408 38.1569 34.0813 38.438 34.0813H39.4921C39.7731 34.0813 39.984 33.9408 40.0542 33.6597L42.1623 27.1948C42.3029 26.7732 42.0218 26.4219 41.6704 26.4219Z" fill="#D04E54"/>
<path d="M18.6919 26.4219H17.919C17.6379 26.4219 17.4271 26.5624 17.3568 26.8435L16.0217 31.4111L14.8271 26.8435C14.7568 26.5624 14.546 26.4219 14.2649 26.4219H13.2108C12.9298 26.4219 12.719 26.6327 12.6487 26.8435L11.4541 31.4111L10.119 26.8435C10.0487 26.5624 9.83788 26.4219 9.55679 26.4219H8.85409C8.43247 26.4219 8.15139 26.8435 8.29193 27.1948L10.3298 33.6597C10.4 33.9408 10.6108 34.0813 10.8919 34.0813H11.946C12.2271 34.0813 12.4379 33.8705 12.5081 33.6597L13.7027 29.1624L14.8973 33.6597C14.9676 33.9408 15.1784 34.0813 15.4595 34.0813H16.5136C16.7946 34.0813 17.0054 33.9408 17.0757 33.6597L19.1838 27.1948C19.3946 26.7732 19.1136 26.4219 18.6919 26.4219Z" fill="#D04E54"/>
</svg>
