<svg width="52" height="52" viewBox="0 0 52 52" fill="none" xmlns="http://www.w3.org/2000/svg">
<path d="M24.4901 29L22.2001 36H20.4601L18.9201 31.26L17.3301 36H15.6001L13.3001 29H14.9801L16.5601 33.92L18.2101 29H19.7101L21.3101 33.96L22.9401 29H24.4901ZM30.8145 34.7V36H25.3945V29H30.6845V30.3H27.0045V31.82H30.2545V33.08H27.0045V34.7H30.8145ZM37.2434 32.36C37.6434 32.4867 37.9568 32.7 38.1834 33C38.4101 33.2933 38.5234 33.6567 38.5234 34.09C38.5234 34.7033 38.2834 35.1767 37.8034 35.51C37.3301 35.8367 36.6368 36 35.7234 36H32.1034V29H35.5234C36.3768 29 37.0301 29.1633 37.4834 29.49C37.9434 29.8167 38.1734 30.26 38.1734 30.82C38.1734 31.16 38.0901 31.4633 37.9234 31.73C37.7634 31.9967 37.5368 32.2067 37.2434 32.36ZM33.7134 30.22V31.87H35.3234C35.7234 31.87 36.0268 31.8 36.2334 31.66C36.4401 31.52 36.5434 31.3133 36.5434 31.04C36.5434 30.7667 36.4401 30.5633 36.2334 30.43C36.0268 30.29 35.7234 30.22 35.3234 30.22H33.7134ZM35.6034 34.78C36.0301 34.78 36.3501 34.71 36.5634 34.57C36.7834 34.43 36.8934 34.2133 36.8934 33.92C36.8934 33.34 36.4634 33.05 35.6034 33.05H33.7134V34.78H35.6034Z" fill="#D04E54"/>
<rect x="2" y="2" width="48" height="48" rx="8" stroke="#D04E54" stroke-width="4"/>
<rect x="2" y="14" width="48" height="3" fill="#D04E54"/>
<rect x="8" y="9" width="13" height="2" rx="1" fill="#D04E54"/>
</svg>
