<svg width="52" height="52" viewBox="0 0 52 52" fill="none" xmlns="http://www.w3.org/2000/svg">
<path d="M24.7289 0.0300722C10.8838 0.683966 -0.04188 12.121 0.000120687 25.8697C0.0129089 30.0572 1.03208 34.0097 2.82996 37.502L0.0695785 50.7929C-0.0797433 51.5118 0.573962 52.1414 1.29399 51.9722L14.4236 48.8867C17.7969 50.5534 21.5857 51.5161 25.5956 51.5768C39.7465 51.7912 51.546 40.6457 51.987 26.6144C52.4598 11.5737 39.9451 -0.688739 24.7289 0.0300722ZM40.3953 40.0689C36.5502 43.883 31.4378 45.9835 26 45.9835C22.816 45.9835 19.7676 45.2749 16.9393 43.8774L15.1108 42.9739L7.061 44.8657L8.75544 36.7067L7.85462 34.9569C6.38635 32.1047 5.64187 29.0204 5.64187 25.7899C5.64187 20.3959 7.75946 15.3249 11.6046 11.5108C15.4154 7.7308 20.6112 5.59613 26.0004 5.59613C31.4382 5.59625 36.5503 7.69672 40.3955 11.5106C44.2406 15.3247 46.3582 20.3957 46.3583 25.7895C46.3582 31.1353 44.2061 36.2891 40.3953 40.0689Z" fill="#D04E54"/>
<path d="M38.6184 31.3836L33.5822 29.9492C32.9201 29.7607 32.2071 29.947 31.7246 30.4346L30.4931 31.6792C29.9738 32.204 29.1858 32.3727 28.4985 32.0968C26.1161 31.1405 21.1046 26.7207 19.8248 24.5099C19.4555 23.8722 19.5166 23.0749 19.9699 22.493L21.0452 21.1132C21.4664 20.5726 21.5553 19.8466 21.2767 19.2217L19.1579 14.4682C18.6504 13.3296 17.1836 12.9982 16.2254 13.8021C14.8198 14.9813 13.152 16.7732 12.9493 18.7584C12.5919 22.2584 14.1051 26.6706 19.8276 31.9684C26.4387 38.0888 31.7328 38.8974 35.1797 38.0692C37.1348 37.5995 38.6972 35.7164 39.6833 34.1745C40.3556 33.1233 39.8247 31.7272 38.6184 31.3836Z" fill="#D04E54"/>
</svg>
