<svg width="52" height="52" viewBox="0 0 52 52" fill="none" xmlns="http://www.w3.org/2000/svg">
<path d="M25.9999 1.08303C21.4812 1.08348 17.0476 2.31277 13.1738 4.63931C9.29997 6.96584 6.13176 10.302 4.00829 14.2908C1.88483 18.2795 0.886036 22.7706 1.11884 27.2834C1.35164 31.7961 2.80727 36.1606 5.32992 39.9097L1.08325 50.9164L12.4149 46.8647C15.6648 48.986 19.3652 50.3189 23.2213 50.757C27.0774 51.1952 30.9826 50.7265 34.6255 49.3884C38.2685 48.0503 41.5485 45.8797 44.2041 43.0497C46.8597 40.2197 48.8176 36.8084 49.9216 33.0878C51.0256 29.3673 51.2453 25.4402 50.5631 21.6197C49.8809 17.7992 48.3157 14.1909 45.9922 11.0824C43.6688 7.97383 40.6513 5.45099 37.1803 3.71495C33.7094 1.97891 29.8808 1.07766 25.9999 1.08303V1.08303Z" stroke="#D04E54" stroke-width="2" stroke-linecap="round" stroke-linejoin="round"/>
<path d="M20.5831 31.4163C23.3997 34.233 29.6181 37.9163 32.4997 37.9163C33.7638 37.9294 34.9935 37.5051 35.9807 36.7154C36.9678 35.9257 37.6516 34.8191 37.9164 33.583V31.4163C37.9164 31.4163 35.2514 30.1163 33.5831 29.2497C31.9147 28.383 29.2497 31.4163 29.2497 31.4163C27.222 30.7558 25.3701 29.6446 23.8331 28.1663C22.3548 26.6292 21.2436 24.7774 20.5831 22.7497C20.5831 22.7497 23.6164 20.0847 22.7497 18.4163C21.8831 16.748 20.5831 14.083 20.5831 14.083H18.4164C17.1803 14.3478 16.0737 15.0316 15.284 16.0187C14.4943 17.0059 14.07 18.2356 14.0831 19.4997C14.0831 22.3813 17.7664 28.5997 20.5831 31.4163Z" stroke="#D04E54" stroke-width="2" stroke-linecap="round" stroke-linejoin="round"/>
</svg>
