<svg width="54" height="54" viewBox="0 0 54 54" fill="none" xmlns="http://www.w3.org/2000/svg">
<path d="M26.9167 2.00002C22.3979 2.00048 17.9643 3.22976 14.0905 5.5563C10.2167 7.88283 7.04851 11.219 4.92504 15.2078C2.80157 19.1965 1.80278 23.6876 2.03559 28.2004C2.26839 32.7131 3.72402 37.0776 6.24667 40.8267L2 51.8334L13.3317 47.7817C16.5815 49.903 20.282 51.2359 24.1381 51.674C27.9942 52.1122 31.8993 51.6435 35.5423 50.3054C39.1852 48.9673 42.4652 46.7967 45.1209 43.9667C47.7765 41.1367 49.7343 37.7254 50.8384 34.0048C51.9424 30.2842 52.1621 26.3572 51.4799 22.5367C50.7977 18.7162 49.2325 15.1079 46.909 11.9994C44.5855 8.89082 41.5681 6.36798 38.0971 4.63194C34.6261 2.8959 30.7976 1.99465 26.9167 2.00002V2.00002Z" stroke="#D04E54" stroke-width="3" stroke-linecap="round" stroke-linejoin="round"/>
<path d="M21.4998 32.3333C24.3165 35.15 30.5348 38.8333 33.4165 38.8333C34.6805 38.8464 35.9103 38.4221 36.8974 37.6324C37.8845 36.8427 38.5684 35.7361 38.8331 34.5V32.3333C38.8331 32.3333 36.1681 31.0333 34.4998 30.1667C32.8315 29.3 30.1665 32.3333 30.1665 32.3333C28.1387 31.6727 26.2869 30.5616 24.7498 29.0833C23.2715 27.5462 22.1604 25.6944 21.4998 23.6667C21.4998 23.6667 24.5331 21.0017 23.6665 19.3333C22.7998 17.665 21.4998 15 21.4998 15H19.3331C18.097 15.2648 16.9904 15.9486 16.2007 16.9357C15.411 17.9229 14.9868 19.1526 14.9998 20.4167C14.9998 23.2983 18.6831 29.5167 21.4998 32.3333Z" stroke="#D04E54" stroke-width="3" stroke-linecap="round" stroke-linejoin="round"/>
</svg>
