<svg width="24" height="24" viewBox="0 0 24 24" fill="none" xmlns="http://www.w3.org/2000/svg">
<g clip-path="url(#clip0)">
<path d="M11.9998 0C9.84568 -3.55463e-06 7.73129 0.579833 5.87851 1.67866C4.02573 2.77748 2.5029 4.35477 1.46982 6.24499C0.436743 8.13522 -0.0684795 10.2687 0.00717521 12.4215C0.08283 14.5742 0.736572 16.667 1.89979 18.48L-0.000208229 23.32C-0.0307053 23.3985 -0.0409022 23.4833 -0.0298536 23.5668C-0.0188051 23.6502 0.0131312 23.7295 0.0629949 23.7973C0.112859 23.8652 0.179036 23.9193 0.255392 23.9547C0.331749 23.9901 0.415812 24.0057 0.499792 24C0.556026 24.0099 0.613558 24.0099 0.669792 24L5.66979 22.21C7.24776 23.1845 9.03013 23.7799 10.877 23.9496C12.7238 24.1193 14.5848 23.8587 16.314 23.1881C18.0431 22.5175 19.5933 21.4552 20.8428 20.0847C22.0923 18.7142 23.0071 17.0727 23.5154 15.2891C24.0238 13.5055 24.1118 11.6284 23.7725 9.80503C23.4333 7.9817 22.6761 6.26182 21.5603 4.7804C20.4445 3.29898 19.0005 2.09635 17.3417 1.26692C15.6829 0.43749 13.8544 0.00383496 11.9998 0V0ZM17.9998 15.5C17.8805 16.2062 17.5125 16.8464 16.9623 17.305C16.412 17.7635 15.7159 18.01 14.9998 18C13.4298 18 10.4098 16.12 9.14979 14.85C7.88979 13.58 5.99979 10.57 5.99979 9C5.98979 8.28385 6.23632 7.58775 6.69484 7.03754C7.15335 6.48732 7.79358 6.1193 8.49979 6H9.49979C9.5935 5.99981 9.68538 6.02596 9.76494 6.07547C9.84451 6.12498 9.90856 6.19585 9.94979 6.28C9.94979 6.28 10.5498 7.5 10.9498 8.28C11.3498 9.06 10.5598 10.17 10.0798 10.65C10.366 11.3944 10.7977 12.0744 11.3498 12.65C11.9254 13.2021 12.6053 13.6338 13.3498 13.92C13.8206 13.3786 14.4698 13.0238 15.1798 12.92C15.3643 12.9206 15.546 12.9651 15.7098 13.05C16.4798 13.44 17.7098 14.05 17.7098 14.05C17.7939 14.0912 17.8648 14.1553 17.9143 14.2348C17.9638 14.3144 17.99 14.4063 17.9898 14.5L17.9998 15.5Z" fill="#D04E54"/>
</g>
<defs>
<clipPath id="clip0">
<rect width="24" height="24" fill="white"/>
</clipPath>
</defs>
</svg>
