<svg width="48" height="48" viewBox="0 0 48 48" fill="none" xmlns="http://www.w3.org/2000/svg">
<g clip-path="url(#clip0)">
<path d="M22.8365 0.0277589C10.1597 0.631353 0.15599 11.1886 0.194446 23.8797C0.206156 27.7451 1.13933 31.3935 2.78549 34.6172L0.258043 46.8857C0.121322 47.5494 0.719865 48.1305 1.37914 47.9743L13.4009 45.1262C16.4894 46.6646 19.9586 47.5533 23.6301 47.6093C36.5869 47.8072 47.3907 37.5191 47.7945 24.5671C48.2274 10.6834 36.7687 -0.635758 22.8365 0.0277589ZM37.181 36.9867C33.6603 40.5074 28.9793 42.4463 24.0004 42.4463C21.085 42.4463 18.2939 41.7922 15.7042 40.5022L14.0301 39.6682L6.6595 41.4145L8.21096 33.8831L7.38615 32.2679C6.04178 29.6351 5.36013 26.7881 5.36013 23.806C5.36013 18.827 7.29902 14.1461 10.8197 10.6253C14.3089 7.13612 19.0662 5.16566 24.0007 5.16566C28.9796 5.16577 33.6604 7.10466 37.1811 10.6252C40.7017 14.1459 42.6406 18.8268 42.6408 23.8057C42.6406 28.7403 40.6702 33.4976 37.181 36.9867Z" fill="#728AB7"/>
<path d="M35.554 28.9683L30.9428 27.6443C30.3366 27.4702 29.6838 27.6422 29.242 28.0923L28.1144 29.2412C27.6389 29.7256 26.9174 29.8813 26.2881 29.6267C24.1068 28.7439 19.5181 24.6641 18.3463 22.6233C18.0082 22.0347 18.0641 21.2987 18.4792 20.7616L19.4637 19.4879C19.8494 18.9889 19.9308 18.3187 19.6758 17.7419L17.7357 13.3541C17.271 12.3031 15.928 11.9972 15.0507 12.7392C13.7637 13.8277 12.2367 15.4818 12.051 17.3143C11.7238 20.5451 13.1093 24.6178 18.349 29.5081C24.4021 35.1577 29.2495 35.9041 32.4056 35.1396C34.1957 34.706 35.6263 32.9678 36.5291 31.5446C37.1447 30.5742 36.6586 29.2855 35.554 28.9683Z" fill="#728AB7"/>
</g>
<defs>
<clipPath id="clip0">
<rect width="48" height="48" fill="white"/>
</clipPath>
</defs>
</svg>
