<svg width="283" height="209" viewBox="0 0 283 209" fill="none" xmlns="http://www.w3.org/2000/svg">
<path fill-rule="evenodd" clip-rule="evenodd" d="M106.794 206.786C153.842 220.067 176.735 169.101 217.047 172.979C239.114 175.101 283.098 185.859 283 107.493C282.754 56.9005 236.298 44.2313 188.391 70.1774C174.294 75.7112 163.165 73.9962 151.081 68.4978C138.997 62.9994 123.456 38.4532 94.165 33.4035C6.01935 18.207 -69.4006 157.05 106.794 206.786Z" fill="#D04E54"/>
<path fill-rule="evenodd" clip-rule="evenodd" d="M218.598 79.5017C219.481 79.0709 221.065 79.9062 220.146 81.2508C218.112 84.228 225.979 90.175 223.454 84.9344C223.184 84.3741 221.799 80.4993 223.758 82.4997C225.718 84.5001 228.449 93.3405 226.683 96.3864C225.132 99.0594 221.029 100.331 215.427 100.482L215.175 100.487L215.056 100.495C211.754 100.649 209.25 98.5974 207.634 94.6026L207.556 94.4078C205.92 90.2262 206.369 86.8741 209.015 84.6142C209.063 84.5732 209.114 84.5363 209.168 84.504L209.252 84.459L218.598 79.5017Z" fill="white"/>
<path fill-rule="evenodd" clip-rule="evenodd" d="M40.212 1.24664C39.8269 0.698008 39.2027 0.382072 38.5362 0.464016C37.8536 0.547139 37.2828 1.02357 37.0752 1.68091L37.0197 1.8567C36.9777 1.98646 36.9277 2.13507 36.869 2.30219C36.7015 2.77932 36.4985 3.30891 36.2586 3.87849C35.5767 5.49774 34.7374 7.11384 33.7355 8.61732C31.5738 11.8612 28.9692 14.1193 25.916 14.989C25.4387 15.1249 25.1616 15.6235 25.297 16.1026C25.3658 16.3457 29.8249 18.5828 34.3771 18.0188C38.7926 17.4717 43.3056 14.1304 43.342 13.9029L43.3977 13.4295L43.4134 13.2708C43.7296 9.82817 43.1293 5.93934 40.8198 2.17219C40.628 1.85926 40.4255 1.55067 40.212 1.24664Z" fill="#EEEEEE"/>
<path fill-rule="evenodd" clip-rule="evenodd" d="M49.4008 2.24805L49.3773 2.43014C49.0574 4.76078 48.1611 8.00652 46.54 10.4548C44.5443 13.4691 41.7277 15.7743 38.8974 17.2599C34.8142 19.4029 30.3697 19.7952 25.9936 17.0112L25.8005 16.8865C23.5008 15.3766 21.7557 14.6496 19.3612 15.2496C16.9667 15.8495 15.8037 17.6001 14.7701 19.2242L14.7227 19.2929C14.557 19.5151 14.3146 19.669 14.0414 19.7232L9.50146 20.445L11.1548 22.5066C11.6524 23.1316 12.0061 23.5821 12.2159 23.8582L14.0331 26.2612C19.4489 33.3912 25.2772 40.1989 36.6428 37.8422L37.028 37.7593C40.0392 37.0874 42.5638 38.8919 45.731 41.5515L46.4077 42.1235C47.2455 42.8352 49.7783 45.0766 50.8151 46.1556L51.1539 46.5125L51.4664 46.85C51.5315 46.9212 51.5936 46.9897 51.6525 47.0552L51.9756 47.421L52.174 47.1857C54.318 44.5949 55.6607 40.649 56.3559 37.3939C56.6185 36.164 56.7692 34.9863 56.8319 33.8998L56.8396 33.7583C56.8559 33.4407 56.8632 33.1634 56.8644 32.9318V32.7599L56.5406 32.8552C52.792 33.9223 48.5744 34.0284 44.4591 33.5518C43.465 33.4367 54.3704 24.5705 52.1319 13.0883C51.6217 10.4713 51.298 6.97242 50.4069 4.59755C50.1259 3.84853 49.8346 3.16357 49.546 2.55108L49.4008 2.24805Z" fill="white"/>
<path fill-rule="evenodd" clip-rule="evenodd" d="M219.073 80.9205L209.743 85.4733C207.506 87.3835 207.126 90.2246 208.602 93.9965C209.12 95.3198 210.415 98.4723 210.415 97.234C210.415 96.8472 219.073 91.1665 220.734 91.7223C222.27 92.2362 219.511 87.6035 218.737 85.4733L219.073 80.804L219.329 80.3389" fill="#EEEEEE"/>
<path fill-rule="evenodd" clip-rule="evenodd" d="M206.625 84.3369C207.245 84.3369 203.731 85.9956 203.912 89.055C204.093 92.1143 206.475 97.7526 205.895 97.9748C205.316 98.197 204.218 96.5532 203.997 95.9718C202.619 92.3539 202.359 90.8777 202.408 88.7675C202.472 86.0051 203.919 84.3369 206.625 84.3369Z" fill="#EEEEEE"/>
<ellipse cx="222.26" cy="87.367" rx="2.42538" ry="5.49979" fill="#EEEEEE"/>
<path fill-rule="evenodd" clip-rule="evenodd" d="M52.8511 145.355C52.8511 135.813 53.9073 131.663 65.2498 126.455C88.4968 117.023 88.4969 116.66 133.033 99.3759C144.81 94.8288 169.641 105.722 180.438 101.157C187.637 98.1131 194.368 95.8533 200.315 92.835C200.891 96.6098 204.613 103.001 205.925 104.1C198.961 105.567 192.224 107.835 185.715 110.906C171.644 117.543 179.982 115.734 157.695 136.831C155.806 138.619 148.866 142.696 138.83 146.942C138.83 146.942 118.619 144.218 110.513 140.833C102.264 137.389 89.7638 126.455 89.7638 126.455C89.7638 126.455 75.1849 136.003 66.8036 140.294C62.8806 142.303 52.8511 145.355 52.8511 145.355Z" fill="white"/>
<path fill-rule="evenodd" clip-rule="evenodd" d="M52.8514 140.396C52.8514 138.156 52.6156 136.593 52.8514 134.864C53.6199 129.227 56.6319 126.343 65.3122 122.357C88.5592 112.925 88.4971 111.701 133.033 94.4169C144.811 89.8698 169.641 100.763 180.438 96.1976C187.637 93.1541 194.368 90.8943 200.315 87.876C200.332 87.9841 199.713 93.1427 199.713 93.1427C199.713 93.1427 185.032 100.925 175.32 102.575C165.002 104.328 150.829 96.1976 136.677 100.196C115.126 106.286 65.4626 125.427 59.5875 130.223C54.9711 133.992 52.8514 140.396 52.8514 140.396Z" fill="#EEEEEE"/>
<path fill-rule="evenodd" clip-rule="evenodd" d="M40.212 1.24664C39.8269 0.698008 39.2027 0.382072 38.5362 0.464016C37.8536 0.547139 37.2828 1.02357 37.0752 1.68091L37.0197 1.8567C36.9777 1.98646 36.9277 2.13507 36.869 2.30219C36.7015 2.77932 36.4985 3.30891 36.2586 3.87849C35.5767 5.49774 34.7374 7.11384 33.7355 8.61732C31.5738 11.8612 28.9692 14.1193 25.916 14.989C25.4387 15.1249 25.1616 15.6235 25.297 16.1026C25.4325 16.5816 32.8508 13.1882 35.2287 9.61996C36.2992 8.01363 37.19 6.29844 37.9134 4.58063C38.1316 4.06238 38.3216 3.57417 38.4843 3.12364L38.5634 2.90155C38.6271 2.72008 38.6819 2.55737 38.7284 2.41368C38.7401 2.31118 38.751 2.27689 38.7611 2.3108C43.9071 5.84459 41.8841 14.6147 42.3784 14.6573C42.8502 14.698 43.2681 14.3648 43.342 13.9029L43.3977 13.4295L43.4134 13.2708C43.7296 9.82817 43.1293 5.93934 40.8198 2.17218C40.628 1.85926 40.4255 1.55067 40.212 1.24664Z" fill="#EEEEEE"/>
<path fill-rule="evenodd" clip-rule="evenodd" d="M50.927 1.22022L51.0404 1.42337L51.1787 1.68415C51.262 1.84466 51.3556 2.0309 51.4575 2.24121C51.8104 2.97018 52.167 3.7951 52.5083 4.70488C53.4691 7.26569 54.1409 10.0294 54.3702 12.9088C54.6814 16.8161 54.1195 20.5037 52.6965 23.8583L52.5746 24.14C51.4185 26.7606 49.7341 29.1617 47.5477 31.3159L47.331 31.5266L47.5153 31.5355C50.6638 31.6683 53.7776 31.3854 56.5148 30.5093C57.1018 30.3215 57.7417 30.4184 58.2475 30.7715C58.7522 31.1239 59.0657 31.691 59.0973 32.3072L59.1045 32.4985L59.1089 32.7513V32.8486C59.1089 33.2014 59.0986 33.5969 59.0736 34.0303C59.0045 35.2273 58.8393 36.5186 58.5514 37.8665C57.7382 41.6746 56.1122 45.2413 53.4547 48.2464C53.102 48.6454 52.6058 48.8844 52.0784 48.9128L51.9564 48.9156C51.3931 48.9049 50.8788 48.6713 50.5132 48.2721L50.2455 47.9599L50.1142 47.8102L49.8352 47.4992L49.5297 47.1681C49.4235 47.0546 49.3131 46.9381 49.1986 46.8189C48.2227 45.8034 47.1459 44.7965 46.0021 43.87C42.8319 41.3022 39.7739 39.8524 37.1624 40.0095C32.8904 40.2672 29.3526 40.0668 26.0705 39.1425C21.8274 37.9475 18.4956 35.6027 16.2907 31.8701L16.1671 31.6573C15.0256 29.659 13.3397 27.3571 11.351 24.9612C10.7364 24.2207 10.1302 23.5167 9.5524 22.8655L9.30656 22.5897C8.91293 22.1502 8.59041 21.7999 8.45525 21.6573C7.95617 21.1294 7.78271 20.372 8.00076 19.6793L8.03279 19.5857C8.2723 18.9385 8.82938 18.459 9.50833 18.3245L13.1491 17.6022L13.1915 17.5406C14.4942 15.6819 16.3542 14.1075 18.825 13.4733C21.4022 12.8118 24.1141 13.387 26.8452 15.1264L27.0358 15.2497C30.7244 17.6713 34.3805 17.5377 37.8566 15.7133C40.3396 14.4101 42.7061 12.1972 44.4993 9.48876C46.1666 6.97063 47.1577 4.27869 47.2283 2.15401C47.2579 1.26609 47.868 0.50371 48.7261 0.286313C49.5849 0.0683937 50.483 0.450136 50.927 1.22022ZM49.4007 2.24808L49.3772 2.43018C49.0573 4.76082 48.161 8.00656 46.5399 10.4548C44.5441 13.4691 41.7276 15.7744 38.8973 17.26C34.8141 19.4029 30.3696 19.7953 25.9934 17.0113L25.8004 16.8865C23.5007 15.3767 21.7556 14.6497 19.3611 15.2496C16.9666 15.8495 15.8036 17.6001 14.7699 19.2243L14.7226 19.2929C14.5569 19.5152 14.3145 19.669 14.0413 19.7232L9.50136 20.445L11.1547 22.5067C11.6523 23.1316 12.006 23.5821 12.2158 23.8582L14.033 26.2613C19.4488 33.3913 25.2771 40.1989 36.6427 37.8423L37.0279 37.7593C40.0391 37.0875 42.5637 38.892 45.7309 41.5516L46.4076 42.1236C47.2454 42.8353 49.7782 45.0767 50.815 46.1556L51.1537 46.5125L51.4663 46.85C51.5314 46.9212 51.5935 46.9897 51.6524 47.0552L51.9755 47.421L52.1739 47.1857C54.3179 44.595 55.6606 40.6491 56.3557 37.3939C56.6184 36.164 56.7691 34.9864 56.8318 33.8998L56.8395 33.7583C56.8558 33.4407 56.8631 33.1634 56.8643 32.9318V32.7599L56.5405 32.8552C52.7919 33.9224 48.5743 34.0284 44.459 33.5518C43.4649 33.4367 54.3703 24.5706 52.1318 13.0883C51.6216 10.4714 51.2979 6.97245 50.4068 4.59759C50.1258 3.84857 49.8345 3.16361 49.5459 2.55112L49.4007 2.24808Z" fill="#EEEEEE"/>
<path fill-rule="evenodd" clip-rule="evenodd" d="M20.9329 22.5416C21.7997 22.5416 22.5049 21.8337 22.5049 20.9637C22.5049 20.0936 21.7997 19.3857 20.9329 19.3857C20.0661 19.3857 19.361 20.0936 19.361 20.9637C19.361 21.8336 20.0661 22.5416 20.9329 22.5416Z" fill="#00160A"/>
<ellipse cx="22.2803" cy="26.8246" rx="2.47021" ry="2.02875" fill="white"/>
<ellipse cx="22.2803" cy="26.8246" rx="2.47021" ry="2.02875" fill="white"/>
<path fill-rule="evenodd" clip-rule="evenodd" d="M50.927 1.22022L51.0405 1.42337L51.1788 1.68415C51.2621 1.84466 51.3557 2.0309 51.4575 2.24121C51.8105 2.97018 52.167 3.7951 52.5083 4.70488C53.4691 7.26569 54.1409 10.0294 54.3702 12.9088C54.6814 16.8161 54.1195 20.5037 52.6965 23.8583L52.5746 24.14C51.4185 26.7606 49.7341 29.1617 47.5478 31.3159L47.331 31.5266L47.5153 31.5355C50.6639 31.6683 53.7776 31.3854 56.5148 30.5093C57.1018 30.3215 57.7418 30.4184 58.2475 30.7715C58.7522 31.1239 59.0657 31.691 59.0974 32.3072L59.1045 32.4985L59.109 32.7513V32.8486C59.109 33.2014 59.0987 33.5969 59.0736 34.0303C59.0046 35.2273 58.8393 36.5186 58.5514 37.8665C57.7382 41.6746 56.1123 45.2413 53.4547 48.2464C53.1021 48.6454 52.6058 48.8844 52.0784 48.9128L51.9564 48.9156C51.3932 48.9049 50.8788 48.6713 50.5132 48.2721L50.2455 47.9599L50.1143 47.8102L49.8353 47.4992L49.5297 47.1681C49.4235 47.0546 49.3131 46.9381 49.1986 46.8189C48.2228 45.8034 47.146 44.7965 46.0022 43.87C42.8319 41.3022 39.774 39.8524 37.1624 40.0095C32.8904 40.2672 29.3527 40.0668 26.0706 39.1425C21.8274 37.9475 18.4956 35.6027 16.2908 31.8701L16.1672 31.6573C15.0257 29.659 13.3397 27.3571 11.351 24.9612C10.7364 24.2207 10.1302 23.5167 9.55243 22.8655L9.3066 22.5897C8.91297 22.1502 8.59045 21.7999 8.45529 21.6573C7.95621 21.1294 7.78275 20.372 8.00079 19.6793L8.03282 19.5857C8.27233 18.9385 8.82942 18.459 9.50836 18.3245L13.1491 17.6022L13.1915 17.5406C14.4943 15.6819 16.3543 14.1075 18.825 13.4733C21.2571 12.8491 23.8092 13.3261 26.3842 14.8438C29.2364 13.8842 31.6852 11.6943 33.7356 8.61749C34.7375 7.11401 35.5768 5.49791 36.2587 3.87866C36.4986 3.30908 36.7016 2.77949 36.8691 2.30236C36.9278 2.13524 36.9778 1.98663 37.0198 1.85687L37.0752 1.68108C37.2829 1.02374 37.8537 0.547308 38.5363 0.464185C39.2028 0.382241 39.8269 0.698178 40.2121 1.24681C40.4255 1.55084 40.6281 1.85943 40.8199 2.17235C42.6126 5.09651 43.3754 8.09399 43.4792 10.8992C43.836 10.4467 44.177 9.97572 44.4994 9.48876C46.1667 6.97063 47.1577 4.27869 47.2284 2.15401C47.2579 1.26609 47.868 0.50371 48.7261 0.286313C49.5849 0.0683937 50.483 0.450136 50.927 1.22022ZM37.8567 15.7133C34.4802 17.4854 30.9338 17.6622 27.3529 15.4516C29.764 14.3326 33.6324 12.0158 35.2288 9.62013C36.2992 8.0138 37.1901 6.29861 37.9135 4.5808C38.1317 4.06255 38.3217 3.57433 38.4844 3.12381L38.5635 2.90172C38.6272 2.72025 38.682 2.55754 38.7285 2.41385C38.7402 2.31135 38.7511 2.27706 38.7612 2.31096C42.1817 4.6599 42.4348 9.32242 42.3652 12.1975C40.9902 13.6702 39.4473 14.8784 37.8567 15.7133ZM38.8973 17.26C40.2673 16.5409 41.634 15.6298 42.906 14.5392C43.0043 14.4819 43.0911 14.4063 43.1615 14.3165C44.4187 13.2033 45.5752 11.9119 46.54 10.4548C48.161 8.00656 49.0574 4.76082 49.3772 2.43018L49.4007 2.24808L49.546 2.55112C49.8346 3.16361 50.1258 3.84857 50.4069 4.59759C51.027 6.25032 51.3723 8.44745 51.6969 10.5128C51.8388 11.4153 51.9767 12.2926 52.1318 13.0883C53.8475 21.889 47.8418 29.1528 45.3906 32.1174L45.3906 32.1174C44.6437 33.0208 44.2268 33.5249 44.459 33.5518C48.5743 34.0284 52.7919 33.9224 56.5405 32.8552L56.8643 32.7599V32.9318C56.8632 33.1634 56.8559 33.4407 56.8396 33.7583L56.8318 33.8998C56.7692 34.9864 56.6184 36.164 56.3558 37.3939C55.6606 40.6491 54.3179 44.595 52.1739 47.1857L51.9755 47.421L51.6524 47.0552C51.5935 46.9897 51.5314 46.9212 51.4663 46.85L51.1538 46.5125L50.815 46.1556C49.7783 45.0767 47.2454 42.8353 46.4076 42.1236L45.7309 41.5516C42.5637 38.892 40.0392 37.0875 37.028 37.7593L36.6428 37.8423C25.2772 40.1989 19.4488 33.3913 14.033 26.2613L12.2158 23.8582C12.006 23.5821 11.6523 23.1316 11.1547 22.5067L9.50139 20.445L14.0414 19.7232C14.3146 19.669 14.5569 19.5152 14.7226 19.2929L14.77 19.2243C15.8036 17.6001 16.9666 15.8495 19.3611 15.2496C21.7556 14.6497 23.5007 15.3767 25.8005 16.8865L25.9935 17.0113C30.3696 19.7953 34.8141 19.4029 38.8973 17.26ZM218.599 79.5025C219.481 79.0717 221.065 79.907 220.146 81.2516C218.756 83.287 220.301 88.0136 221.242 90.8923C221.677 92.2243 221.983 93.1607 221.809 93.2519C221.26 93.5402 220.581 93.3267 220.294 92.7751C218.739 89.7876 217.846 87.4153 217.623 85.6122C217.512 84.715 217.488 83.8471 217.55 83.0096L217.558 82.9129L210.368 86.4213L210.277 86.5052C208.654 88.0338 207.94 89.8081 209.128 92.9514L209.198 93.1338C210.487 96.4294 212.67 98.7933 214.941 98.695L215.119 98.6857C220.165 98.5841 223.182 97.0595 224.258 95.2034C225.612 92.8694 225.979 90.1759 223.454 84.9353C223.184 84.3749 221.799 80.5002 223.758 82.5006C225.718 84.501 228.45 93.3413 226.683 96.3873C225.208 98.93 221.423 100.205 216.236 100.452C216.266 100.585 216.273 100.725 216.252 100.868C215.761 104.215 214.239 106.32 211.694 106.929C209.748 107.395 207.656 106.778 205.74 105.291C199.009 106.742 192.494 108.954 186.193 111.926L185.259 112.37C182.045 113.911 180.201 114.944 178.855 115.949C178.066 116.538 177.414 117.141 176.713 117.918L176.599 118.047C176.259 118.443 175.517 119.353 174.673 120.387C173.55 121.765 172.246 123.364 171.467 124.268L171.092 124.702C167.929 128.339 163.944 132.466 158.466 137.652L158.312 137.793C156.258 139.635 150.801 142.75 143.994 145.891C162.778 145.221 176.322 138.024 184.756 124.289C185.127 123.685 185.956 123.571 186.475 124.054C200.979 137.537 217.784 143.777 236.956 142.803C256.178 141.826 270.284 136.811 279.317 127.807C279.757 127.368 280.468 127.371 280.905 127.813C281.342 128.254 281.34 128.968 280.9 129.407C271.423 138.852 251.305 145.939 231.575 146.942C212.388 147.917 200.939 139.981 186.301 126.938L185.943 126.617L185.815 126.815C176.544 140.918 156.402 151.205 136.301 151.35L135.671 151.352C115.111 151.352 103.253 141.359 89.3824 127.701L89.2743 127.594L89.2249 127.636C88.8177 127.98 88.4139 128.321 88.0133 128.66C75.0159 139.639 65.3178 147.831 50.7294 149.924L50.264 149.99C33.8152 153.33 8.86878 144.432 5.03523 140.07C1.52265 136.074 5.61982 138.558 6.7445 139.24C6.84727 139.302 6.92522 139.349 6.97028 139.375C17.8571 145.632 30.4094 148.015 45.4693 145.953C47.5477 145.668 49.613 145.291 51.665 144.822L51.6413 144.601C50.9838 138.331 50.9799 135.591 51.9274 132.447C53.2162 128.169 56.3451 124.918 61.9736 122.334L63.5234 121.646C70.476 118.571 75.9976 116.261 81.7248 114.018L82.1442 113.854C82.7865 113.603 83.4373 113.351 84.1015 113.095L84.7524 112.846C84.9877 112.762 88.0557 111.541 92.7194 109.685C103.477 105.404 122.726 97.7445 135.282 92.8713C137.999 91.8226 141.288 91.474 145.322 91.6831L145.669 91.7024C148.691 91.881 151.664 92.2928 156.537 93.139L160.818 93.8917C165.599 94.7224 167.915 95.0498 170.62 95.2433C171.47 95.3041 172.278 95.3795 173.046 95.4511C175.89 95.7165 178.179 95.93 180.002 95.159C181.624 94.4733 183.214 93.8113 184.772 93.1626L184.773 93.1622L184.773 93.1621C189.869 91.0403 194.623 89.0609 199.034 86.8598C199.337 84.8905 200.11 83.4366 201.321 82.4791C203.19 81.0022 205.835 80.9773 208.129 81.8728C208.707 82.0984 208.993 82.7516 208.768 83.3317C208.695 83.5194 208.228 83.4329 207.567 83.3106C206.185 83.0547 203.955 82.6419 202.711 84.2501C201.326 86.0391 200.866 88.7797 202.092 94.1762C202.981 98.0871 208.74 104.737 211.173 104.737C213.885 104.737 214.519 102.094 214.879 100.595L214.902 100.501C211.676 100.585 209.225 98.5357 207.634 94.6035L207.557 94.4087C205.92 90.227 206.369 86.875 209.015 84.6151C209.063 84.5741 209.114 84.5372 209.169 84.5049L209.252 84.4598L218.599 79.5025ZM203.668 103.254C203.555 103.116 203.442 102.974 203.331 102.829C203.289 102.784 203.249 102.739 203.214 102.696C203.112 102.572 203.007 102.445 202.9 102.316C202.029 101.267 201.021 100.051 200.232 98.298L200.117 98.0425C198.85 95.1946 198.7 91.9957 198.777 89.3578L198.789 89.0515L198.722 89.0854C193.489 91.6851 187.797 94.293 181.646 96.9093L180.874 97.2364C178.24 98.35 174.951 99.1366 170.783 98.8662L170.46 98.8442C167.613 98.6405 165.217 98.2989 160.194 97.4235L156.445 96.7636C145.874 94.9264 140.584 94.6398 136.225 96.2758C136.225 96.2758 71.2211 120.821 62.8958 124.389C57.8325 126.714 56.1147 128.902 54.0208 132.447C52.9377 134.28 53.0473 139.338 53.1233 142.851L53.1233 142.852C53.1361 143.441 53.1479 143.986 53.153 144.466C65.4441 141.38 77.259 134.965 88.6051 125.208C89.0524 124.823 89.7198 124.851 90.1339 125.271C91.0519 126.203 91.9851 127.103 92.9338 127.971L139.744 108.34C139.872 108.286 140.005 108.258 140.136 108.254C140.489 108.087 140.869 107.949 141.277 107.84C145.359 106.75 148.618 108.522 150.87 112.885L154.951 109.897C155.552 109.457 156.407 109.715 156.665 110.417C160.389 120.518 159.304 127.439 153.173 130.778C146.99 134.146 141.613 131.369 137.421 122.952C137.208 122.524 137.292 122.031 137.586 121.698C136.587 117.623 136.401 114.376 137.081 112.025L96.0692 130.681C102.202 135.679 108.936 139.448 116.276 141.99C116.444 141.829 116.625 141.691 116.804 141.592C122.987 138.193 138.219 134.222 141.982 133.241L141.982 133.241C142.308 133.156 142.548 133.094 142.688 133.056C144.453 132.581 142.645 134.237 142.112 134.484L142.044 134.513L119.811 143.107C126.425 144.997 133.507 145.942 141.06 145.942C141.49 145.942 141.917 145.939 142.341 145.933L142.839 145.608L142.839 145.608L142.84 145.607C147.595 142.505 155.545 137.318 156.925 136.012L157.569 135.4C162.147 130.942 165.553 126.664 168.527 122.931C171.79 118.834 174.531 115.392 177.726 113.083C180.21 111.288 181.11 110.878 183.225 109.914C183.791 109.656 184.444 109.358 185.238 108.984C190.849 106.337 197.222 104.804 203.203 103.366L203.668 103.254ZM141.854 110.018C145.088 109.155 147.51 110.68 149.357 114.937L149.415 115.227C150.098 118.762 149.804 120.741 148.869 121.267C147.987 121.764 147.118 121.281 145.994 119.252C145.924 119.12 145.832 119.007 145.723 118.916C145.415 118.658 144.982 118.577 144.59 118.732L144.582 118.736L144.579 118.737L139.652 120.688L139.529 120.145C138.179 114.002 139.059 110.764 141.854 110.018ZM87.5113 161.215C88.0328 160.878 91.6322 159.116 88.4267 162.429C85.2213 165.742 60.257 179.799 46.7813 180.578C33.7929 181.328 22.261 175.883 12.2278 168.757L11.8953 168.519L11.829 168.605C11.3848 169.17 10.9284 169.683 10.4595 170.143L10.2577 170.337C9.40786 171.138 7.93702 172.045 5.8119 173.098C5.25591 173.374 3.29135 173.628 4.30793 172.587C5.32451 171.546 7.54951 170.048 8.84531 169.189C9.69214 168.628 9.95959 167.971 10.2249 167.32C10.3656 166.974 10.5057 166.63 10.7312 166.303C11.0934 165.777 11.8185 165.658 12.3282 166.042C22.2192 173.483 33.7736 177.45 46.7813 176.698C59.8427 175.944 73.3322 170.373 87.5113 161.215ZM164.334 168.401C164.79 167.979 164.79 164.968 164.334 165.39C159.289 170.063 148.727 174.173 135.693 174.926C122.644 175.679 112.384 173.62 104.894 168.785C104.372 168.449 101.79 167.558 103.342 169.124C104.894 170.689 122.335 178.857 135.822 178.078L136.226 178.054C149.516 177.239 158.885 173.448 164.334 168.401ZM155.122 112.813L155.054 112.611L151.674 115.087L151.736 115.437C152.416 119.428 151.952 122.036 150.066 123.176L149.968 123.234C148.002 124.34 146.153 123.558 144.606 121.285L144.538 121.184L139.992 123.027L140.097 123.219C143.572 129.513 147.423 131.263 151.955 128.875L152.102 128.797C156.653 126.318 157.774 121.258 155.279 113.304L155.122 112.813ZM22.5049 20.9642C22.5049 21.8343 21.7997 22.5421 20.9329 22.5421C20.0661 22.5421 19.361 21.8342 19.361 20.9642C19.361 20.0941 20.0661 19.3863 20.9329 19.3863C21.7997 19.3863 22.5049 20.0941 22.5049 20.9642Z" fill="#00160A"/>
</svg>
