<svg width="266" height="208" viewBox="0 0 266 208" fill="none" xmlns="http://www.w3.org/2000/svg">
<path fill-rule="evenodd" clip-rule="evenodd" d="M153.1 208C184.945 208 212.891 184.931 197.197 153.598C181.502 122.264 239.817 123.276 256.946 101.621C277.837 75.2109 271.787 -36.8947 137.679 31.4504C116.196 42.3984 61.0242 20.1874 42.7234 31.2081C21.1816 44.1806 -9.1265 70.7441 21.1816 97.9546C36.1108 111.358 -17.4138 146.147 6.0289 177.309C28.9031 207.715 44.9375 178.729 79.7632 184.931C114.589 191.133 129.45 208 153.1 208Z" fill="#D04E54"/>
<path fill-rule="evenodd" clip-rule="evenodd" d="M47.6281 127.138C48.224 127.025 48.8011 127.404 48.9171 127.984C51.0592 138.702 60.1202 145.958 76.3226 149.752C92.6213 153.569 103.723 153.363 109.573 149.289C110.067 148.945 109.699 151.89 109.337 152.116C105.522 154.499 92.55 158.054 77.0702 154.841C57.2778 150.732 47.9846 134.524 46.7592 128.393C46.6432 127.813 47.0323 127.251 47.6281 127.138Z" fill="white"/>
<path fill-rule="evenodd" clip-rule="evenodd" d="M39.3743 107.8C39.9012 107.506 59.5596 129.447 86.5375 134.414C113.515 139.38 120.047 136.222 121.097 129.447C121.188 128.863 121.748 128.461 122.348 128.549C122.948 128.637 123.362 129.182 123.271 129.767C121.94 138.352 109.457 140.395 86.1677 136.524C63.1709 132.703 47.4042 123.623 38.9661 109.261C38.6646 108.747 38.8474 108.093 39.3743 107.8Z" fill="white"/>
<path fill-rule="evenodd" clip-rule="evenodd" d="M152.605 106.584C151.867 106.335 151.073 105.783 150.562 105.147L149.71 104.124L152.719 101.222C157.345 96.7992 160.893 92.2661 163.959 86.8761C164.98 85.0794 167.563 79.0813 167.563 78.5009C167.563 78.3074 167.875 77.5334 168.244 76.7318C168.812 75.5709 169.238 75.1286 170.458 74.4653C171.906 73.636 173.552 73.3596 174.262 73.8295C175.624 74.714 175.624 77.5058 174.262 82.3153C172.757 87.5948 170.742 91.3816 166.57 96.8269C165.917 97.6561 164.697 99.2869 163.817 100.42C161.461 103.461 159.928 104.926 157.856 106.059C155.813 107.165 154.621 107.303 152.605 106.584ZM172.984 104.097L175.028 104.981C175.452 105.172 180.126 107.359 185.741 109.987C194.794 114.223 206.292 119.603 206.363 119.603C206.476 119.603 207.009 118.404 207.129 117.005C207.413 113.992 208.463 109.901 209.683 107.054C210.251 105.783 210.705 104.194 210.705 104.055C210.705 103.992 210.244 103.811 209.488 103.514C208.589 103.161 207.273 102.644 205.823 101.968C198.671 98.6237 184.678 91.7963 182.947 90.7736C181.244 89.8062 180.903 89.7232 180.903 90.359C180.903 91.1882 179.172 95.0303 177.838 97.1034C177.128 98.2367 175.737 100.282 174.744 101.637L172.984 104.097ZM205.88 114.628C206.694 115.087 205.284 115.761 204.943 115.872C202.938 116.037 200.577 115.67 198.642 114.572C197.631 113.874 189.667 109.565 184.383 106.707C181.968 105.4 180.113 104.396 179.739 104.179C178.547 103.488 177.412 102.742 177.213 102.521C176.617 101.775 177.185 101.443 178.859 101.581C179.866 101.664 204.122 113.635 205.88 114.628ZM98.2554 184.239L98.2558 184.239C98.7849 184.022 99.2403 183.835 99.5861 183.699C101.346 183.008 106.71 175.631 108.64 167.311C110.031 161.175 110.741 152.441 109.946 150.976C109.467 150.127 112.313 152.973 114.433 155.093C115.076 155.736 115.652 156.311 116.048 156.697C128.423 168.666 146.844 178.285 165.974 182.79C175.51 185.057 182.294 185.859 191.405 185.859C206.703 185.859 218.766 182.929 229.722 176.488C230.242 176.182 230.73 175.901 231.195 175.633C235.014 173.431 237.289 172.12 243.516 165.294C250.501 157.637 256.714 139.864 258.786 133.728C259.694 130.964 261.908 119.969 261.908 117.226C261.908 113.978 260.744 112.444 259.155 110.868C256.345 108.187 252.542 107.22 249.391 108.381L247.915 108.934L247.461 107.469C246.808 105.257 245.446 103.488 243.346 102.162C240.223 100.144 239.769 100.006 236.959 100.006C234.774 100.006 234.178 100.116 232.787 100.752L231.169 101.47L230.829 100.475C230.176 98.43 227.986 95.5785 226.287 94.7537C224.781 94.0222 222.173 93.9551 220.355 94.2838C216.382 95.0025 213.544 96.7991 212.38 99.3145C212.039 100.088 211.614 100.697 211.443 100.697C211.301 100.697 205.71 99.1758 199.04 96.3011C197.915 95.8147 196.858 95.3585 195.866 94.9302L195.865 94.93C183.888 89.7599 181.292 88.6393 181.528 87.2353C181.726 86.0468 181.67 85.3834 181.329 84.3607C180.733 82.6469 180.052 82.177 178.122 82.177C176.589 82.177 176.589 82.177 176.759 81.4307C177.668 77.2016 177.639 74.7692 176.674 73.2213C176.021 72.1986 175.255 71.784 173.495 71.5352C172.473 71.397 171.991 71.4799 170.856 72.088C170.089 72.475 169.437 72.7514 169.38 72.6961C169.323 72.6409 169.522 71.1206 169.834 69.3239C172.161 56.0286 170.363 44.5733 164.431 32.4112C164.374 32.2949 164.309 32.1572 164.233 31.9997C162.43 28.2292 155.179 13.0679 134.44 5.41779C133.502 5.07154 132.614 4.73674 131.76 4.41498L131.76 4.41491C124.696 1.75203 119.999 -0.018229 108.669 0.000141632C95.9687 0.0207322 91.6673 1.76917 83.2943 5.50071C82.1306 6.02589 81.1089 6.32995 81.0237 6.21938C80.9386 6.08118 80.3993 5.74948 79.86 5.47307C79.3207 5.19666 78.157 4.50563 77.3056 3.95281C74.8646 2.34963 73.3603 1.68625 72.594 1.85209C71.7141 2.07322 71.7141 2.79189 72.594 3.12358C72.963 3.26179 73.3887 3.73168 73.559 4.20158C73.928 5.19666 74.3537 5.30723 74.6092 4.47799C74.7227 4.17394 74.893 3.95281 74.9782 4.0081C75.0104 4.02382 75.1185 4.07309 75.2834 4.14826L75.2836 4.14836C75.6985 4.33752 76.473 4.69058 77.3056 5.0861C78.4693 5.63892 79.7465 6.21938 80.0871 6.35759C80.7115 6.57871 80.5128 6.74456 77.8164 8.29246C67.2864 14.3182 58.7147 23.6885 53.918 34.358C53.1801 35.9612 52.5273 36.9562 51.8461 37.5091C50.1147 38.9188 46.7088 42.9267 45.914 44.5023C45.4883 45.3591 44.58 46.6859 43.8705 47.4598C43.1893 48.2338 42.4513 49.2289 42.1959 49.6435C41.9688 50.0857 41.7418 50.3898 41.6566 50.3345C41.5998 50.2516 41.685 48.8972 41.8837 47.3216C42.3094 43.6454 42.3094 42.6779 41.9688 42.595C41.4579 42.4568 40.72 44.3917 40.4078 46.7965C40.1807 48.2614 40.1239 50.4727 40.2658 52.7393L40.4361 56.3326L38.421 53.1539C37.7268 52.0892 37.0432 51.0244 36.5584 50.2693L36.5581 50.2688C36.2502 49.7891 36.0225 49.4345 35.9233 49.2842C35.1853 48.2338 34.7596 46.6583 35.0718 46.1331C35.2421 45.829 35.2137 45.6908 34.9299 45.6908C34.3338 45.6908 33.1701 47.5428 32.4038 49.6711C32.0348 50.6662 31.6658 51.4954 31.5523 51.4954C31.1265 51.4954 31.3252 41.5999 31.7794 38.4212C32.716 32.1467 35.1853 24.4072 36.2922 24.4072C36.5193 24.4072 36.718 24.2966 36.718 24.1308C36.718 23.6332 35.98 23.8267 35.384 24.4625C34.05 25.8722 32.2902 30.2118 31.1833 34.8279C30.417 38.0066 29.9345 42.0975 29.7642 46.5477C29.6223 50.3898 29.679 51.0255 30.2467 53.1263C30.8995 55.4757 31.4104 56.1668 32.2902 55.8351C32.6025 55.7245 32.7444 55.3099 32.7444 54.536C32.7444 53.9279 33.085 52.1035 33.5107 50.4727L34.2487 47.5428L34.5609 48.759C34.9582 50.1687 37.2856 54.536 39.386 57.7147C40.8335 59.8707 40.8619 60.0089 41.3444 63.3811C41.5998 65.2883 42.3946 69.9274 44.2395 77.0634C45.8695 83.3686 55.0334 89.6233 57.3215 91.1851C57.623 91.3909 57.8051 91.5152 57.8349 91.5473C58.1187 91.8514 58.5161 92.0172 58.7431 91.9343C58.9986 91.8514 59.1405 91.962 59.1405 92.266C59.1405 92.5424 59.3392 92.9018 59.5662 93.0676C59.8501 93.2611 60.0487 94.0074 60.1055 95.3065C60.2474 97.9048 62.2342 102.88 63.7669 104.511C64.7603 105.561 66.8323 106.004 69.1313 105.617C70.6356 105.396 71.0613 105.23 70.9194 104.898C70.8342 104.677 71.3735 104.953 72.1115 105.506C80.7399 111.919 89.4818 115.761 99.3023 117.419C103.106 118.055 109.407 118.414 112.841 118.166C115.051 118.025 115.653 117.987 115.762 118.2C115.803 118.28 115.775 118.395 115.736 118.553C115.537 119.327 115.793 119.797 119.965 126.679C123.286 132.124 123.57 132.484 127.259 136.16C135.093 144.038 143.636 150.146 153.315 154.873C162.426 159.296 176.972 162.972 190.27 164.133C203.567 165.294 213.118 153.408 213.089 150.368C213.033 146.194 212.437 143.457 210.989 140.804C209.57 138.233 208.633 137.349 204.376 134.584C199.636 131.516 196.712 129.001 194.782 126.32C193.562 124.634 193.108 122.726 193.108 121.704C193.108 121.04 193.988 119.548 195.293 119.244C196.485 118.94 196.712 118.967 198.046 119.603C198.841 119.962 200.913 120.902 202.616 121.704C204.347 122.478 206.022 123.252 206.363 123.417C207.367 123.689 207.791 125.603 208.021 126.641L208.021 126.641C208.073 126.873 208.115 127.061 208.151 127.177C208.548 128.614 210.429 130.47 211.642 131.102C213.773 132.211 219.022 132.36 220.47 130.839C220.839 130.452 222.062 129.977 222.314 130.121C222.566 130.265 223.478 131.461 223.478 132.428C223.506 134.087 224.386 135.607 226.259 137.127C229.807 140.002 232.56 140.693 235.342 139.422C236.789 138.758 237.976 138.499 237.976 138.499C237.976 138.499 239.159 139.969 239.23 140.472C239.788 144.399 245.758 146.046 247.347 146.211C247.712 146.247 248.421 146.095 249.141 145.941C250.104 145.735 251.086 145.525 251.293 145.751C251.698 146.197 244.509 157.775 243.516 159.24C234.064 173.061 215.672 181.519 193.165 182.404C178.547 182.984 160.581 179.004 144.999 171.762C135.036 167.09 126.209 161.369 116.758 153.353C115.112 151.971 113.21 150.395 112.529 149.842C111.848 149.317 110.23 147.52 108.981 145.862C106.881 143.098 105.688 142.103 105.688 143.043C105.688 143.457 107.051 146 108.612 148.516C109.236 149.511 109.634 150.202 109.492 150.091C109.35 149.981 108.896 151.971 108.47 154.514C107.079 162.668 104.78 170.711 102.453 175.714C101.176 178.423 98.7266 180.446 97.9886 180.999C95.2639 183.017 91.1848 183.924 85.5366 184.477C78.3841 185.168 67.854 183.62 59.8217 180.69C57.693 179.916 52.2151 177.677 51.8461 177.428C51.8239 177.407 51.6982 176.611 51.5227 175.502C51.4732 175.189 51.4198 174.851 51.3636 174.498C50.3418 167.671 48.9226 141.384 48.9226 129.222C48.9226 124.191 48.8659 123.086 48.5253 123.086C47.8157 123.086 47.5319 123.749 47.2197 126.126C46.5101 131.544 46.652 159.821 47.4183 165.764L47.5886 167.118L46.6236 166.593C45.1477 165.764 39.5279 160.208 37.5695 157.637C35.9115 155.439 34.9261 152.625 34.1889 150.519L34.1887 150.519C34.0173 150.029 33.8593 149.578 33.7094 149.182C29.5939 138.07 31.0414 125.601 36.718 114.379C41.5431 104.815 47.4751 99.508 56.1603 96.9373C57.5794 96.5227 58.8283 96.0805 58.9702 95.9699C59.5095 95.4724 56.0467 95.7211 54.1451 96.3016C47.9576 98.1536 41.4863 103.212 37.087 109.68C30.8995 118.746 28.118 132.124 30.0764 143.54C30.5305 146.249 32.3754 152.109 32.8863 152.524C32.9315 152.568 33.165 153.045 33.518 153.766C34.4942 155.76 36.3849 159.623 37.7398 161.369C39.386 163.552 44.353 168.307 46.4249 169.772L47.7306 170.684L47.9292 172.923C48.2982 177.207 48.4401 177.594 50.4269 179.031C55.3939 182.708 65.1861 186.135 74.0415 187.351C78.157 187.904 87.0977 187.711 90.5036 186.992C92.6929 186.526 96.0912 185.129 98.2554 184.239ZM186.438 161.036C169.947 159.626 150.022 151.969 135.604 140.139C129.53 135.136 121.64 125.407 118.517 120.017C117.865 118.911 117.382 118.386 116.814 118.248C116.218 118.082 116.729 117.916 119.17 117.529C129.473 115.815 139.492 111.641 147.581 105.699L148.774 104.842L149.114 105.643C149.881 107.44 152.832 109.264 155.018 109.264C155.898 109.264 158.85 107.965 160.638 106.777L161.858 105.975L162.852 106.942C163.76 107.827 163.93 107.882 165.633 107.882C167.591 107.882 169.947 107.025 171.253 105.809L171.962 105.173L173.978 106.472C175.056 107.219 178.065 108.85 180.648 110.149C184.508 112.084 188.595 114.323 192.483 116.644L193.108 117.031L192.512 117.805C191.887 118.635 190.724 120.21 190.724 122.615C190.724 125.324 193.616 130.191 199.153 133.533C203.503 136.159 210.989 141.324 210.705 148.874C210.671 149.786 209.627 152.053 208.236 154.098C207.328 155.397 204.801 157.332 202.502 158.465C198.586 160.373 191.689 161.478 186.438 161.036ZM35.1 36.9566C35.8664 37.1225 36.3773 37.3712 36.2637 37.4818C35.8948 37.8411 33.9363 37.6753 33.4822 37.233C32.7727 36.5696 32.9429 36.0997 33.9363 35.9062C34.4472 35.8233 35.2136 35.4087 35.6393 34.9941C36.0651 34.5795 36.434 34.386 36.434 34.5242C36.434 34.8835 35.0149 36.155 34.3053 36.4314C33.8512 36.6249 33.9931 36.7078 35.1 36.9566ZM46.3965 37.3991C47.2196 36.9568 47.0493 36.6528 46.0843 36.791C45.1193 36.9292 45.0625 36.8186 45.6869 35.8788C45.9424 35.5195 46.0843 34.9943 46.0275 34.7179C45.9424 34.3586 45.7437 34.5244 45.2896 35.4089C44.949 36.0447 44.4665 36.5698 44.2394 36.5698C43.5298 36.5698 43.4731 37.1227 44.1542 37.3714C45.0341 37.7308 45.7153 37.7308 46.3965 37.3991ZM36.576 22.3068C35.8948 22.4174 33.7661 23.2466 31.8929 24.1588C29.9912 25.0433 28.3734 25.7896 28.2598 25.762C25.3648 25.4579 29.3952 20.759 36.718 15.9494C43.7285 11.3334 48.4685 8.90094 52.8678 7.65709C55.621 6.88314 58.7147 6.77258 59.5946 7.40832C60.0771 7.76766 59.9068 7.7953 57.8065 7.82294C53.2652 7.82294 48.0144 10.0895 39.4711 15.6454C35.0434 18.52 29.906 22.6385 29.906 23.3019C29.906 23.4401 30.7292 23.1637 31.7509 22.7215C33.9364 21.754 36.1787 21.2565 37.1721 21.4776C38.2222 21.754 37.9952 22.1134 36.576 22.3068ZM47.5602 24.684C50.2282 24.1588 50.3417 24.1311 50.3417 23.8547C50.3417 23.7165 49.3199 23.5783 48.0427 23.523L45.7437 23.4401L47.8724 21.0906C49.0361 19.7915 50.3985 18.4924 50.881 18.1883C51.9311 17.5249 51.9879 17.055 51.1364 16.7786L50.4836 16.5851L51.1932 16.3363C51.5906 16.1981 52.3285 16.1429 52.8394 16.2258C53.6057 16.3363 53.776 16.2811 53.6909 15.8941C53.6057 15.5071 53.2935 15.4242 51.9028 15.4518C47.844 15.5071 46.1127 16.5575 49.2915 17.055C50.1714 17.1932 50.9094 17.4144 50.9094 17.5526C50.9094 17.6631 50.7674 17.7737 50.5972 17.7737C50.0579 17.7737 45.4882 22.2792 44.9206 23.3848C44.0407 25.0156 44.5232 25.2644 47.5602 24.684ZM66.293 13.9589C65.4699 14.0141 65.2712 14.1524 65.3279 14.5393L65.3367 14.5956C65.3684 14.7988 65.3866 14.916 65.3407 14.9525C65.278 15.0023 65.0957 14.9016 64.6644 14.6634L64.59 14.6223C64.0507 14.3458 63.9939 14.2076 64.3062 13.9865C64.5048 13.8207 65.0441 13.5719 65.4699 13.489L66.2646 13.2955L65.6685 12.6874C65.3563 12.328 65.186 11.9964 65.2712 11.8858C65.4982 11.6647 68.2798 11.9687 68.6771 12.2728C68.8474 12.411 69.1029 12.3833 69.2732 12.2175C69.6705 11.8305 70.2098 12.1346 70.2098 12.7427C70.2098 13.0744 70.1246 13.102 69.8692 12.8532C69.6421 12.6321 69.4435 12.6321 69.188 12.8256C68.9609 13.0191 68.7907 13.0191 68.6487 12.7979C68.5636 12.6597 68.0243 12.5215 67.4567 12.5215C66.9305 12.5215 66.683 12.5215 66.6341 12.6201C66.5906 12.7076 66.7038 12.8729 66.9174 13.1849C67.3701 13.8738 67.3433 13.8759 66.3026 13.9581L66.293 13.9589ZM61.9788 6.60686C61.9788 6.24752 61.6382 5.61178 61.2125 5.19716L60.4178 4.42322L64.6752 4.58906C67.031 4.69963 69.699 4.9484 70.6356 5.19716C71.5723 5.41829 72.6508 5.58414 73.0482 5.58414C73.6442 5.58414 73.5307 5.47357 72.4237 4.89311C70.4937 3.92568 68.0244 3.45578 63.2844 3.12409C57.6079 2.73711 54.7412 3.26229 55.2805 4.64434C55.3656 4.92075 55.8197 5.05896 56.5009 5.05896C57.8917 5.05896 60.1623 5.86055 60.9287 6.60686C61.7518 7.40845 61.9788 7.40845 61.9788 6.60686ZM48.1279 79.7999C50.4269 82.6746 53.4638 85.9362 54.883 87.0419C55.7345 87.7052 56.4724 88.2581 56.5292 88.2581C56.5576 88.2581 55.9331 86.9866 55.1384 85.4387C51.9312 79.2194 50.0579 73.0278 49.178 65.8964C48.9793 64.3209 48.6671 62.9941 48.3265 62.4413C47.6454 61.3357 47.6454 59.8983 48.3549 58.5439C48.7239 57.8252 48.9226 56.9131 48.9226 55.918V54.3978L47.5602 55.7798C46.2262 57.1342 44.949 57.687 44.949 56.8578C44.949 56.2497 47.0493 53.3198 48.1562 52.4076C49.0361 51.6889 49.1496 51.4402 49.4335 49.2842C49.6322 47.985 50.0863 45.6908 50.4553 44.1706C50.8526 42.6503 51.0797 41.3512 51.0229 41.2959C50.8242 41.1024 44.1543 48.5626 43.246 50.9426C43.0466 51.4652 42.5081 52.38 42.0823 52.9328L41.3444 53.8555C41.3444 53.8555 41.5736 55.1476 41.8269 56.7715C42.0828 58.4121 42.2028 59.5399 42.3098 60.5444C42.4528 61.8882 42.5724 63.0113 42.9622 64.8461C43.4163 67.1126 43.8704 69.0752 43.984 69.2134C44.0691 69.3792 44.4381 70.6507 44.8071 72.0604C45.6018 75.1838 46.9358 78.2796 48.1279 79.7999ZM163.306 105.949L162.71 105.368C162.71 105.368 172.602 93.1281 174.375 88.6179C175.728 85.176 176.524 84.2 177.598 84.2C178.199 84.2 178.689 84.3335 178.916 84.6652C179.314 85.2457 179.697 85.9644 179.186 88.4244C178.334 92.4047 177.029 95.0306 173.112 100.697C172.203 101.996 171.04 103.434 170.529 103.931C169.337 105.009 166.655 106.115 165.094 106.363C164.1 106.502 163.817 106.446 163.306 105.949Z" fill="black"/>
<path d="M241.898 132.989C245.429 123.619 244.895 121.623 244.282 121.428C244.282 121.428 242.934 122.174 242.338 123.75C241.231 126.707 237.442 134.447 236.023 135.829C234.348 137.46 234.348 137.46 232.645 137.46C230.942 137.46 226.031 134.962 225.362 132.5C224.292 128.561 228.899 114.877 229.012 114.103L228.246 113.578C227.735 114.048 221.089 133.673 212.351 128.559C211.351 127.974 209.229 125.215 209.059 123.75C208.113 119.493 212.453 104.608 213.191 101.551C213.851 98.8143 217.29 96.2744 221.519 96.2744C228.019 96.2744 227.146 101.807 230.057 103.757C231.347 104.621 233.467 103.055 234.121 102.936C237.782 102.273 239.186 103.045 241.87 105.12C243.942 106.721 245.475 109.89 247.162 111.007C248.099 111.627 249.094 110.779 249.42 110.62C250.755 109.967 253.62 110.454 254.415 111.007C255.58 111.502 258.435 114.174 258.886 115.729C260.93 122.774 254.475 138.393 252.038 141.323C248.005 146.173 238.367 142.358 241.898 132.989Z" fill="white"/>
<path fill-rule="evenodd" clip-rule="evenodd" d="M78.7247 107.315C86.5016 112.097 94.5206 115.22 103.66 116.077C110.869 116.74 120.59 115.828 127.572 113.617C133.447 111.765 141.394 106.635 146.702 102.295C157.005 93.8922 163.504 80.7669 166.343 66.8358C166.74 64.8733 167.346 59.9401 167.318 55.0477C167.318 49.3536 164.745 33.7934 156.948 24.8214C140.868 6.31673 114.435 -2.0191 92.2202 5.10332C84.2066 7.67262 75.6743 12.3276 69.2314 18.4087C61.1139 26.1205 55.1251 36.6241 52.741 47.3489C50.2433 58.6817 53.4923 72.2258 59.1405 83.3375C63.6534 92.1827 71.0897 102.588 78.7247 107.315ZM154.507 73.9119C149.171 89.5291 135.264 101.194 117.78 104.732C115.112 105.257 113.267 105.45 109.52 105.506C106.881 105.589 104.241 105.561 103.702 105.506C91.4687 104.068 82.1591 99.6734 73.5875 91.3258C69.8409 87.6495 68.2515 85.6594 65.9241 81.7343C62.2627 75.5151 60.3043 69.1576 59.7082 61.5011C57.6646 35.2697 76.9366 13.4056 104.071 11.1391C114.714 10.2546 126.522 13.4333 135.491 19.6249C138.811 21.9191 144.829 27.7237 146.702 30.4325C147.468 31.5105 154.904 42.0971 156.21 48.1781C157.885 56.0834 157.232 65.9789 154.507 73.9119Z" fill="white"/>
<path fill-rule="evenodd" clip-rule="evenodd" d="M167.328 55.0475C167.328 73.6005 158.316 93.8838 146.686 102.546C141.137 106.679 133.886 111.683 127.571 113.617C118.317 116.45 103.66 116.077 103.66 116.077C103.66 116.077 118.614 114.13 124.155 111.958C140.046 105.73 148.721 96.1697 154.078 86.9965C164.651 68.8893 167.328 54.5968 167.328 55.0475Z" fill="#EEEEEE"/>
<path fill-rule="evenodd" clip-rule="evenodd" d="M103.985 102.189C96.4072 101.249 88.8857 98.623 82.8117 94.7256C79.2071 92.4314 73.7576 87.0414 71.118 83.1993C67.343 77.671 64.8454 71.7559 63.6249 65.3984C62.745 60.7823 62.7734 53.6786 63.6533 49.5601C64.5615 45.3586 65.7252 42.1523 67.7972 38.089C70.2097 33.3901 72.7642 29.9349 76.5959 26.2034C83.1239 19.8459 90.7022 15.8103 99.728 13.8755C102.651 13.2674 113.238 12.7698 113.607 13.2397C113.692 13.3779 114.26 13.7373 114.856 14.0413C115.452 14.373 117.042 15.5339 118.347 16.6672C120.306 18.3257 121.185 19.376 122.888 21.9743C124.052 23.7433 124.989 25.3465 124.989 25.4847C124.989 25.7888 125.897 26.3416 126.408 26.3416C127.117 26.3416 127.6 24.2685 127.742 20.6199C127.827 18.6021 127.997 16.9436 128.111 16.9436C128.508 16.9436 132.879 19.2931 134.923 20.6199C138.925 23.2181 142.927 26.8668 145.879 30.6812C147.213 32.395 147.411 32.8372 147.411 33.8876C147.411 34.855 147.695 35.6013 148.575 37.094C150.789 40.8531 152.52 45.5798 153.57 50.8039C154.252 54.3143 154.252 60.9482 153.542 64.6245C151.612 74.7411 145.879 84.8024 138.414 91.1875C132.084 96.5775 125.358 99.8945 117.411 101.525C114.686 102.106 106.511 102.493 103.985 102.189ZM83.6917 83.2827C83.9471 83.0063 84.1174 82.5917 84.0323 82.3982C84.0067 82.3401 83.6513 82.1774 83.1311 81.9392C81.9185 81.384 79.8102 80.4188 78.8965 79.4129C75.2635 75.3773 73.9295 72.3645 73.1064 66.1452C72.3117 60.0918 72.9794 55.9995 74.412 49.4224C75.1109 46.2139 76.9685 43.5637 78.1242 41.9149C78.91 40.7938 79.3714 40.1356 78.9233 40.0797C77.8164 39.9139 77.6461 39.9968 76.4824 41.0748C73.9847 43.3966 72.8494 45.2486 71.6573 48.8143C69.8124 54.3978 69.4559 69.4871 73.1064 76.2895C76.7569 83.0919 83.0389 84.0014 83.6917 83.2827ZM124.052 60.0641C123.57 64.358 121.526 70.5677 119.142 73.2765C118.035 74.548 113.972 76.7316 110.542 76.2894C107.229 75.8622 104.638 74.3545 102.424 71.1205C100.523 68.3287 99.5405 64.94 98.8765 60.6722C97.7298 53.3024 102.737 44.7233 104.894 42.5949C107.079 40.4113 108.64 39.6373 110.627 39.6097C112.557 39.6097 113.806 40.0243 115.764 41.3787C119.341 43.8111 124.989 51.7201 124.052 60.0641ZM85.792 37.204C86.3596 36.5683 86.4448 36.2642 86.2745 35.0757C86.161 33.97 85.9339 33.5278 85.3379 33.0579C84.2877 32.2286 82.9821 32.2286 82.0171 33.1131C81.3359 33.7489 81.2507 33.97 81.3359 35.4903C81.421 37.1211 81.4778 37.2317 82.4144 37.7292C83.6633 38.3926 84.8837 38.1991 85.792 37.204ZM103.503 20.1508C98.394 23.7165 96.1801 25.1815 93.8811 26.5636C92.0646 27.6692 91.4969 27.6968 91.4969 26.7018C91.4969 26.1766 91.8943 25.5961 92.916 24.684L94.3352 23.4125L91.5821 23.0531C88.4883 22.6662 85.4797 21.8369 84.8269 21.2012C83.7484 20.1232 84.685 19.8744 87.7504 20.4272C89.1127 20.6484 91.7523 20.9248 93.6256 20.9801L97.0316 21.1183L99.5009 19.3769C104.922 15.5624 110.542 13.4064 113.238 14.0698C114.913 14.4568 114.714 14.899 112.812 15.1202C110.627 15.3689 109.293 16.0876 103.503 20.1508Z" fill="white"/>
<path d="M110.797 72.502C110.797 72.3638 110.968 72.2256 111.195 72.2256C111.422 72.2256 111.706 72.3638 111.791 72.502C111.876 72.6678 111.706 72.7784 111.393 72.7784C111.053 72.7784 110.797 72.6678 110.797 72.502Z" fill="white"/>
<path d="M112.5 72.2543C112.5 71.9502 113.21 71.6738 114.005 71.6738C114.629 71.7015 114.629 71.7015 114.09 72.0884C113.465 72.5583 112.5 72.6413 112.5 72.2543Z" fill="white"/>
<path d="M108.101 71.5349C108.016 71.3137 107.902 70.9268 107.817 70.7056C107.732 70.4292 107.874 70.291 108.243 70.291C108.555 70.291 108.81 70.4569 108.81 70.678C108.81 70.8991 108.895 71.2585 108.981 71.5072C109.094 71.8113 109.009 71.9495 108.697 71.9495C108.441 71.9495 108.158 71.756 108.101 71.5349Z" fill="white"/>
<path d="M109.605 70.8449C109.463 70.0157 109.775 69.7393 110.797 69.7393C111.109 69.7393 111.365 70.0157 111.478 70.4856C111.705 71.2872 111.336 71.6741 110.343 71.6741C109.889 71.6741 109.69 71.4806 109.605 70.8449Z" fill="white"/>
<path d="M106.71 70.982C106.171 70.5674 106.171 70.5674 106.767 70.5674C107.136 70.5674 107.391 70.7332 107.391 70.982C107.391 71.4795 107.391 71.4795 106.71 70.982Z" fill="white"/>
<path d="M112.415 70.955C112.046 70.5956 112.217 69.5176 112.671 69.3518C113.494 69.0477 113.863 69.1859 114.033 69.9046C114.147 70.3192 114.204 70.6786 114.147 70.7062C113.92 70.955 112.586 71.1208 112.415 70.955Z" fill="white"/>
<path d="M114.941 70.374C114.856 70.2911 114.771 69.9317 114.771 69.6C114.771 69.1301 114.998 68.9367 115.679 68.7984C116.275 68.6879 116.644 68.7432 116.815 68.9643C117.098 69.4066 117.098 69.9594 116.843 70.0976C116.332 70.374 115.14 70.5398 114.941 70.374Z" fill="white"/>
<path d="M105.405 69.5174C105.405 69.1857 105.66 68.9093 106.029 68.8264C106.767 68.6329 106.739 68.6053 106.881 69.3239C106.937 69.7386 106.796 69.9044 106.199 69.9597C105.575 70.0426 105.405 69.932 105.405 69.5174Z" fill="white"/>
<path d="M107.562 69.545C107.164 69.1304 107.42 68.3564 107.959 68.3564C108.328 68.3564 108.527 68.5499 108.527 68.8816C108.527 69.4068 107.874 69.8491 107.562 69.545Z" fill="white"/>
<path d="M109.265 68.7149C109.038 68.1897 109.52 67.8027 110.457 67.8027C110.882 67.8027 111.081 67.9686 111.081 68.3279C111.081 68.632 110.826 68.9084 110.457 69.0189C109.52 69.2401 109.463 69.2401 109.265 68.7149Z" fill="white"/>
<path d="M117.467 68.6329C117.553 68.4947 117.695 68.3564 117.78 68.3564C117.865 68.3564 117.836 68.4947 117.751 68.6329C117.666 68.7987 117.524 68.9093 117.439 68.9093C117.354 68.9093 117.382 68.7987 117.467 68.6329Z" fill="white"/>
<path d="M111.819 68.1624C111.592 67.6096 111.876 67.3332 112.784 67.195C113.295 67.1397 113.522 67.2503 113.579 67.6373C113.778 68.5494 112.16 69.047 111.819 68.1624Z" fill="white"/>
<path d="M105.007 67.6923C104.752 66.7802 104.809 66.6973 105.547 66.6973C105.944 66.6973 106.256 66.8078 106.256 66.946C106.256 67.0842 106.341 67.3883 106.427 67.6094C106.512 67.8858 106.341 68.0517 105.859 68.1346C105.32 68.2451 105.121 68.1346 105.007 67.6923Z" fill="white"/>
<path d="M114.487 67.3881C114.487 66.8905 114.685 66.6694 115.225 66.5312C116.019 66.3377 116.474 66.7247 116.474 67.6092C116.474 67.9685 116.247 68.0791 115.48 68.0791C114.6 68.0791 114.487 67.9962 114.487 67.3881Z" fill="white"/>
<path d="M104.156 67.3883C104.071 67.1671 104.127 66.9736 104.269 66.9736C104.44 66.9736 104.553 67.1671 104.553 67.3883C104.553 67.6094 104.496 67.8029 104.44 67.8029C104.383 67.8029 104.269 67.6094 104.156 67.3883Z" fill="white"/>
<path d="M107.022 67.6106C106.625 67.2513 106.852 66.4773 107.363 66.3391C107.675 66.2562 107.987 66.2838 108.072 66.3668C108.413 66.6708 108.214 67.4724 107.789 67.6383C107.249 67.8318 107.249 67.8318 107.022 67.6106Z" fill="white"/>
<path d="M117.155 67.4175C116.843 66.6159 117.183 66.0078 117.978 65.9248C118.574 65.8419 118.744 65.9525 118.744 66.3947C118.744 67.3069 118.432 67.8045 117.864 67.8045C117.552 67.8045 117.24 67.6386 117.155 67.4175Z" fill="white"/>
<path d="M109.009 67.057C108.669 66.7529 108.782 66.2001 109.265 66.0343C109.804 65.8408 110.939 66.3936 110.627 66.6976C110.23 67.0293 109.208 67.2781 109.009 67.057Z" fill="white"/>
<path d="M111.479 66.3668C111.223 65.9798 112.131 65.3164 112.869 65.3164C113.21 65.3164 113.352 65.4823 113.295 65.7863C113.182 66.3391 111.734 66.7814 111.479 66.3668Z" fill="white"/>
<path d="M103.702 66.1724C103.702 66.0342 103.617 65.7301 103.531 65.4813C103.446 65.2326 103.475 65.0391 103.645 65.0391C104.014 65.0391 104.298 66.0894 103.957 66.3106C103.815 66.3935 103.702 66.3382 103.702 66.1724Z" fill="white"/>
<path d="M104.468 65.5377C104.298 64.9296 104.638 64.4873 105.291 64.4873C105.66 64.4873 106.029 65.5653 105.802 65.9246C105.49 66.3945 104.61 66.1181 104.468 65.5377Z" fill="white"/>
<path d="M106.455 65.6744C106.029 65.2598 106.284 64.2647 106.852 64.1265C107.278 64.016 107.505 64.1542 107.732 64.6517C107.902 65.0111 107.987 65.3704 107.931 65.4257C107.647 65.6744 106.625 65.8679 106.455 65.6744Z" fill="white"/>
<path d="M114.118 65.6749C113.749 65.3155 113.919 65.0944 114.771 64.7904C115.48 64.5692 115.679 64.5969 115.821 64.9286C116.077 65.592 114.657 66.2277 114.118 65.6749Z" fill="white"/>
<path d="M116.616 65.0382C116.332 64.596 116.73 64.209 117.467 64.209C118.347 64.209 118.603 64.9277 117.808 65.1488C116.957 65.3699 116.815 65.3423 116.616 65.0382Z" fill="white"/>
<path d="M119.028 64.3764C119.028 63.9618 119.539 63.5195 119.766 63.7406C119.965 63.9341 119.568 64.7633 119.284 64.7633C119.142 64.7633 119.028 64.5975 119.028 64.3764Z" fill="white"/>
<path d="M103.333 64.0171C103.219 63.9342 103.134 63.5749 103.162 63.2708C103.162 62.7456 103.191 62.7456 103.446 63.3537C103.73 64.0171 103.673 64.3488 103.333 64.0171Z" fill="white"/>
<path d="M103.872 63.6031C103.616 62.6357 103.645 62.5527 104.383 62.5527C105.206 62.5527 105.717 63.5755 105.092 63.9624C104.439 64.3494 104.07 64.2388 103.872 63.6031Z" fill="white"/>
<path d="M113.636 64.1563C113.636 64.0734 113.778 63.6312 113.948 63.1336C114.345 62.028 115.225 61.9727 115.424 63.0507C115.509 63.4653 115.537 63.8247 115.509 63.8523C115.367 64.0181 113.636 64.2669 113.636 64.1563Z" fill="white"/>
<path d="M105.887 63.4654C105.774 63.3825 105.688 63.0508 105.688 62.7467C105.688 62.3044 105.774 62.2768 106.114 62.5532C106.341 62.7467 106.54 63.0784 106.54 63.2719C106.54 63.6865 106.199 63.7971 105.887 63.4654Z" fill="white"/>
<path d="M116.105 62.9115C115.935 62.0546 116.304 61.6677 117.183 61.7782C117.609 61.8335 117.751 62.0823 117.751 62.6904C117.751 63.3814 117.638 63.5473 117.013 63.6026C116.389 63.6855 116.247 63.5473 116.105 62.9115Z" fill="white"/>
<path d="M118.887 63.021C118.518 61.9153 118.631 61.5836 119.397 61.5007C120.079 61.4178 120.164 61.5007 120.164 62.2194C120.164 62.8275 119.994 63.0762 119.568 63.1868C119.256 63.2697 118.943 63.1868 118.887 63.021Z" fill="white"/>
<path d="M102.907 61.447C102.907 60.9218 102.964 60.7007 103.049 60.9771C103.105 61.2259 103.105 61.6681 103.049 61.9445C102.964 62.1933 102.907 61.9722 102.907 61.447Z" fill="white"/>
<path d="M103.617 61.8054C103.248 61.4737 103.418 60.3957 103.872 60.2298C104.525 59.9811 104.837 60.2851 104.837 61.1973C104.837 61.7777 104.695 61.9988 104.326 61.9988C104.042 61.9988 103.702 61.9159 103.617 61.8054Z" fill="white"/>
<path d="M105.319 61.0604C105.206 60.6458 105.149 60.2035 105.263 60.1206C105.546 59.8442 105.717 60.2864 105.632 61.088L105.546 61.862L105.319 61.0604Z" fill="white"/>
<path d="M114.487 60.8653C114.487 60.5612 114.629 60.3954 114.771 60.4783C114.941 60.5612 115.054 60.8376 115.054 61.0588C115.054 61.2799 114.941 61.4457 114.771 61.4457C114.629 61.4457 114.487 61.197 114.487 60.8653Z" fill="white"/>
<path d="M115.764 61.2243C115.367 60.8097 115.679 60.0634 116.332 59.8975C117.155 59.704 117.184 59.704 117.439 60.5056C117.609 61.0032 117.496 61.1137 116.758 61.2243C116.304 61.3072 115.85 61.2796 115.764 61.2243Z" fill="white"/>
<path d="M118.376 60.6994C118.063 60.423 118.148 59.5109 118.461 59.5109C118.631 59.5109 118.745 59.4003 118.745 59.2344C118.745 59.0962 118.574 58.958 118.347 58.958C117.865 58.958 117.467 57.6036 117.865 57.2166C118.376 56.7191 118.943 57.2443 119.284 58.5987C119.482 59.3174 119.681 60.1466 119.766 60.423C119.88 60.7823 119.766 60.8929 119.227 60.8929C118.858 60.8929 118.461 60.81 118.376 60.6994Z" fill="white"/>
<path d="M119.908 59.2354C119.71 58.4061 119.199 56.7477 118.83 55.5315C118.262 53.7624 118.205 53.3202 118.518 53.1267C118.716 52.9885 118.972 52.8779 119.057 52.8779C119.369 52.8779 120.504 58.5443 120.391 59.65L120.306 60.7556L119.908 59.2354Z" fill="white"/>
<path d="M102.623 59.0967C102.623 58.6545 102.68 58.4886 102.765 58.765C102.822 59.0138 102.822 59.4007 102.765 59.5942C102.68 59.7601 102.623 59.5666 102.623 59.0967Z" fill="white"/>
<path d="M103.191 59.041C103.304 58.0736 104.127 57.8524 104.354 58.737C104.553 59.4556 104.61 59.3727 103.758 59.6491C103.162 59.8149 103.105 59.7597 103.191 59.041Z" fill="white"/>
<path d="M115.169 58.7922C114.941 57.9906 115.424 57.5207 116.332 57.6313C117.013 57.7142 117.269 58.9027 116.701 59.2621C115.992 59.7043 115.339 59.5109 115.169 58.7922Z" fill="white"/>
<path d="M104.837 58.5712C104.837 58.1013 104.979 57.8525 105.291 57.8525C105.575 57.8525 105.688 58.046 105.632 58.4606C105.49 59.3451 104.837 59.4281 104.837 58.5712Z" fill="white"/>
<path d="M102.311 57.4099C102.311 57.1059 102.396 57.0229 102.481 57.2441C102.566 57.4376 102.538 57.6864 102.453 57.7693C102.368 57.8799 102.282 57.714 102.311 57.4099Z" fill="white"/>
<path d="M102.85 57.3275C102.85 56.9129 103.02 56.7471 103.446 56.7471C103.844 56.7471 103.985 56.8853 103.929 57.217C103.787 57.9356 102.85 58.0186 102.85 57.3275Z" fill="white"/>
<path d="M104.411 57.079C104.212 56.5815 104.212 56.5815 105.064 56.3604C105.575 56.1945 105.688 56.2774 105.688 56.692C105.688 57.3554 104.667 57.6871 104.411 57.079Z" fill="white"/>
<path d="M114.686 56.692C114.487 56.0009 114.856 55.6416 115.849 55.6416C116.332 55.6416 116.474 55.8074 116.474 56.3326C116.474 56.7473 116.303 57.0237 116.076 57.0237C115.849 57.0237 115.48 57.1066 115.253 57.1895C114.998 57.2724 114.799 57.1066 114.686 56.692Z" fill="white"/>
<path d="M117.155 56.0553C116.928 55.5025 117.269 55.0879 117.922 55.0879C118.319 55.0879 118.461 55.2814 118.461 55.7789C118.461 56.2764 118.319 56.4699 117.893 56.4699C117.581 56.4699 117.24 56.2764 117.155 56.0553Z" fill="white"/>
<path d="M102.566 55.6685C102.566 55.0881 103.219 54.4247 103.503 54.7287C103.617 54.8116 103.702 55.1986 103.702 55.558C103.702 56.0002 103.531 56.1937 103.134 56.1937C102.765 56.1937 102.566 56.0002 102.566 55.6685Z" fill="white"/>
<path d="M104.127 55.3378C103.9 54.6468 104.156 54.3427 105.121 54.2045C106.001 54.0939 106.284 55.0061 105.518 55.5589C104.78 56.0841 104.326 56.0012 104.127 55.3378Z" fill="white"/>
<path d="M114.402 55.1717C114.203 55.0059 114.118 53.9832 114.289 53.9832C114.317 53.9832 114.743 53.8726 115.254 53.7344C116.105 53.4856 116.162 53.5133 116.133 54.2596C116.105 54.8124 115.935 55.0888 115.509 55.1994C114.743 55.3929 114.629 55.3929 114.402 55.1717Z" fill="white"/>
<path d="M113.352 54.5351C113.352 54.3416 113.437 54.2587 113.55 54.3416C113.635 54.4521 113.635 54.618 113.55 54.7285C113.437 54.8115 113.352 54.7285 113.352 54.5351Z" fill="white"/>
<path d="M116.531 54.0946C116.616 53.6247 117.496 52.9337 117.694 53.1548C117.78 53.2377 117.921 53.5694 118.007 53.9288C118.205 54.4816 118.12 54.5369 117.325 54.5369C116.644 54.5369 116.446 54.4263 116.531 54.0946Z" fill="white"/>
<path d="M102.85 54.0652C102.85 53.927 102.992 53.6506 103.134 53.4295C103.361 53.0978 103.418 53.1255 103.418 53.6506C103.418 53.9823 103.304 54.2587 103.134 54.2587C102.992 54.2587 102.85 54.1758 102.85 54.0652Z" fill="white"/>
<path d="M103.702 53.4578C103.702 52.6838 104.298 52.435 104.752 53.0155C105.036 53.4301 105.036 53.5683 104.752 53.7618C104.156 54.1212 103.702 54.0106 103.702 53.4578Z" fill="white"/>
<path d="M112.33 53.0984C111.819 52.5456 111.819 52.5179 112.302 52.6838C112.586 52.7944 112.955 52.8773 113.096 52.8773C113.238 52.8773 113.352 53.0708 113.352 53.2919C113.352 53.8723 112.955 53.8171 112.33 53.0984Z" fill="white"/>
<path d="M106.228 53.0709C105.007 52.1587 104.837 50.1133 105.972 50.1133C106.739 50.1133 107.448 51.2742 107.335 52.3522C107.25 53.3473 106.909 53.5684 106.228 53.0709Z" fill="white"/>
<path d="M114.005 53.237C114.118 53.1541 114.288 53.1541 114.402 53.237C114.487 53.3476 114.402 53.4305 114.203 53.4305C114.005 53.4305 113.919 53.3476 114.005 53.237Z" fill="white"/>
<path d="M118.291 52.1585C118.376 51.9097 118.461 51.661 118.461 51.6057C118.461 51.5504 118.603 51.4951 118.745 51.4951C118.915 51.4951 119.029 51.7439 119.029 52.0479C119.029 52.3796 118.83 52.6007 118.575 52.6007C118.262 52.6007 118.177 52.4625 118.291 52.1585Z" fill="white"/>
<path d="M103.417 52.0757C103.417 51.44 104.014 50.3896 104.354 50.3896C104.95 50.3896 104.524 52.1587 103.9 52.2692C103.645 52.3245 103.417 52.2416 103.417 52.0757Z" fill="white"/>
<path d="M109.804 51.7729L108.953 51.5794L109.719 51.3859C110.514 51.1647 111.081 51.3306 111.081 51.8005C111.081 52.0769 111.053 52.0769 109.804 51.7729Z" fill="white"/>
<path d="M108.811 50.4452C108.811 49.3119 109.463 49.1461 110.059 50.1412C110.457 50.8045 110.485 50.9428 110.116 50.9428C109.889 50.9428 109.52 51.0257 109.265 51.1086C108.924 51.2468 108.811 51.081 108.811 50.4452Z" fill="white"/>
<path d="M113.749 50.8319C112.472 50.2791 111.649 48.8141 111.649 47.0727C111.649 45.8289 111.762 45.5248 112.529 44.8338C113.011 44.3916 113.494 44.0322 113.636 44.0322C114.26 44.0322 116.559 46.1606 117.326 47.4874L118.205 49.0076L117.269 49.9751C116.19 51.0807 114.998 51.3848 113.749 50.8319Z" fill="white"/>
<path d="M107.817 50.1123C107.732 49.9741 107.789 49.8359 107.931 49.8359C108.101 49.8359 108.243 49.9741 108.243 50.1123C108.243 50.2782 108.186 50.3888 108.13 50.3888C108.044 50.3888 107.902 50.2782 107.817 50.1123Z" fill="white"/>
<path d="M104.099 49.6722C104.184 49.4234 104.269 49.1746 104.269 49.1194C104.269 49.0641 104.525 49.0088 104.837 49.0088C105.546 49.0088 105.575 49.451 104.865 49.838C104.099 50.225 103.9 50.1973 104.099 49.6722Z" fill="white"/>
<path d="M106.341 49.3401C105.688 49.2572 105.49 48.8979 105.915 48.6491C106.029 48.5662 106.54 48.428 107.051 48.3174C107.817 48.1516 107.959 48.2069 107.959 48.6767C107.959 49.2572 107.363 49.506 106.341 49.3401Z" fill="white"/>
<path d="M108.527 48.4002C108.527 48.0685 108.555 47.875 108.612 47.9303C108.64 47.9856 108.867 48.262 109.066 48.5384C109.407 48.9254 109.378 49.0083 108.981 49.0083C108.697 49.0083 108.527 48.7872 108.527 48.4002Z" fill="white"/>
<path d="M104.553 48.2061C104.553 48.0403 104.695 47.8468 104.837 47.7639C105.007 47.6809 105.121 47.7915 105.121 48.0126C105.121 48.2614 105.007 48.4549 104.837 48.4549C104.695 48.4549 104.553 48.3443 104.553 48.2061Z" fill="white"/>
<path d="M105.603 47.7918C105.376 47.2389 107.391 46.6308 107.732 47.156C107.987 47.5983 107.732 47.7918 106.653 48.0129C106.001 48.1511 105.717 48.0958 105.603 47.7918Z" fill="white"/>
<path d="M108.271 46.908C108.271 46.6039 108.356 46.521 108.441 46.7421C108.527 46.9356 108.498 47.1844 108.413 47.2673C108.328 47.3779 108.243 47.212 108.271 46.908Z" fill="white"/>
<path d="M105.859 46.4645C106.199 45.8564 107.193 44.8613 107.448 44.8613C107.732 44.8613 107.76 46.1604 107.476 46.3263C107.334 46.3816 106.88 46.5198 106.455 46.6303C105.83 46.7685 105.688 46.7409 105.859 46.4645Z" fill="white"/>
<path d="M108.129 45.8299C107.817 45.0006 107.959 44.6413 108.64 44.5307C109.35 44.3925 109.35 44.3925 108.896 45.2494C108.328 46.355 108.356 46.355 108.129 45.8299Z" fill="white"/>
<path d="M107.959 44.1697C107.959 44.1144 108.527 43.7274 109.236 43.3404C110.088 42.8429 110.684 42.6771 111.109 42.7876C111.62 42.9535 111.478 43.064 110.23 43.6445C108.839 44.2526 107.959 44.4737 107.959 44.1697Z" fill="white"/>
<path d="M123.712 19.6813C122.945 18.6033 121.327 16.8619 120.164 15.8115C119 14.7612 118.234 13.9043 118.461 13.9043C119.085 13.9043 123.854 15.1758 125.046 15.6733C126.039 16.0879 126.067 16.1432 125.812 17.0001C125.67 17.4976 125.556 18.7415 125.556 19.7642C125.556 20.8146 125.471 21.6438 125.358 21.6438C125.216 21.6438 124.506 20.7593 123.712 19.6813Z" fill="white"/>
<path d="M65.9523 103.405C64.7886 102.824 64.5332 102.492 63.0573 99.6453C60.9286 95.6098 60.8718 94.67 62.887 96.9642C63.6817 97.8763 65.5266 99.7559 66.9741 101.138C69.4434 103.46 69.5569 103.626 68.7338 103.515C68.1378 103.432 67.9107 103.487 68.0526 103.709C68.3932 104.206 67.3147 104.068 65.9523 103.405Z" fill="white"/>
<path fill-rule="evenodd" clip-rule="evenodd" d="M172.984 104.096L175.028 104.981C175.452 105.171 180.126 107.359 185.741 109.986C194.794 114.223 206.293 119.603 206.363 119.603C206.476 119.603 207.009 118.404 207.129 117.005C207.413 113.992 208.463 109.901 209.683 107.054C210.251 105.782 210.705 104.193 210.705 104.055C210.705 103.992 210.244 103.811 209.488 103.514C208.589 103.161 207.273 102.644 205.823 101.968C198.671 98.6233 184.678 91.796 182.947 90.7733C181.244 89.8058 180.903 89.7229 180.903 90.3586C180.903 91.1879 179.172 95.03 177.838 97.1031C177.128 98.2364 175.738 100.282 174.744 101.636L172.984 104.096ZM205.88 114.627C206.694 115.087 205.284 115.761 204.944 115.871C202.938 116.037 200.577 115.67 198.643 114.572C197.631 113.874 189.667 109.565 184.384 106.706C181.968 105.399 180.114 104.396 179.74 104.179C178.547 103.488 177.412 102.742 177.213 102.521C176.617 101.774 177.185 101.443 178.86 101.581C179.866 101.664 204.122 113.635 205.88 114.627Z" fill="white"/>
</svg>
