<svg width="32" height="32" viewBox="0 0 32 32" fill="none" xmlns="http://www.w3.org/2000/svg">
<path d="M16.2186 25.7975H22.2933C23.9306 25.7975 25.12 24.0268 24.672 22.2455C24.1386 20.1601 23.1253 17.5948 21.1306 15.8455" stroke="white" stroke-width="1.2" stroke-linecap="round" stroke-linejoin="round"/>
<path d="M16.2187 25.7975H10.1333C8.49599 25.7975 7.30666 24.0268 7.75466 22.2455C8.28799 20.1601 9.30132 17.5948 11.296 15.8455" stroke="white" stroke-width="1.2" stroke-linecap="round" stroke-linejoin="round"/>
<path d="M7.67993 15.68C9.7546 15.68 10.2186 15.44 12.2933 16.1547C14.3679 16.8694 14.1386 17.6 16.2186 17.6C18.2986 17.6 18.0639 16.8854 20.1439 16.1707C22.2239 15.456 22.6826 15.696 24.7573 15.696V13.4934C22.6826 13.4934 22.2186 13.7334 20.1439 13.0187C18.0693 12.304 18.2986 11.5894 16.2186 11.5894C14.1386 11.5894 14.3733 12.304 12.2933 13.0187C10.2133 13.7334 9.7546 13.4934 7.67993 13.4934" stroke="white" stroke-width="1.2" stroke-linecap="round" stroke-linejoin="round"/>
<path d="M25.2159 11.3494H27.7333V16.448C27.7321 16.7336 27.6203 17.0075 27.4214 17.2124C27.2225 17.4172 26.952 17.537 26.6666 17.5467H26.3359C26.191 17.5467 26.0474 17.5181 25.9135 17.4627C25.7795 17.4072 25.6578 17.3259 25.5553 17.2233C25.4528 17.1208 25.3715 16.9991 25.316 16.8652C25.2605 16.7312 25.2319 16.5877 25.2319 16.4427V11.3494H25.2159Z" stroke="white" stroke-width="1.2" stroke-linecap="round" stroke-linejoin="round"/>
<path d="M5.14136 11.3494H7.68002V16.448C7.68002 16.7408 7.56371 17.0216 7.35667 17.2287C7.14963 17.4357 6.86882 17.552 6.57602 17.552H6.24536C5.95256 17.552 5.67175 17.4357 5.46471 17.2287C5.25767 17.0216 5.14136 16.7408 5.14136 16.448V11.3494Z" stroke="white" stroke-width="1.2" stroke-linecap="round" stroke-linejoin="round"/>
<path d="M2.13867 9.43994H6.29334H6.52267H10.6773" stroke="white" stroke-width="1.2" stroke-linecap="round" stroke-linejoin="round"/>
<path d="M22.2186 9.43994H26.3733H26.6026H30.7573" stroke="white" stroke-width="1.2" stroke-linecap="round" stroke-linejoin="round"/>
<path d="M17.4293 19.1626H15.0453C14.4444 19.1626 13.9573 19.6497 13.9573 20.2506V22.6346C13.9573 23.2355 14.4444 23.7226 15.0453 23.7226H17.4293C18.0302 23.7226 18.5173 23.2355 18.5173 22.6346V20.2506C18.5173 19.6497 18.0302 19.1626 17.4293 19.1626Z" stroke="white" stroke-width="1.2" stroke-linecap="round" stroke-linejoin="round"/>
<path d="M16.24 22.2722C16.6995 22.2722 17.072 21.8997 17.072 21.4402C17.072 20.9807 16.6995 20.6082 16.24 20.6082C15.7805 20.6082 15.408 20.9807 15.408 21.4402C15.408 21.8997 15.7805 22.2722 16.24 22.2722Z" stroke="white" stroke-width="1.2" stroke-linecap="round" stroke-linejoin="round"/>
</svg>
