<svg width="346" height="281" viewBox="0 0 346 281" fill="none" xmlns="http://www.w3.org/2000/svg">
<g clip-path="url(#clip0)">
<path fill-rule="evenodd" clip-rule="evenodd" d="M150.606 273.804C135.114 281.558 116.952 282.189 99.7667 279.981C66.4959 275.707 32.8974 259.595 16.3543 230.445C9.21848 217.871 5.61451 203.614 3.10364 189.379C-0.24967 170.369 -1.60427 149.932 6.82228 132.561C13.926 117.917 27.1091 107.261 40.2434 97.6342C54.0089 87.5449 68.9209 77.7355 85.8747 75.7192C134.781 74.7516 129.827 93.1035 180.902 63.9158C195.749 55.4308 239.893 69.9957 254.809 74.7516C269.724 79.5076 299.156 94.1805 319.116 111.611C327.46 118.897 335.155 127.235 339.844 137.265C346.865 152.282 346.524 169.777 343.249 186.025C339.945 202.414 332.772 219.46 318.201 227.684C311.618 231.4 304.027 232.994 296.491 233.604C265.016 236.151 231.535 222.728 202.732 235.658C183.014 244.51 169.933 264.131 150.606 273.804Z" fill="#2794E2"/>
<path fill-rule="evenodd" clip-rule="evenodd" d="M219.972 33.3499C219.362 33.154 218.721 32.9313 218.306 32.4437C217.708 31.7422 217.747 30.717 217.819 29.7984C218.53 20.7205 219.24 11.6427 219.951 2.56483C220.033 1.51294 221.066 0.737465 222.111 0.582242C223.155 0.42702 224.206 0.743157 225.215 1.05562C231.722 3.07116 238.229 5.0867 244.736 7.10224C246.324 7.59416 246.409 9.79651 246.075 11.4236C245.741 13.0507 245.49 15.1399 246.912 16.0012C256.402 21.7499 266.486 26.5189 276.952 30.2078C277.628 30.4462 277.678 31.4739 277.206 32.0131C276.734 32.5523 275.979 32.7262 275.278 32.8757C264.653 35.1397 254.256 38.4707 244.294 42.8022C242.901 43.4082 241.081 43.962 240.028 42.8657C239.28 42.0857 239.352 40.8664 239.288 39.7876C239.225 38.7088 238.748 37.4169 237.675 37.2806C231.67 36.5176 225.736 35.1999 219.972 33.3499ZM242.262 14.9409C243.717 12.6381 242.679 9.15698 240.2 8.02467C234.319 5.33933 228.147 3.2908 221.828 1.92649C222.878 3.54557 222.822 5.61643 222.73 7.54353C222.375 14.9433 222.01 22.4112 220.077 29.563C219.909 30.1814 220.706 30.5837 221.331 30.7235C226.936 31.9762 232.583 33.0411 238.259 33.9159C237.791 28.4505 237.323 22.9851 236.855 17.5196C236.803 16.9122 236.755 16.2777 236.986 15.7136C237.362 14.7998 238.403 14.3032 239.392 14.2752C240.38 14.2472 241.335 14.5966 242.262 14.9409ZM241.045 19.2452C241.492 25.6584 241.939 32.0715 242.386 38.4847C242.425 39.047 242.491 39.6675 242.907 40.0482C251.955 36.2965 261.328 33.3283 270.888 31.1876C260.529 28.2152 251.789 20.0855 241.045 19.2452Z" fill="#2794E2"/>
<path fill-rule="evenodd" clip-rule="evenodd" d="M150.606 273.804C135.114 281.558 116.952 282.189 99.7667 279.981C66.4959 275.707 32.8974 259.595 16.3543 230.445C9.21848 217.871 5.61451 203.614 3.10364 189.379C1.72612 181.57 -0.949137 169.874 3.94948 164.566C5.04401 163.38 35.7923 138.644 47.803 121.855C52.9524 114.657 60.5026 107.813 69.449 106.493C79.882 104.953 89.4638 112.138 97.0477 119.458C107.525 129.572 116.928 140.795 125.047 152.88C116.1 149.083 109.66 141.191 103.716 133.507C97.7728 125.822 91.6312 117.781 82.9299 113.45C74.2286 109.119 62.1449 109.84 56.4937 117.742C43.0241 136.576 25.9853 152.853 6.54904 165.454C5.08718 166.402 4.95502 168.451 4.98239 170.192C5.29835 190.285 7.54723 213.167 23.6388 225.227C37.0789 235.3 56.5893 233.986 71.3117 225.897C86.0342 217.808 96.8014 204.125 106.045 190.109C133.161 148.995 150.767 102 179.912 62.2954C186.612 53.1679 194.505 44.0402 205.3 40.5993C212.502 38.3034 214.522 29.1228 214.389 21.5717C214.257 14.0207 213.541 5.43562 218.79 -3.8147e-06C217.684 12.557 216.578 25.114 215.471 37.6709C231.593 45.6662 241.009 62.6891 247.92 79.2906C258.182 103.943 265.148 129.891 275.952 154.312C286.756 178.732 302.092 202.197 324.761 216.341C335.254 202.695 341.238 180.85 341.238 168.366C335.254 161.851 326.754 151.66 316.809 147.071C304.954 141.6 291.949 151.191 282.426 160.116C287.689 152.113 294.008 143.689 303.321 141.423C310.839 139.593 318.886 142.322 325.124 146.896C331.361 151.471 336.117 157.731 340.78 163.9C345.495 165.454 346.524 169.777 343.249 186.025C339.945 202.414 332.772 219.46 318.201 227.684C311.618 231.4 304.027 232.994 296.491 233.604C265.016 236.151 231.535 222.728 202.732 235.658C183.014 244.51 169.933 264.131 150.606 273.804ZM209.941 229.441C235.502 221.022 263.201 230.779 290.113 230.419C302.036 230.259 314.782 227.631 322.99 218.991C305.012 208.417 291.365 191.602 281.425 173.279C271.485 154.956 264.95 135.022 258.469 115.213C249.94 110.356 238.963 118.57 229.602 115.616C224.818 114.106 219.106 110.005 215.673 113.659C213.6 115.865 209.741 114.568 207.726 112.31C205.71 110.052 204.588 107.051 202.315 105.052C200.042 103.053 195.728 102.802 194.572 105.597C192.57 110.437 190.46 115.435 186.621 119.001C182.783 122.567 176.697 124.289 172.201 121.596C168.689 119.493 167.031 115.4 164.986 111.857C162.94 108.313 159.552 104.77 155.484 105.24C141.744 134.159 126.373 162.304 109.469 189.499C102.206 201.185 94.5179 212.86 84.1144 221.872C73.7109 230.884 60.1254 237.048 46.4124 235.795C35.3464 234.783 25.2946 229.153 15.8163 223.36C24.1232 240.241 38.7978 253.523 55.5532 262.109C72.3086 270.694 91.0754 274.822 109.847 276.313C117.255 276.902 124.767 277.087 132.059 275.655C161.939 269.789 181.02 238.966 209.941 229.441ZM183.785 114.526C186.403 111.147 188.039 107.082 190.737 103.765C193.435 100.449 197.816 97.8784 201.897 99.1592C205.695 100.351 207.785 104.31 209.478 107.908C210.328 109.715 212.913 109.855 214.775 109.131C216.638 108.406 218.313 107.096 220.3 106.879C224.411 106.431 227.507 110.685 231.525 111.665C237.503 113.123 243.513 107.028 249.422 108.748C251.922 109.476 254.086 111.564 256.684 111.386C251.687 99.4205 247.951 87.639 242.705 75.7808C237.458 63.9227 226.062 42.9518 216.946 41.7822C207.726 40.5993 193.615 51.1443 187.003 58.3467C180.391 65.549 175.044 73.8036 169.919 82.1273C165.531 89.2542 161.279 96.4653 157.169 103.755C162.681 102.974 167.483 107.495 170.602 112.102C172.468 114.859 174.69 118.143 178.021 118.131C180.37 118.122 182.347 116.382 183.785 114.526Z" fill="white"/>
<path fill-rule="evenodd" clip-rule="evenodd" d="M143.15 18.3634C137.358 18.9505 132.634 24.0296 130.248 30.9033C129.628 32.6899 127.592 33.5151 124.019 33.8589L123.794 33.8798C115.884 34.5844 110.633 36.6194 108.101 41.2718L107.995 41.4707C107.789 41.8664 107.612 42.2614 107.354 42.8858L107.188 43.2923C106.591 44.7591 106.285 45.3797 105.773 46.0254C104.181 48.0364 101.785 48.6553 96.9895 48.7993L96.4568 48.8131C84.968 49.0687 76.8516 50.8125 70.277 55.399C68.3962 56.7111 67.2764 58.0135 67.0257 59.6827C66.7383 61.5959 67.851 63.5769 69.6275 64.6645C71.049 65.5348 72.754 65.8785 74.8832 65.8847C77.4738 65.8924 80.0644 65.4419 82.5 64.5602L82.703 64.4859C83.0697 64.3499 83.4177 64.2115 83.9346 63.9975L85.0295 63.541C87.2757 62.6128 88.3656 62.2837 89.7323 62.2121C91.8409 62.1017 93.5048 62.6575 97.0481 64.3869L97.7934 64.7522C98.5646 65.1293 99.1212 65.392 99.667 65.6309L99.8157 65.6956C105.76 68.2603 111.837 68.6894 121.708 67.9375L123.655 67.7805L127.969 67.416C129.101 67.324 129.912 67.2652 130.846 67.2061L131.747 67.153C135.591 66.944 139.696 66.9405 146.397 67.0742L151.007 67.1702C160.245 67.3522 164.41 67.3031 168.85 66.8466C174.009 66.3162 177.368 62.7182 178.745 57.3882C179.862 53.0683 179.456 48.0278 177.9 45.6329C174.795 40.8505 170.159 37.9701 165.894 39.2974C164.48 39.7374 162.702 38.7003 161.795 36.9989C161.302 36.0748 161.051 35.2412 160.64 33.3735L160.442 32.4694C160.327 31.9585 160.243 31.6167 160.136 31.2326C158.689 26.0023 154.738 21.5362 149.72 19.4589C147.517 18.5474 145.277 18.1478 143.15 18.3634ZM149.11 20.9283C153.598 22.786 157.163 26.7606 158.533 31.4149L158.602 31.6563C158.7 32.013 158.78 32.3366 158.89 32.8286L159.136 33.9446C159.55 35.7978 159.829 36.6964 160.389 37.7468C161.598 40.0125 164.024 41.4577 166.235 40.8546L166.368 40.816C169.789 39.7512 173.802 42.2447 176.564 46.4985C177.848 48.4742 178.217 53.067 177.204 56.9907C175.979 61.7313 173.104 64.8103 168.687 65.2644L168.192 65.3136C164.125 65.7046 160.08 65.7513 151.737 65.5934L145.645 65.4687C139.362 65.35 135.399 65.3613 131.658 65.5649L130.19 65.6547C129.143 65.7248 128.144 65.8031 126.512 65.9409L122.014 66.3184C112.272 67.0855 106.349 66.718 100.696 64.3415L100.447 64.2354C99.9747 64.0316 99.5027 63.8129 98.8837 63.5134L97.4857 62.8306C93.8733 61.0807 92.0617 60.4973 89.6489 60.6237C87.9995 60.7101 86.7661 61.0943 84.2074 62.1598L83.0758 62.6307C82.6282 62.814 82.3157 62.9351 81.9575 63.0648C79.6973 63.8829 77.2919 64.3012 74.8879 64.2942C73.0243 64.2887 71.5878 63.9991 70.4595 63.3083C69.1931 62.533 68.4156 61.1488 68.6004 59.9187C68.7694 58.7934 69.6344 57.7874 71.1887 56.7031C77.3628 52.3959 85.0811 50.6979 96.0459 50.414L96.4922 50.4033C102.117 50.2781 104.964 49.6111 107.022 47.0122C107.605 46.2761 107.949 45.6164 108.505 44.2751L108.936 43.2292C109.154 42.7114 109.309 42.3826 109.5 42.0314C111.635 38.108 116.236 36.2352 123.296 35.5246L123.935 35.4641C128.166 35.0872 130.739 34.1072 131.701 31.5671L131.753 31.4243C133.957 25.0744 138.25 20.4588 143.311 19.9458C145.077 19.7668 146.966 20.0823 148.853 20.8245L149.11 20.9283Z" fill="white"/>
<path fill-rule="evenodd" clip-rule="evenodd" d="M315.727 51.2799L315.53 51.4762C315.381 51.629 315.233 51.7874 315.049 51.9897L314.321 52.8086C313.626 53.586 313.251 53.9564 312.759 54.3269C311.689 55.1337 310.407 55.383 309.555 54.9063C309.212 54.7146 308.957 54.4633 308.464 53.8584L308.097 53.4068C307.906 53.1755 307.77 53.0234 307.603 52.8554C305.406 50.6435 301.568 50.5364 298.646 52.2973C296.36 53.6753 294.717 55.7863 292.918 59.1446C292.183 60.5165 290.567 61.4652 288.644 61.7553C287.71 61.8962 286.728 61.9066 285.471 61.8136L284.857 61.7623L282.926 61.5668C272.764 60.5656 262.371 61.9999 252.861 65.7161C251.36 66.3026 250.526 66.8281 249.996 67.8069C249.233 69.2177 250.007 71.2653 251.638 71.3556C279.514 72.8986 307.505 72.3713 335.303 69.78L337.066 69.6146L338.353 69.5264C338.473 69.5175 338.572 69.5093 338.695 69.4983L339.025 69.4654C341.561 69.1845 342.954 68.3442 342.954 66.238C342.954 64.2034 341.972 63.647 339.493 63.3946L338.997 63.3426C338.037 63.2379 337.599 63.1594 337.006 62.9761C334.904 62.3254 332.4 60.969 331.854 60.2914C331.046 59.2893 330.702 58.3463 330.21 56.1537L330.055 55.4599C329.539 53.2014 329.128 52.124 328.155 50.9157C325.315 47.3884 319.254 47.8199 315.727 51.2799ZM326.914 51.9125C327.721 52.9143 328.065 53.8575 328.555 56.0466L328.71 56.7407C329.228 59.0029 329.639 60.0802 330.614 61.2892C331.402 62.2669 334.158 63.7595 336.535 64.4954L336.753 64.5607C337.322 64.7244 337.799 64.8079 338.633 64.9025L339.731 65.0205C341.132 65.1861 341.362 65.3852 341.362 66.238C341.362 67.2755 340.61 67.7109 338.714 67.8989L338.23 67.9406L337.018 68.0229C336.959 68.0274 336.905 68.0318 336.852 68.0364L336.695 68.0507C308.469 70.7602 280.038 71.3346 251.726 69.7675C251.403 69.7496 251.136 69.0451 251.397 68.5634C251.691 68.0209 252.274 67.6537 253.441 67.1974C262.557 63.6351 272.508 62.222 282.257 63.1013L283.449 63.2191L284.435 63.3201C284.665 63.3425 284.855 63.3597 285.066 63.3772C286.568 63.5019 287.738 63.5006 288.882 63.328C291.262 62.9689 293.323 61.7592 294.321 59.8951C295.997 56.768 297.487 54.8538 299.469 53.6591C301.807 52.2495 304.842 52.3342 306.473 53.9757L306.568 54.0741C306.646 54.1575 306.725 54.2473 306.822 54.3634L307.128 54.7379C307.811 55.586 308.175 55.9577 308.777 56.2943C310.26 57.1234 312.191 56.7477 313.718 55.5965C314.279 55.1738 314.691 54.7756 315.371 54.0211L316.22 53.0682C316.466 52.7957 316.641 52.6127 316.843 52.4147C319.756 49.5565 324.732 49.2022 326.914 51.9125Z" fill="white"/>
<path fill-rule="evenodd" clip-rule="evenodd" d="M214.389 21.5717C214.257 14.0207 213.541 5.43563 218.79 0C217.684 12.557 216.578 25.114 215.471 37.6709C217.268 38.5619 214.589 40.0522 212.965 40.0821C207.148 40.1895 214.522 29.1228 214.389 21.5717Z" fill="#2794E2"/>
</g>
<defs>
<clipPath id="clip0">
<rect width="345" height="281" fill="white" transform="translate(0.5)"/>
</clipPath>
</defs>
</svg>
