<svg width="32" height="32" viewBox="0 0 32 32" fill="none" xmlns="http://www.w3.org/2000/svg">
<path d="M16 2.6665C8.63999 2.6665 2.66666 8.63984 2.66666 15.9998C2.66666 23.3598 8.63999 29.3332 16 29.3332C23.36 29.3332 29.3333 23.3598 29.3333 15.9998C29.3333 8.63984 23.36 2.6665 16 2.6665ZM16 6.6665C18.2133 6.6665 20 8.45317 20 10.6665C20 12.8798 18.2133 14.6665 16 14.6665C13.7867 14.6665 12 12.8798 12 10.6665C12 8.45317 13.7867 6.6665 16 6.6665ZM16 25.5998C12.6667 25.5998 9.71999 23.8932 7.99999 21.3065C8.03999 18.6532 13.3333 17.1998 16 17.1998C18.6533 17.1998 23.96 18.6532 24 21.3065C22.28 23.8932 19.3333 25.5998 16 25.5998Z" fill="white"/>
</svg>
