<svg width="379" height="234" viewBox="0 0 379 234" fill="none" xmlns="http://www.w3.org/2000/svg">
<g filter="url(#filter0_d)">
<g clip-path="url(#clip0)">
<path d="M374.807 236.244H5.22339V2.93848H374.807V236.244Z" fill="#D04E54"/>
<path style="mix-blend-mode:screen" opacity="0.2" d="M251.255 3.02441H5.23853V236.223H117.842L251.255 3.02441Z" fill="url(#paint0_linear)"/>
<g opacity="0.2">
<path opacity="0.2" fill-rule="evenodd" clip-rule="evenodd" d="M247.824 66.4455C248.565 66.0798 249.306 65.8969 249.86 65.8969C250.966 65.902 251.702 66.6487 252.621 67.5731L263.067 82.3998C264.351 83.8829 263.787 85.9096 262.122 86.829C252.499 92.5077 241.226 96.1445 227.014 96.0785C200.996 95.9515 179.323 74.0544 179.45 47.8296C179.567 23.2709 198.134 -0.0992799 225.075 0.0327836C254.788 0.175006 271.096 24.6321 270.954 54.3667C270.944 56.3985 270.015 58.0544 267.244 58.0391L208.376 57.7598C210.742 64.6017 217.908 70.7325 228.06 70.7833C235.993 70.8188 241.353 69.3661 247.824 66.4455ZM241.693 36.6804C239.521 28.7261 234.008 23.1591 224.964 23.1185C216.294 23.0779 210.544 29.1426 208.478 36.5179L241.693 36.6804Z" fill="white"/>
<path opacity="0.2" fill-rule="evenodd" clip-rule="evenodd" d="M348.084 94.8137C345.688 94.7985 344.582 93.6861 344.597 91.2887L344.632 83.8982C338.511 90.5166 330.542 96.5763 318.549 96.5153C294.373 96.4036 278.608 74.5318 278.735 48.3071C278.857 22.0823 294.835 0.368019 319.01 0.484844C331.004 0.540717 338.542 6.48865 344.967 13.3509L345.003 5.96548C345.018 3.56294 346.13 2.46072 348.525 2.47088L371.965 2.58262C374.178 2.59786 375.279 3.71024 375.269 6.1077L374.863 91.4309C374.848 93.8334 373.736 94.9356 371.523 94.9255L348.084 94.8137ZM327.177 67.7458C337.511 67.7966 345.485 59.5274 345.536 48.6271C345.592 37.7318 337.694 29.3864 327.36 29.3356C317.026 29.2848 309.235 37.3712 309.184 48.4544C309.128 59.5375 316.843 67.7001 327.177 67.7458Z" fill="white"/>
<path opacity="0.2" d="M230.455 195.903C236.282 195.933 239.739 194.867 239.754 190.768C239.81 179.329 190.84 182.118 191.012 145.643C191.109 126.432 208.858 112.921 231.288 113.028C246.814 113.104 259.94 119.423 267.025 126.366C268.523 128.317 268.518 130.039 266.569 131.974L252.692 146.801C251.611 147.872 250.743 148.304 249.667 148.294C248.804 148.294 247.941 148.071 246.652 147.202C242.566 144.81 238.049 142.199 231.364 142.163C227.263 142.148 223.38 142.559 223.365 145.795C223.319 155.075 272.284 154.018 272.106 190.925C272.02 209.267 256.199 225.378 229.669 225.251C213.279 225.175 199.073 218.846 188.779 207.575C186.845 205.188 187.505 202.821 189.454 200.886L202.463 186.918C203.544 185.846 204.625 185.419 205.706 185.424C206.783 185.429 208.077 185.866 209.148 186.953C216.67 192.815 222.908 195.867 230.455 195.903Z" fill="white"/>
<path opacity="0.2" d="M373.122 195.604C372.98 224.475 353.479 245.173 324.629 245.036C310.717 244.97 297.698 238.89 290.693 230.778C289.496 229.569 289.333 228.198 290.541 226.654L301.774 211.756C302.469 210.73 303.159 210.217 304.017 210.222C304.53 210.222 305.215 210.572 305.728 211.091C309.829 215.403 316.513 218.186 324.071 218.222C339.866 218.298 344.896 207.84 344.942 198.387L344.983 189.971C341.348 195.964 329.989 201.237 319.513 201.186C299.078 201.089 287.465 187.456 287.587 162.71L287.8 118.377C287.81 116.142 288.846 115.116 290.907 115.126L312.717 115.228C314.945 115.238 315.97 116.274 315.96 118.509L315.777 157.178C315.732 166.798 320.158 174.382 329.949 174.428C339.562 174.473 345.089 167.626 345.13 159.55L345.328 118.651C345.338 116.416 346.373 115.39 348.607 115.4L370.412 115.507C372.472 115.517 373.498 116.553 373.487 118.788L373.122 195.604Z" fill="white"/>
</g>
<path fill-rule="evenodd" clip-rule="evenodd" d="M129.643 137.11C129.882 136.993 130.12 136.932 130.298 136.937C130.648 136.937 130.887 137.176 131.181 137.47L134.526 142.225C134.942 142.697 134.759 143.347 134.226 143.642C131.14 145.46 127.526 146.629 122.974 146.603C114.639 146.568 107.691 139.548 107.731 131.147C107.772 123.274 113.721 115.787 122.354 115.827C131.876 115.873 137.099 123.71 137.053 133.239C137.053 133.89 136.754 134.423 135.866 134.418L117.005 134.326C117.761 136.521 120.055 138.486 123.309 138.502C125.851 138.512 127.572 138.044 129.643 137.11ZM127.679 127.571C126.983 125.026 125.217 123.238 122.319 123.228C119.537 123.213 117.695 125.158 117.035 127.52L127.679 127.571Z" fill="white"/>
<path fill-rule="evenodd" clip-rule="evenodd" d="M161.772 146.202C161 146.197 160.65 145.841 160.65 145.069L160.665 142.702C158.701 144.826 156.148 146.766 152.306 146.746C144.56 146.71 139.505 139.7 139.546 131.299C139.586 122.893 144.708 115.939 152.453 115.975C156.295 115.99 158.711 117.9 160.772 120.099L160.782 117.732C160.787 116.96 161.143 116.61 161.914 116.61L169.421 116.645C170.132 116.65 170.487 117.006 170.482 117.778L170.35 145.115C170.345 145.887 169.989 146.238 169.279 146.238L161.772 146.202ZM155.072 137.526C158.381 137.542 160.94 134.895 160.955 131.401C160.97 127.911 158.442 125.234 155.128 125.219C151.819 125.204 149.321 127.794 149.306 131.345C149.286 134.895 151.758 137.511 155.072 137.526Z" fill="white"/>
<path d="M186.582 138.862C188.18 138.872 189.13 138.577 189.135 137.455C189.15 134.316 175.72 135.083 175.77 125.082C175.796 119.814 180.658 116.111 186.81 116.137C191.068 116.157 194.667 117.894 196.611 119.794C197.022 120.332 197.017 120.805 196.484 121.333L192.677 125.397C192.383 125.691 192.145 125.808 191.85 125.808C191.612 125.808 191.378 125.747 191.023 125.508C189.901 124.853 188.663 124.137 186.83 124.127C185.709 124.122 184.643 124.233 184.638 125.122C184.627 127.667 198.053 127.377 198.002 137.496C197.976 142.529 193.642 146.943 186.368 146.908C181.871 146.887 177.978 145.155 175.156 142.062C174.623 141.407 174.806 140.757 175.339 140.228L178.907 136.398C179.207 136.104 179.501 135.987 179.795 135.987C180.09 135.992 180.445 136.109 180.74 136.409C182.8 138.014 184.516 138.852 186.582 138.862Z" fill="white"/>
<path d="M231.796 144.526C231.745 154.466 225.03 161.592 215.097 161.547C210.305 161.526 205.824 159.433 203.413 156.64C202.996 156.223 202.941 155.746 203.357 155.218L207.224 150.087C207.463 149.732 207.702 149.559 207.996 149.559C208.174 149.559 208.412 149.681 208.59 149.859C210.001 151.342 212.3 152.302 214.904 152.312C220.345 152.338 222.076 148.736 222.091 145.486L222.106 142.585C220.853 144.647 216.944 146.466 213.335 146.446C206.296 146.415 202.301 141.722 202.342 133.199L202.413 117.93C202.418 117.158 202.773 116.807 203.484 116.813L210.996 116.848C211.762 116.848 212.117 117.209 212.112 117.976L212.046 131.294C212.031 134.606 213.559 137.216 216.929 137.232C220.238 137.247 222.142 134.89 222.157 132.112L222.223 118.027C222.228 117.254 222.583 116.904 223.355 116.904L230.862 116.94C231.572 116.945 231.928 117.3 231.923 118.072L231.796 144.526Z" fill="white"/>
<path d="M256.113 127.262C255.184 126.774 254.458 126.109 253.936 125.255C253.413 124.407 253.154 123.442 253.159 122.365C253.164 121.288 253.433 120.328 253.961 119.48C254.494 118.637 255.225 117.972 256.164 117.494C257.098 117.017 258.143 116.783 259.29 116.788C260.356 116.793 261.285 116.961 262.082 117.301C262.879 117.641 263.554 118.175 264.107 118.906L261.798 120.923C261.118 120.075 260.321 119.653 259.407 119.648C258.641 119.643 258.006 119.892 257.509 120.389C257.017 120.887 256.763 121.553 256.758 122.381C256.758 123.214 257.001 123.879 257.494 124.382C257.986 124.885 258.615 125.139 259.382 125.144C260.295 125.149 261.097 124.732 261.783 123.894L264.072 125.911C263.513 126.647 262.833 127.186 262.041 127.516C261.25 127.846 260.316 128.008 259.24 128.003C258.087 127.998 257.047 127.749 256.113 127.262Z" fill="white"/>
<path fill-rule="evenodd" clip-rule="evenodd" d="M277.751 125.956L273.147 125.936L272.36 127.825L268.924 127.81L273.746 117.098L277.274 117.113L281.989 127.871L278.502 127.856L277.751 125.956ZM276.761 123.462L275.492 120.227L274.162 123.452L276.761 123.462Z" fill="white"/>
<path fill-rule="evenodd" clip-rule="evenodd" d="M258.392 141.834L257.296 141.829L257.286 144.541L253.702 144.526L253.753 133.788L258.95 133.813C259.95 133.819 260.828 133.986 261.574 134.321C262.321 134.652 262.894 135.124 263.295 135.728C263.691 136.338 263.889 137.049 263.884 137.867C263.884 138.639 263.701 139.309 263.336 139.888C262.975 140.473 262.463 140.925 261.793 141.255L264.097 144.572L260.255 144.556L258.392 141.834ZM259.889 136.866C259.615 136.627 259.209 136.511 258.676 136.506L257.321 136.5L257.311 139.193L258.666 139.198C259.194 139.203 259.6 139.081 259.884 138.842C260.163 138.603 260.3 138.273 260.306 137.852C260.306 137.43 260.169 137.1 259.889 136.866Z" fill="white"/>
<path fill-rule="evenodd" clip-rule="evenodd" d="M270.863 133.875L276.172 133.9C277.395 133.905 278.471 134.124 279.405 134.566C280.339 135.003 281.06 135.622 281.568 136.43C282.075 137.238 282.329 138.192 282.324 139.295C282.319 140.387 282.06 141.332 281.542 142.144C281.024 142.952 280.299 143.566 279.36 143.998C278.426 144.425 277.345 144.638 276.121 144.633L270.812 144.608L270.863 133.875ZM276.005 141.9C276.832 141.905 277.487 141.682 277.974 141.225C278.456 140.768 278.7 140.118 278.705 139.279C278.71 138.421 278.471 137.771 277.989 137.314C277.512 136.862 276.857 136.633 276.03 136.628L274.431 136.618L274.406 141.895L276.005 141.9Z" fill="white"/>
<path d="M243.866 116.519C243.86 116.519 243.86 116.519 243.86 116.519C243.475 116.519 243.165 116.823 243.16 117.199L243.028 144.135C243.028 144.516 243.338 144.821 243.723 144.821H243.729C244.114 144.821 244.424 144.521 244.424 144.145L244.561 117.204C244.561 116.828 244.251 116.519 243.866 116.519Z" fill="white"/>
<path d="M52.3663 45.5596C52.2445 44.9196 52.0516 44.305 51.7572 43.7209C51.5948 43.3907 51.4019 43.0809 51.1329 42.8218C50.8994 42.5983 50.6304 42.446 50.2853 42.5018C50.1025 42.5323 49.9401 42.5983 49.8234 42.7507C49.6051 43.0402 49.5645 43.3755 49.6203 43.7209C49.6508 43.9342 49.7269 44.1374 49.7929 44.3456C49.9401 44.8028 50.1076 45.2599 50.2497 45.7221C50.3868 46.1691 50.468 46.6314 50.468 47.1037C50.468 47.3577 50.4528 47.6117 50.4325 47.8656C50.4071 48.1399 50.3512 48.4041 50.2599 48.6631C50.2294 48.7444 50.1888 48.8155 50.1533 48.8917C50.1279 48.9425 50.0822 48.9577 50.0264 48.9323C49.9807 48.9069 49.9249 48.8917 49.8843 48.8561C49.7269 48.7444 49.5747 48.6275 49.4224 48.5107C47.9505 47.3577 46.4734 46.2098 45.0015 45.0568C44.4686 44.6402 43.9356 44.2237 43.4077 43.8021C43.2555 43.6752 43.0829 43.6548 42.9002 43.6853C42.7175 43.7158 42.5804 43.8326 42.4637 43.9698C42.286 44.1831 42.1744 44.4371 42.0881 44.7012C41.9206 45.1939 41.8546 45.7069 41.814 46.2199C41.7886 46.5501 41.7835 46.8752 41.7683 47.2053C41.7734 47.2053 41.7785 47.2053 41.7835 47.2053C41.7835 47.2866 41.7835 47.3628 41.7835 47.4441C41.7886 47.9266 41.8191 48.4041 41.9003 48.8815C41.9663 49.3082 42.0678 49.7247 42.2454 50.1158C42.3774 50.4053 42.5398 50.6745 42.7834 50.8777C42.9865 51.0453 43.2149 51.1368 43.4839 51.0961C43.7377 51.0555 43.9102 50.9082 44.0219 50.6796C44.1336 50.4561 44.1691 50.2174 44.1691 49.9736C44.1691 49.7856 44.1488 49.5977 44.1183 49.4148C44.0422 48.9577 43.9508 48.5006 43.8696 48.0383C43.824 47.8199 43.7986 47.5964 43.8341 47.3729C43.8696 47.1799 43.9864 47.1088 44.164 47.1901C44.2706 47.2409 44.3721 47.3018 44.4635 47.3679C44.7223 47.5609 44.9761 47.759 45.235 47.9571C46.2197 48.7037 47.2043 49.4555 48.1839 50.2021C48.8184 50.6847 49.4529 51.1621 50.0822 51.6447C50.3512 51.8479 50.6609 51.9037 50.9857 51.8783C51.209 51.858 51.3664 51.7107 51.4983 51.5431C51.7217 51.2739 51.8638 50.9641 51.9856 50.639C52.1734 50.1412 52.3003 49.618 52.3967 49.0898C52.4779 48.6326 52.5338 48.1704 52.5541 47.7082C52.5693 47.3425 52.5693 46.9818 52.5236 46.6161C52.4779 46.2656 52.4323 45.9101 52.3663 45.5596Z" fill="white"/>
<path d="M61.2639 45.0263C61.203 44.5742 61.137 44.1221 61.0507 43.6752C60.8578 42.6898 60.5939 41.7298 60.2437 40.7901C60.0762 40.3431 59.8884 39.9012 59.6549 39.4847C59.4417 39.0987 59.1321 38.8904 58.6753 38.9564C58.3708 38.9971 58.1119 39.119 57.919 39.3628C57.7414 39.5863 57.6602 39.8504 57.7262 40.1298C57.7769 40.3482 57.8581 40.5564 57.9393 40.7647C58.2693 41.5977 58.5839 42.4358 58.8073 43.3044C58.9748 43.9444 59.1118 44.5894 59.193 45.2447C59.2336 45.5901 59.2742 45.9355 59.2996 46.286C59.325 46.5856 59.3351 46.8904 59.3351 47.1952C59.3351 47.5456 59.325 47.9012 59.3047 48.2517C59.2793 48.6072 59.2539 48.9679 59.2032 49.3183C59.1372 49.7704 59.0661 50.2174 58.9748 50.6593C58.787 51.5482 58.5078 52.4117 58.188 53.265C58.0409 53.651 57.9038 54.0421 57.7668 54.4333C57.7211 54.5602 57.6906 54.6974 57.7109 54.8294C57.782 55.3425 58.1474 55.7488 58.7514 55.7641C59.0052 55.7691 59.2184 55.6625 59.4113 55.5101C59.594 55.3628 59.7057 55.1647 59.8072 54.9615C60.1219 54.3215 60.3604 53.6561 60.5635 52.9806C60.934 51.7615 61.1878 50.5171 61.3147 49.2523C61.3502 48.912 61.3806 48.5666 61.4009 48.2212C61.4162 47.9367 61.4162 47.6523 61.4212 47.3679C61.4263 47.3679 61.4314 47.3679 61.4314 47.3679C61.4111 46.9158 61.3959 46.4637 61.3654 46.0167C61.3451 45.6866 61.3096 45.3564 61.2639 45.0263Z" fill="white"/>
<path d="M57.1981 46.7735C57.1828 46.4636 57.1625 46.1487 57.1371 45.8389C57.1118 45.5595 57.0762 45.2801 57.0306 45.0058C56.9443 44.4217 56.8174 43.8477 56.6499 43.2789C56.4316 42.5525 56.1626 41.8516 55.7921 41.1862C55.6703 40.9779 55.5129 40.8154 55.2845 40.7239C55.0714 40.6376 54.8531 40.6579 54.6399 40.7189C54.1578 40.8458 53.838 41.2522 53.8583 41.7347C53.8634 41.8668 53.904 41.9989 53.9496 42.1208C54.0867 42.4966 54.239 42.8725 54.3811 43.2484C54.8227 44.4166 55.0764 45.6204 55.1221 46.8649C55.1373 47.3627 55.1373 47.8604 55.0866 48.3582C55.046 48.729 55.0054 49.0998 54.9496 49.4655C54.843 50.1411 54.6602 50.7912 54.4115 51.4262C54.2643 51.8071 54.107 52.1779 53.9598 52.5589C53.909 52.7011 53.8735 52.8484 53.8583 53.0008C53.838 53.1887 53.9141 53.3614 54.0055 53.5239C54.3049 54.037 55.0054 54.1792 55.452 53.8846C55.6551 53.7525 55.7921 53.5646 55.9038 53.3563C56.2641 52.6909 56.5128 51.9798 56.7108 51.2535C56.8935 50.5881 57.0255 49.9176 57.1016 49.2319C57.1371 48.8712 57.1727 48.5157 57.1981 48.155C57.2133 47.896 57.2082 47.6319 57.2184 47.3728C57.2133 47.3728 57.2082 47.3728 57.2031 47.3728C57.2031 47.1747 57.2082 46.9766 57.1981 46.7735Z" fill="white"/>
<path fill-rule="evenodd" clip-rule="evenodd" d="M68.9128 47.3067C68.9128 56.6578 61.3095 64.2667 51.9652 64.2667C42.6209 64.2667 35.0176 56.6578 35.0176 47.3067C35.0176 37.9556 42.6209 30.3467 51.9652 30.3467C61.3095 30.3467 68.9128 37.9556 68.9128 47.3067ZM67.1008 47.3067C67.1008 38.9511 60.3096 32.1549 51.9652 32.1549C43.6157 32.1549 36.8245 38.9511 36.8245 47.3067C36.8245 55.6572 43.6157 62.4533 51.9652 62.4533C60.3096 62.4533 67.1008 55.6572 67.1008 47.3067Z" fill="white"/>
</g>
</g>
<defs>
<filter id="filter0_d" x="0" y="0" width="379" height="234" filterUnits="userSpaceOnUse" color-interpolation-filters="sRGB">
<feFlood flood-opacity="0" result="BackgroundImageFix"/>
<feColorMatrix in="SourceAlpha" type="matrix" values="0 0 0 0 0 0 0 0 0 0 0 0 0 0 0 0 0 0 127 0"/>
<feOffset/>
<feGaussianBlur stdDeviation="2.5"/>
<feColorMatrix type="matrix" values="0 0 0 0 0 0 0 0 0 0 0 0 0 0 0 0 0 0 0.6 0"/>
<feBlend mode="normal" in2="BackgroundImageFix" result="effect1_dropShadow"/>
<feBlend mode="normal" in="SourceGraphic" in2="effect1_dropShadow" result="shape"/>
</filter>
<linearGradient id="paint0_linear" x1="-113.427" y1="117.47" x2="126.269" y2="-122.052" gradientUnits="userSpaceOnUse">
<stop stop-color="white"/>
<stop offset="0.285" stop-color="white" stop-opacity="0.82"/>
<stop offset="0.999" stop-color="white" stop-opacity="0"/>
</linearGradient>
<clipPath id="clip0">
<rect x="5" y="5" width="369" height="224" rx="16" fill="white"/>
</clipPath>
</defs>
</svg>
