<svg width="379" height="234" viewBox="0 0 379 234" fill="none" xmlns="http://www.w3.org/2000/svg">
<g filter="url(#filter0_d)">
<g clip-path="url(#clip0)">
<path d="M374.807 236.244H5.22339V2.93848H374.807V236.244Z" fill="#D04E54"/>
<path style="mix-blend-mode:screen" opacity="0.2" d="M251.255 3.02441H5.23853V236.223H117.842L251.255 3.02441Z" fill="url(#paint0_linear)"/>
<g opacity="0.2">
<path opacity="0.2" fill-rule="evenodd" clip-rule="evenodd" d="M247.824 66.4455C248.565 66.0798 249.306 65.8969 249.86 65.8969C250.966 65.902 251.702 66.6487 252.621 67.5731L263.067 82.3998C264.351 83.8829 263.787 85.9096 262.122 86.829C252.499 92.5077 241.226 96.1445 227.014 96.0785C200.996 95.9515 179.323 74.0544 179.45 47.8296C179.567 23.2709 198.134 -0.0992799 225.075 0.0327836C254.788 0.175006 271.096 24.6321 270.954 54.3667C270.944 56.3985 270.015 58.0544 267.244 58.0391L208.376 57.7598C210.742 64.6017 217.908 70.7325 228.06 70.7833C235.993 70.8188 241.353 69.3661 247.824 66.4455ZM241.693 36.6804C239.521 28.7261 234.008 23.1591 224.964 23.1185C216.294 23.0779 210.544 29.1426 208.478 36.5179L241.693 36.6804Z" fill="white"/>
<path opacity="0.2" fill-rule="evenodd" clip-rule="evenodd" d="M348.084 94.8137C345.688 94.7985 344.582 93.6861 344.597 91.2887L344.632 83.8982C338.511 90.5166 330.542 96.5763 318.549 96.5153C294.373 96.4036 278.608 74.5318 278.735 48.3071C278.857 22.0823 294.835 0.368019 319.01 0.484844C331.004 0.540717 338.542 6.48865 344.967 13.3509L345.003 5.96548C345.018 3.56294 346.13 2.46072 348.525 2.47088L371.965 2.58262C374.178 2.59786 375.279 3.71024 375.269 6.1077L374.863 91.4309C374.848 93.8334 373.736 94.9356 371.523 94.9255L348.084 94.8137ZM327.177 67.7458C337.511 67.7966 345.485 59.5274 345.536 48.6271C345.592 37.7318 337.694 29.3864 327.36 29.3356C317.026 29.2848 309.235 37.3712 309.184 48.4544C309.128 59.5375 316.843 67.7001 327.177 67.7458Z" fill="white"/>
<path opacity="0.2" d="M230.455 195.903C236.282 195.933 239.739 194.867 239.754 190.768C239.81 179.329 190.84 182.118 191.012 145.643C191.109 126.432 208.858 112.921 231.288 113.028C246.814 113.104 259.94 119.423 267.025 126.366C268.523 128.317 268.518 130.039 266.569 131.974L252.692 146.801C251.611 147.872 250.743 148.304 249.667 148.294C248.804 148.294 247.941 148.071 246.652 147.202C242.566 144.81 238.049 142.199 231.364 142.163C227.263 142.148 223.38 142.559 223.365 145.795C223.319 155.075 272.284 154.018 272.106 190.925C272.02 209.267 256.199 225.378 229.669 225.251C213.279 225.175 199.073 218.846 188.779 207.575C186.845 205.188 187.505 202.821 189.454 200.886L202.463 186.918C203.544 185.846 204.625 185.419 205.706 185.424C206.783 185.429 208.077 185.866 209.148 186.953C216.67 192.815 222.908 195.867 230.455 195.903Z" fill="white"/>
<path opacity="0.2" d="M373.122 195.604C372.98 224.475 353.479 245.173 324.629 245.036C310.717 244.97 297.698 238.89 290.693 230.778C289.496 229.569 289.333 228.198 290.541 226.654L301.774 211.756C302.469 210.73 303.159 210.217 304.017 210.222C304.53 210.222 305.215 210.572 305.728 211.091C309.829 215.403 316.513 218.186 324.071 218.222C339.866 218.298 344.896 207.84 344.942 198.387L344.983 189.971C341.348 195.964 329.989 201.237 319.513 201.186C299.078 201.089 287.465 187.456 287.587 162.71L287.8 118.377C287.81 116.142 288.846 115.116 290.907 115.126L312.717 115.228C314.945 115.238 315.97 116.274 315.96 118.509L315.777 157.178C315.732 166.798 320.158 174.382 329.949 174.428C339.562 174.473 345.089 167.626 345.13 159.55L345.328 118.651C345.338 116.416 346.373 115.39 348.607 115.4L370.412 115.507C372.472 115.517 373.498 116.553 373.487 118.788L373.122 195.604Z" fill="white"/>
</g>
<path fill-rule="evenodd" clip-rule="evenodd" d="M129.643 137.11C129.882 136.993 130.12 136.932 130.298 136.937C130.648 136.937 130.887 137.176 131.181 137.47L134.526 142.225C134.942 142.697 134.759 143.347 134.226 143.642C131.14 145.46 127.526 146.629 122.974 146.603C114.639 146.568 107.691 139.548 107.731 131.147C107.772 123.274 113.721 115.787 122.354 115.827C131.876 115.873 137.099 123.71 137.053 133.239C137.053 133.89 136.754 134.423 135.866 134.418L117.005 134.326C117.761 136.521 120.055 138.486 123.309 138.502C125.851 138.512 127.572 138.044 129.643 137.11ZM127.679 127.571C126.983 125.026 125.217 123.238 122.319 123.228C119.537 123.213 117.695 125.158 117.035 127.52L127.679 127.571Z" fill="white"/>
<path fill-rule="evenodd" clip-rule="evenodd" d="M161.772 146.202C161 146.197 160.65 145.841 160.65 145.069L160.665 142.702C158.701 144.826 156.148 146.766 152.306 146.746C144.56 146.71 139.505 139.7 139.546 131.299C139.586 122.893 144.708 115.939 152.453 115.975C156.295 115.99 158.711 117.9 160.772 120.099L160.782 117.732C160.787 116.96 161.143 116.61 161.914 116.61L169.421 116.645C170.132 116.65 170.487 117.006 170.482 117.778L170.35 145.115C170.345 145.887 169.989 146.238 169.279 146.238L161.772 146.202ZM155.072 137.526C158.381 137.542 160.94 134.895 160.955 131.401C160.97 127.911 158.442 125.234 155.128 125.219C151.819 125.204 149.321 127.794 149.306 131.345C149.286 134.895 151.758 137.511 155.072 137.526Z" fill="white"/>
<path d="M186.582 138.862C188.18 138.872 189.13 138.577 189.135 137.455C189.15 134.316 175.72 135.083 175.77 125.082C175.796 119.814 180.658 116.111 186.81 116.137C191.068 116.157 194.667 117.894 196.611 119.794C197.022 120.332 197.017 120.805 196.484 121.333L192.677 125.397C192.383 125.691 192.145 125.808 191.85 125.808C191.612 125.808 191.378 125.747 191.023 125.508C189.901 124.853 188.663 124.137 186.83 124.127C185.709 124.122 184.643 124.233 184.638 125.122C184.627 127.667 198.053 127.377 198.002 137.496C197.976 142.529 193.642 146.943 186.368 146.908C181.871 146.887 177.978 145.155 175.156 142.062C174.623 141.407 174.806 140.757 175.339 140.228L178.907 136.398C179.207 136.104 179.501 135.987 179.795 135.987C180.09 135.992 180.445 136.109 180.74 136.409C182.8 138.014 184.516 138.852 186.582 138.862Z" fill="white"/>
<path d="M231.796 144.526C231.745 154.466 225.03 161.592 215.097 161.547C210.305 161.526 205.824 159.433 203.413 156.64C202.996 156.223 202.941 155.746 203.357 155.218L207.224 150.087C207.463 149.732 207.702 149.559 207.996 149.559C208.174 149.559 208.412 149.681 208.59 149.859C210.001 151.342 212.3 152.302 214.904 152.312C220.345 152.338 222.076 148.736 222.091 145.486L222.106 142.585C220.853 144.647 216.944 146.466 213.335 146.446C206.296 146.415 202.301 141.722 202.342 133.199L202.413 117.93C202.418 117.158 202.773 116.807 203.484 116.813L210.996 116.848C211.762 116.848 212.117 117.209 212.112 117.976L212.046 131.294C212.031 134.606 213.559 137.216 216.929 137.232C220.238 137.247 222.142 134.89 222.157 132.112L222.223 118.027C222.228 117.254 222.583 116.904 223.355 116.904L230.862 116.94C231.572 116.945 231.928 117.3 231.923 118.072L231.796 144.526Z" fill="white"/>
<path d="M256.113 127.262C255.184 126.774 254.458 126.109 253.936 125.255C253.413 124.407 253.154 123.442 253.159 122.365C253.164 121.288 253.433 120.328 253.961 119.48C254.494 118.637 255.225 117.972 256.164 117.494C257.098 117.017 258.143 116.783 259.29 116.788C260.356 116.793 261.285 116.961 262.082 117.301C262.879 117.641 263.554 118.175 264.107 118.906L261.798 120.923C261.118 120.075 260.321 119.653 259.407 119.648C258.641 119.643 258.006 119.892 257.509 120.389C257.017 120.887 256.763 121.553 256.758 122.381C256.758 123.214 257.001 123.879 257.494 124.382C257.986 124.885 258.615 125.139 259.382 125.144C260.295 125.149 261.097 124.732 261.783 123.894L264.072 125.911C263.513 126.647 262.833 127.186 262.041 127.516C261.25 127.846 260.316 128.008 259.24 128.003C258.087 127.998 257.047 127.749 256.113 127.262Z" fill="white"/>
<path fill-rule="evenodd" clip-rule="evenodd" d="M277.751 125.956L273.147 125.936L272.36 127.825L268.924 127.81L273.746 117.098L277.274 117.113L281.989 127.871L278.502 127.856L277.751 125.956ZM276.761 123.462L275.492 120.227L274.162 123.452L276.761 123.462Z" fill="white"/>
<path fill-rule="evenodd" clip-rule="evenodd" d="M258.392 141.834L257.296 141.829L257.286 144.541L253.702 144.526L253.753 133.788L258.95 133.813C259.95 133.819 260.828 133.986 261.574 134.321C262.321 134.652 262.894 135.124 263.295 135.728C263.691 136.338 263.889 137.049 263.884 137.867C263.884 138.639 263.701 139.309 263.336 139.888C262.975 140.473 262.463 140.925 261.793 141.255L264.097 144.572L260.255 144.556L258.392 141.834ZM259.889 136.866C259.615 136.627 259.209 136.511 258.676 136.506L257.321 136.5L257.311 139.193L258.666 139.198C259.194 139.203 259.6 139.081 259.884 138.842C260.163 138.603 260.3 138.273 260.306 137.852C260.306 137.43 260.169 137.1 259.889 136.866Z" fill="white"/>
<path fill-rule="evenodd" clip-rule="evenodd" d="M270.863 133.875L276.172 133.9C277.395 133.905 278.471 134.124 279.405 134.566C280.339 135.003 281.06 135.622 281.568 136.43C282.075 137.238 282.329 138.192 282.324 139.295C282.319 140.387 282.06 141.332 281.542 142.144C281.024 142.952 280.299 143.566 279.36 143.998C278.426 144.425 277.345 144.638 276.121 144.633L270.812 144.608L270.863 133.875ZM276.005 141.9C276.832 141.905 277.487 141.682 277.974 141.225C278.456 140.768 278.7 140.118 278.705 139.279C278.71 138.421 278.471 137.771 277.989 137.314C277.512 136.862 276.857 136.633 276.03 136.628L274.431 136.618L274.406 141.895L276.005 141.9Z" fill="white"/>
<path d="M243.866 116.519C243.86 116.519 243.86 116.519 243.86 116.519C243.475 116.519 243.165 116.823 243.16 117.199L243.028 144.135C243.028 144.516 243.338 144.821 243.723 144.821H243.729C244.114 144.821 244.424 144.521 244.424 144.145L244.561 117.204C244.561 116.828 244.251 116.519 243.866 116.519Z" fill="white"/>
<path d="M52.3663 45.5596C52.2445 44.9196 52.0516 44.305 51.7572 43.7209C51.5948 43.3907 51.4019 43.0809 51.1329 42.8218C50.8994 42.5983 50.6304 42.446 50.2853 42.5018C50.1025 42.5323 49.9401 42.5983 49.8234 42.7507C49.6051 43.0402 49.5645 43.3755 49.6203 43.7209C49.6508 43.9342 49.7269 44.1374 49.7929 44.3456C49.9401 44.8028 50.1076 45.2599 50.2497 45.7221C50.3868 46.1691 50.468 46.6314 50.468 47.1037C50.468 47.3577 50.4528 47.6117 50.4325 47.8656C50.4071 48.1399 50.3512 48.4041 50.2599 48.6631C50.2294 48.7444 50.1888 48.8155 50.1533 48.8917C50.1279 48.9425 50.0822 48.9577 50.0264 48.9323C49.9807 48.9069 49.9249 48.8917 49.8843 48.8561C49.7269 48.7444 49.5747 48.6275 49.4224 48.5107C47.9505 47.3577 46.4734 46.2098 45.0015 45.0568C44.4686 44.6402 43.9356 44.2237 43.4077 43.8021C43.2555 43.6752 43.0829 43.6548 42.9002 43.6853C42.7175 43.7158 42.5804 43.8326 42.4637 43.9698C42.286 44.1831 42.1744 44.4371 42.0881 44.7012C41.9206 45.1939 41.8546 45.7069 41.814 46.2199C41.7886 46.5501 41.7835 46.8752 41.7683 47.2053C41.7734 47.2053 41.7785 47.2053 41.7835 47.2053C41.7835 47.2866 41.7835 47.3628 41.7835 47.4441C41.7886 47.9266 41.8191 48.4041 41.9003 48.8815C41.9663 49.3082 42.0678 49.7247 42.2454 50.1158C42.3774 50.4053 42.5398 50.6745 42.7834 50.8777C42.9865 51.0453 43.2149 51.1368 43.4839 51.0961C43.7377 51.0555 43.9102 50.9082 44.0219 50.6796C44.1336 50.4561 44.1691 50.2174 44.1691 49.9736C44.1691 49.7856 44.1488 49.5977 44.1183 49.4148C44.0422 48.9577 43.9508 48.5006 43.8696 48.0383C43.824 47.8199 43.7986 47.5964 43.8341 47.3729C43.8696 47.1799 43.9864 47.1088 44.164 47.1901C44.2706 47.2409 44.3721 47.3018 44.4635 47.3679C44.7223 47.5609 44.9761 47.759 45.235 47.9571C46.2197 48.7037 47.2043 49.4555 48.1839 50.2021C48.8184 50.6847 49.4529 51.1621 50.0822 51.6447C50.3512 51.8479 50.6609 51.9037 50.9857 51.8783C51.209 51.858 51.3664 51.7107 51.4983 51.5431C51.7217 51.2739 51.8638 50.9641 51.9856 50.639C52.1734 50.1412 52.3003 49.618 52.3967 49.0898C52.4779 48.6326 52.5338 48.1704 52.5541 47.7082C52.5693 47.3425 52.5693 46.9818 52.5236 46.6161C52.4779 46.2656 52.4323 45.9101 52.3663 45.5596Z" fill="white"/>
<path d="M61.2639 45.0263C61.203 44.5742 61.137 44.1221 61.0507 43.6752C60.8578 42.6898 60.5939 41.7298 60.2437 40.7901C60.0762 40.3431 59.8884 39.9012 59.6549 39.4847C59.4417 39.0987 59.1321 38.8904 58.6753 38.9564C58.3708 38.9971 58.1119 39.119 57.919 39.3628C57.7414 39.5863 57.6602 39.8504 57.7262 40.1298C57.7769 40.3482 57.8581 40.5564 57.9393 40.7647C58.2693 41.5977 58.5839 42.4358 58.8073 43.3044C58.9748 43.9444 59.1118 44.5894 59.193 45.2447C59.2336 45.5901 59.2742 45.9355 59.2996 46.286C59.325 46.5856 59.3351 46.8904 59.3351 47.1952C59.3351 47.5456 59.325 47.9012 59.3047 48.2517C59.2793 48.6072 59.2539 48.9679 59.2032 49.3183C59.1372 49.7704 59.0661 50.2174 58.9748 50.6593C58.787 51.5482 58.5078 52.4117 58.188 53.265C58.0409 53.651 57.9038 54.0421 57.7668 54.4333C57.7211 54.5602 57.6906 54.6974 57.7109 54.8294C57.782 55.3425 58.1474 55.7488 58.7514 55.7641C59.0052 55.7691 59.2184 55.6625 59.4113 55.5101C59.594 55.3628 59.7057 55.1647 59.8072 54.9615C60.1219 54.3215 60.3604 53.6561 60.5635 52.9806C60.934 51.7615 61.1878 50.5171 61.3147 49.2523C61.3502 48.912 61.3806 48.5666 61.4009 48.2212C61.4162 47.9367 61.4162 47.6523 61.4212 47.3679C61.4263 47.3679 61.4314 47.3679 61.4314 47.3679C61.4111 46.9158 61.3959 46.4637 61.3654 46.0167C61.3451 45.6866 61.3096 45.3564 61.2639 45.0263Z" fill="white"/>
<path d="M57.1981 46.7735C57.1828 46.4636 57.1625 46.1487 57.1371 45.8389C57.1118 45.5595 57.0762 45.2801 57.0306 45.0058C56.9443 44.4217 56.8174 43.8477 56.6499 43.2789C56.4316 42.5525 56.1626 41.8516 55.7921 41.1862C55.6703 40.9779 55.5129 40.8154 55.2845 40.7239C55.0714 40.6376 54.8531 40.6579 54.6399 40.7189C54.1578 40.8458 53.838 41.2522 53.8583 41.7347C53.8634 41.8668 53.904 41.9989 53.9496 42.1208C54.0867 42.4966 54.239 42.8725 54.3811 43.2484C54.8227 44.4166 55.0764 45.6204 55.1221 46.8649C55.1373 47.3627 55.1373 47.8604 55.0866 48.3582C55.046 48.729 55.0054 49.0998 54.9496 49.4655C54.843 50.1411 54.6602 50.7912 54.4115 51.4262C54.2643 51.8071 54.107 52.1779 53.9598 52.5589C53.909 52.7011 53.8735 52.8484 53.8583 53.0008C53.838 53.1887 53.9141 53.3614 54.0055 53.5239C54.3049 54.037 55.0054 54.1792 55.452 53.8846C55.6551 53.7525 55.7921 53.5646 55.9038 53.3563C56.2641 52.6909 56.5128 51.9798 56.7108 51.2535C56.8935 50.5881 57.0255 49.9176 57.1016 49.2319C57.1371 48.8712 57.1727 48.5157 57.1981 48.155C57.2133 47.896 57.2082 47.6319 57.2184 47.3728C57.2133 47.3728 57.2082 47.3728 57.2031 47.3728C57.2031 47.1747 57.2082 46.9766 57.1981 46.7735Z" fill="white"/>
<path fill-rule="evenodd" clip-rule="evenodd" d="M68.9128 47.3067C68.9128 56.6578 61.3095 64.2667 51.9652 64.2667C42.6209 64.2667 35.0176 56.6578 35.0176 47.3067C35.0176 37.9556 42.6209 30.3467 51.9652 30.3467C61.3095 30.3467 68.9128 37.9556 68.9128 47.3067ZM67.1008 47.3067C67.1008 38.9511 60.3096 32.1549 51.9652 32.1549C43.6157 32.1549 36.8245 38.9511 36.8245 47.3067C36.8245 55.6572 43.6157 62.4533 51.9652 62.4533C60.3096 62.4533 67.1008 55.6572 67.1008 47.3067Z" fill="white"/>
<path d="M104.364 209C104.244 209 104.142 208.958 104.058 208.874C103.974 208.79 103.932 208.688 103.932 208.568V196.85C103.932 196.718 103.968 196.61 104.04 196.526C104.124 196.442 104.232 196.4 104.364 196.4H113.796C113.928 196.4 114.036 196.442 114.12 196.526C114.204 196.61 114.246 196.718 114.246 196.85V208.568C114.246 208.7 114.204 208.808 114.12 208.892C114.036 208.964 113.928 209 113.796 209H112.176C112.056 209 111.954 208.958 111.87 208.874C111.786 208.79 111.744 208.688 111.744 208.568V198.65H106.434V208.568C106.434 208.688 106.392 208.79 106.308 208.874C106.236 208.958 106.134 209 106.002 209H104.364ZM121.33 209.18C119.926 209.18 118.84 208.82 118.072 208.1C117.304 207.368 116.89 206.372 116.83 205.112L116.812 204.32L116.83 203.528C116.89 202.28 117.31 201.29 118.09 200.558C118.87 199.826 119.95 199.46 121.33 199.46C122.71 199.46 123.79 199.826 124.57 200.558C125.35 201.29 125.77 202.28 125.83 203.528C125.842 203.672 125.848 203.936 125.848 204.32C125.848 204.704 125.842 204.968 125.83 205.112C125.77 206.372 125.356 207.368 124.588 208.1C123.82 208.82 122.734 209.18 121.33 209.18ZM121.33 207.398C121.966 207.398 122.458 207.2 122.806 206.804C123.154 206.396 123.346 205.802 123.382 205.022C123.394 204.902 123.4 204.668 123.4 204.32C123.4 203.972 123.394 203.738 123.382 203.618C123.346 202.838 123.154 202.25 122.806 201.854C122.458 201.446 121.966 201.242 121.33 201.242C120.694 201.242 120.202 201.446 119.854 201.854C119.506 202.25 119.314 202.838 119.278 203.618L119.26 204.32L119.278 205.022C119.314 205.802 119.506 206.396 119.854 206.804C120.202 207.2 120.694 207.398 121.33 207.398ZM132.252 209.18C130.932 209.18 129.876 208.814 129.084 208.082C128.304 207.35 127.89 206.336 127.842 205.04L127.824 204.32L127.842 203.6C127.89 202.304 128.304 201.29 129.084 200.558C129.876 199.826 130.932 199.46 132.252 199.46C133.188 199.46 133.98 199.628 134.628 199.964C135.288 200.3 135.774 200.714 136.086 201.206C136.41 201.686 136.584 202.142 136.608 202.574C136.62 202.694 136.578 202.796 136.482 202.88C136.398 202.964 136.296 203.006 136.176 203.006H134.592C134.472 203.006 134.376 202.982 134.304 202.934C134.244 202.874 134.184 202.778 134.124 202.646C133.944 202.178 133.704 201.842 133.404 201.638C133.116 201.434 132.744 201.332 132.288 201.332C131.676 201.332 131.196 201.53 130.848 201.926C130.5 202.31 130.314 202.898 130.29 203.69L130.272 204.356L130.29 204.95C130.338 206.522 131.004 207.308 132.288 207.308C132.756 207.308 133.134 207.206 133.422 207.002C133.71 206.798 133.944 206.462 134.124 205.994C134.184 205.862 134.244 205.772 134.304 205.724C134.376 205.664 134.472 205.634 134.592 205.634H136.176C136.296 205.634 136.398 205.676 136.482 205.76C136.578 205.844 136.62 205.946 136.608 206.066C136.584 206.486 136.416 206.936 136.104 207.416C135.792 207.896 135.312 208.31 134.664 208.658C134.016 209.006 133.212 209.18 132.252 209.18ZM148.691 199.64C148.787 199.64 148.871 199.676 148.943 199.748C149.027 199.82 149.069 199.898 149.069 199.982V208.622C149.069 208.73 149.033 208.82 148.961 208.892C148.889 208.964 148.793 209 148.673 209H147.125C147.005 209 146.909 208.964 146.837 208.892C146.777 208.82 146.747 208.73 146.747 208.622V203.582L144.821 207.128C144.737 207.272 144.653 207.38 144.569 207.452C144.497 207.524 144.389 207.56 144.245 207.56H143.651C143.519 207.56 143.411 207.524 143.327 207.452C143.243 207.38 143.165 207.272 143.093 207.128L141.167 203.654V208.622C141.167 208.73 141.131 208.82 141.059 208.892C140.987 208.964 140.897 209 140.789 209H139.241C139.121 209 139.025 208.964 138.953 208.892C138.881 208.82 138.845 208.73 138.845 208.622V199.982C138.845 199.898 138.881 199.82 138.953 199.748C139.025 199.676 139.109 199.64 139.205 199.64H140.717C140.921 199.64 141.077 199.742 141.185 199.946L143.957 204.986L146.729 199.946C146.837 199.742 146.993 199.64 147.197 199.64H148.691ZM156.001 209.18C154.597 209.18 153.511 208.82 152.743 208.1C151.975 207.368 151.561 206.372 151.501 205.112L151.483 204.32L151.501 203.528C151.561 202.28 151.981 201.29 152.761 200.558C153.541 199.826 154.621 199.46 156.001 199.46C157.381 199.46 158.461 199.826 159.241 200.558C160.021 201.29 160.441 202.28 160.501 203.528C160.513 203.672 160.519 203.936 160.519 204.32C160.519 204.704 160.513 204.968 160.501 205.112C160.441 206.372 160.027 207.368 159.259 208.1C158.491 208.82 157.405 209.18 156.001 209.18ZM156.001 207.398C156.637 207.398 157.129 207.2 157.477 206.804C157.825 206.396 158.017 205.802 158.053 205.022C158.065 204.902 158.071 204.668 158.071 204.32C158.071 203.972 158.065 203.738 158.053 203.618C158.017 202.838 157.825 202.25 157.477 201.854C157.129 201.446 156.637 201.242 156.001 201.242C155.365 201.242 154.873 201.446 154.525 201.854C154.177 202.25 153.985 202.838 153.949 203.618L153.931 204.32L153.949 205.022C153.985 205.802 154.177 206.396 154.525 206.804C154.873 207.2 155.365 207.398 156.001 207.398ZM165.736 209C165.616 209 165.514 208.958 165.43 208.874C165.346 208.79 165.304 208.688 165.304 208.568V201.548H162.37C162.25 201.548 162.148 201.506 162.064 201.422C161.98 201.338 161.938 201.23 161.938 201.098V200.072C161.938 199.94 161.98 199.838 162.064 199.766C162.148 199.682 162.25 199.64 162.37 199.64H170.542C170.674 199.64 170.782 199.682 170.866 199.766C170.95 199.85 170.992 199.952 170.992 200.072V201.098C170.992 201.218 170.95 201.326 170.866 201.422C170.782 201.506 170.674 201.548 170.542 201.548H167.626V208.568C167.626 208.688 167.584 208.79 167.5 208.874C167.428 208.958 167.326 209 167.194 209H165.736ZM173.229 212.42C173.109 212.42 173.007 212.378 172.923 212.294C172.839 212.222 172.797 212.12 172.797 211.988V200.072C172.797 199.94 172.839 199.838 172.923 199.766C173.007 199.682 173.109 199.64 173.229 199.64H174.651C174.783 199.64 174.885 199.682 174.957 199.766C175.041 199.838 175.083 199.94 175.083 200.072V200.792C175.755 199.904 176.715 199.46 177.963 199.46C179.175 199.46 180.105 199.844 180.753 200.612C181.401 201.368 181.749 202.394 181.797 203.69C181.809 203.834 181.815 204.044 181.815 204.32C181.815 204.608 181.809 204.824 181.797 204.968C181.749 206.228 181.401 207.248 180.753 208.028C180.105 208.796 179.175 209.18 177.963 209.18C176.751 209.18 175.827 208.754 175.191 207.902V211.988C175.191 212.12 175.149 212.222 175.065 212.294C174.993 212.378 174.891 212.42 174.759 212.42H173.229ZM177.297 207.254C178.593 207.254 179.283 206.456 179.367 204.86C179.379 204.74 179.385 204.56 179.385 204.32C179.385 204.08 179.379 203.9 179.367 203.78C179.283 202.184 178.593 201.386 177.297 201.386C176.601 201.386 176.085 201.608 175.749 202.052C175.413 202.496 175.227 203.042 175.191 203.69L175.173 204.374L175.191 205.076C175.215 205.676 175.401 206.192 175.749 206.624C176.109 207.044 176.625 207.254 177.297 207.254ZM188.227 209.18C186.895 209.18 185.833 208.796 185.041 208.028C184.261 207.248 183.847 206.156 183.799 204.752L183.781 204.302L183.799 203.852C183.859 202.484 184.279 201.41 185.059 200.63C185.851 199.85 186.907 199.46 188.227 199.46C189.643 199.46 190.735 199.892 191.503 200.756C192.283 201.62 192.673 202.772 192.673 204.212V204.59C192.673 204.71 192.631 204.812 192.547 204.896C192.463 204.98 192.355 205.022 192.223 205.022H186.247V205.166C186.271 205.826 186.451 206.384 186.787 206.84C187.135 207.284 187.609 207.506 188.209 207.506C188.917 207.506 189.487 207.23 189.919 206.678C190.027 206.546 190.111 206.462 190.171 206.426C190.243 206.39 190.345 206.372 190.477 206.372H192.025C192.133 206.372 192.223 206.408 192.295 206.48C192.379 206.54 192.421 206.618 192.421 206.714C192.421 207.002 192.247 207.344 191.899 207.74C191.563 208.124 191.077 208.46 190.441 208.748C189.805 209.036 189.067 209.18 188.227 209.18ZM190.225 203.51V203.456C190.225 202.748 190.045 202.178 189.685 201.746C189.337 201.314 188.851 201.098 188.227 201.098C187.603 201.098 187.117 201.314 186.769 201.746C186.421 202.178 186.247 202.748 186.247 203.456V203.51H190.225ZM197.806 209C197.686 209 197.584 208.958 197.5 208.874C197.416 208.79 197.374 208.688 197.374 208.568V201.548H194.44C194.32 201.548 194.218 201.506 194.134 201.422C194.05 201.338 194.008 201.23 194.008 201.098V200.072C194.008 199.94 194.05 199.838 194.134 199.766C194.218 199.682 194.32 199.64 194.44 199.64H202.612C202.744 199.64 202.852 199.682 202.936 199.766C203.02 199.85 203.062 199.952 203.062 200.072V201.098C203.062 201.218 203.02 201.326 202.936 201.422C202.852 201.506 202.744 201.548 202.612 201.548H199.696V208.568C199.696 208.688 199.654 208.79 199.57 208.874C199.498 208.958 199.396 209 199.264 209H197.806ZM205.281 209C205.161 209 205.059 208.958 204.975 208.874C204.891 208.79 204.849 208.688 204.849 208.568V200.072C204.849 199.952 204.891 199.85 204.975 199.766C205.059 199.682 205.161 199.64 205.281 199.64H206.793C206.913 199.64 207.015 199.682 207.099 199.766C207.183 199.85 207.225 199.952 207.225 200.072V202.61H209.079C210.279 202.61 211.191 202.898 211.815 203.474C212.439 204.038 212.751 204.83 212.751 205.85C212.751 206.894 212.427 207.68 211.779 208.208C211.131 208.736 210.183 209 208.935 209H205.281ZM208.881 207.29C209.481 207.29 209.919 207.182 210.195 206.966C210.471 206.738 210.609 206.366 210.609 205.85C210.609 205.334 210.471 204.95 210.195 204.698C209.919 204.446 209.481 204.32 208.881 204.32H207.189V207.29H208.881ZM219.659 209C219.539 209 219.437 208.958 219.353 208.874C219.269 208.79 219.227 208.688 219.227 208.568V200.072C219.227 199.952 219.269 199.85 219.353 199.766C219.437 199.682 219.539 199.64 219.659 199.64H223.655C224.891 199.64 225.821 199.868 226.445 200.324C227.081 200.78 227.399 201.416 227.399 202.232C227.399 202.712 227.309 203.096 227.129 203.384C226.949 203.66 226.679 203.906 226.319 204.122C226.739 204.314 227.063 204.602 227.291 204.986C227.531 205.37 227.651 205.802 227.651 206.282C227.651 207.158 227.327 207.83 226.679 208.298C226.031 208.766 225.089 209 223.853 209H219.659ZM223.619 203.456C224.099 203.456 224.477 203.36 224.753 203.168C225.029 202.964 225.167 202.67 225.167 202.286C225.167 201.914 225.035 201.65 224.771 201.494C224.507 201.338 224.123 201.26 223.619 201.26H221.531V203.456H223.619ZM223.691 207.38C224.183 207.38 224.567 207.29 224.843 207.11C225.131 206.918 225.275 206.636 225.275 206.264C225.275 205.868 225.143 205.58 224.879 205.4C224.627 205.22 224.231 205.13 223.691 205.13H221.531V207.38H223.691ZM238.613 199.64C238.721 199.64 238.817 199.682 238.901 199.766C238.985 199.838 239.027 199.928 239.027 200.036V208.568C239.027 208.688 238.985 208.79 238.901 208.874C238.817 208.958 238.715 209 238.595 209H237.101C236.981 209 236.879 208.958 236.795 208.874C236.711 208.79 236.669 208.688 236.669 208.568V202.79L232.349 208.712C232.241 208.904 232.079 209 231.863 209H230.495C230.387 209 230.291 208.964 230.207 208.892C230.123 208.808 230.081 208.706 230.081 208.586V200.072C230.081 199.952 230.123 199.85 230.207 199.766C230.291 199.682 230.393 199.64 230.513 199.64H232.007C232.139 199.64 232.241 199.682 232.313 199.766C232.397 199.838 232.439 199.94 232.439 200.072V205.868L236.759 199.928C236.891 199.736 237.053 199.64 237.245 199.64H238.613ZM245.256 209.18C244.296 209.18 243.516 209.042 242.916 208.766C242.328 208.478 241.896 208.13 241.62 207.722C241.356 207.314 241.212 206.912 241.188 206.516V206.462C241.188 206.378 241.218 206.312 241.278 206.264C241.35 206.204 241.428 206.174 241.512 206.174H242.988C243.108 206.174 243.198 206.198 243.258 206.246C243.33 206.294 243.39 206.372 243.438 206.48C243.558 206.828 243.774 207.08 244.086 207.236C244.41 207.38 244.83 207.452 245.346 207.452C245.874 207.452 246.294 207.35 246.606 207.146C246.918 206.942 247.074 206.63 247.074 206.21C247.074 205.394 246.588 204.986 245.616 204.986H244.626C244.506 204.986 244.41 204.95 244.338 204.878C244.266 204.806 244.23 204.71 244.23 204.59V203.834C244.23 203.726 244.266 203.636 244.338 203.564C244.41 203.48 244.506 203.438 244.626 203.438H245.544C245.976 203.438 246.3 203.36 246.516 203.204C246.732 203.036 246.84 202.778 246.84 202.43C246.84 202.082 246.714 201.794 246.462 201.566C246.21 201.326 245.802 201.206 245.238 201.206C244.698 201.206 244.308 201.29 244.068 201.458C243.828 201.626 243.642 201.902 243.51 202.286C243.45 202.394 243.384 202.472 243.312 202.52C243.252 202.568 243.162 202.592 243.042 202.592H241.62C241.524 202.592 241.44 202.562 241.368 202.502C241.296 202.43 241.266 202.346 241.278 202.25C241.302 201.77 241.452 201.32 241.728 200.9C242.016 200.48 242.454 200.138 243.042 199.874C243.63 199.598 244.368 199.46 245.256 199.46C246.576 199.46 247.548 199.718 248.172 200.234C248.808 200.75 249.126 201.374 249.126 202.106C249.126 202.574 249.036 202.964 248.856 203.276C248.688 203.588 248.4 203.846 247.992 204.05C248.952 204.422 249.432 205.208 249.432 206.408C249.432 207.272 249.048 207.95 248.28 208.442C247.524 208.934 246.516 209.18 245.256 209.18ZM260.181 199.64C260.289 199.64 260.385 199.682 260.469 199.766C260.553 199.838 260.595 199.928 260.595 200.036V208.568C260.595 208.688 260.553 208.79 260.469 208.874C260.385 208.958 260.283 209 260.163 209H258.669C258.549 209 258.447 208.958 258.363 208.874C258.279 208.79 258.237 208.688 258.237 208.568V202.79L253.917 208.712C253.809 208.904 253.647 209 253.431 209H252.063C251.955 209 251.859 208.964 251.775 208.892C251.691 208.808 251.649 208.706 251.649 208.586V200.072C251.649 199.952 251.691 199.85 251.775 199.766C251.859 199.682 251.961 199.64 252.081 199.64H253.575C253.707 199.64 253.809 199.682 253.881 199.766C253.965 199.838 254.007 199.94 254.007 200.072V205.868L258.327 199.928C258.459 199.736 258.621 199.64 258.813 199.64H260.181ZM266.086 209C265.966 209 265.864 208.958 265.78 208.874C265.696 208.79 265.654 208.688 265.654 208.568V201.548H262.72C262.6 201.548 262.498 201.506 262.414 201.422C262.33 201.338 262.288 201.23 262.288 201.098V200.072C262.288 199.94 262.33 199.838 262.414 199.766C262.498 199.682 262.6 199.64 262.72 199.64H270.892C271.024 199.64 271.132 199.682 271.216 199.766C271.3 199.85 271.342 199.952 271.342 200.072V201.098C271.342 201.218 271.3 201.326 271.216 201.422C271.132 201.506 271.024 201.548 270.892 201.548H267.976V208.568C267.976 208.688 267.934 208.79 267.85 208.874C267.778 208.958 267.676 209 267.544 209H266.086ZM281.751 208.442C281.811 208.502 281.841 208.58 281.841 208.676C281.841 208.772 281.805 208.85 281.733 208.91C281.661 208.97 281.571 209 281.463 209H279.645C279.453 209 279.285 208.91 279.141 208.73L276.801 205.202H275.469V208.568C275.469 208.688 275.427 208.79 275.343 208.874C275.259 208.958 275.157 209 275.037 209H273.561C273.441 209 273.339 208.958 273.255 208.874C273.171 208.79 273.129 208.688 273.129 208.568V200.072C273.129 199.952 273.171 199.85 273.255 199.766C273.339 199.682 273.441 199.64 273.561 199.64H275.037C275.157 199.64 275.259 199.682 275.343 199.766C275.427 199.85 275.469 199.952 275.469 200.072V203.294H276.801L278.961 199.928C279.033 199.832 279.105 199.76 279.177 199.712C279.249 199.664 279.345 199.64 279.465 199.64H281.067C281.187 199.64 281.283 199.67 281.355 199.73C281.427 199.79 281.463 199.868 281.463 199.964C281.463 200.036 281.433 200.114 281.373 200.198L278.799 204.158L281.751 208.442ZM292.07 199.64C292.166 199.64 292.25 199.676 292.322 199.748C292.406 199.82 292.448 199.904 292.448 200C292.448 200.084 292.424 200.18 292.376 200.288L288.956 208.46C288.584 209.348 288.248 210.056 287.948 210.584C287.648 211.112 287.276 211.55 286.832 211.898C286.388 212.246 285.854 212.42 285.23 212.42H284.438C284.318 212.42 284.216 212.378 284.132 212.294C284.048 212.222 284.006 212.12 284.006 211.988V210.962C284.006 210.842 284.048 210.74 284.132 210.656C284.216 210.572 284.318 210.53 284.438 210.53H284.996C285.356 210.53 285.626 210.428 285.806 210.224C285.986 210.02 286.202 209.612 286.454 209L286.652 208.514L283.106 200.288C283.058 200.18 283.034 200.096 283.034 200.036C283.046 199.928 283.088 199.838 283.16 199.766C283.232 199.682 283.322 199.64 283.43 199.64H284.87C285.086 199.64 285.242 199.754 285.338 199.982L287.732 205.904L290.198 199.982C290.282 199.754 290.45 199.64 290.702 199.64H292.07Z" fill="white"/>
<path d="M102.528 210.35H292.844V211.25H102.528V210.35Z" fill="white"/>
<path d="M65.9836 203C65.9836 203 69.5904 196 75.9021 196C82.2139 196 85.8206 203 85.8206 203C85.8206 203 82.2139 210 75.9021 210C69.5904 210 65.9836 203 65.9836 203Z" stroke="white" stroke-width="2" stroke-linecap="round" stroke-linejoin="round"/>
<path d="M75.9021 206C77.5455 206 78.8777 204.657 78.8777 203C78.8777 201.343 77.5455 200 75.9021 200C74.2588 200 72.9266 201.343 72.9266 203C72.9266 204.657 74.2588 206 75.9021 206Z" stroke="white" stroke-width="2" stroke-linecap="round" stroke-linejoin="round"/>
</g>
</g>
<defs>
<filter id="filter0_d" x="0" y="0" width="379" height="234" filterUnits="userSpaceOnUse" color-interpolation-filters="sRGB">
<feFlood flood-opacity="0" result="BackgroundImageFix"/>
<feColorMatrix in="SourceAlpha" type="matrix" values="0 0 0 0 0 0 0 0 0 0 0 0 0 0 0 0 0 0 127 0"/>
<feOffset/>
<feGaussianBlur stdDeviation="2.5"/>
<feColorMatrix type="matrix" values="0 0 0 0 0 0 0 0 0 0 0 0 0 0 0 0 0 0 0.6 0"/>
<feBlend mode="normal" in2="BackgroundImageFix" result="effect1_dropShadow"/>
<feBlend mode="normal" in="SourceGraphic" in2="effect1_dropShadow" result="shape"/>
</filter>
<linearGradient id="paint0_linear" x1="-113.427" y1="117.47" x2="126.269" y2="-122.052" gradientUnits="userSpaceOnUse">
<stop stop-color="white"/>
<stop offset="0.285" stop-color="white" stop-opacity="0.82"/>
<stop offset="0.999" stop-color="white" stop-opacity="0"/>
</linearGradient>
<clipPath id="clip0">
<rect x="5" y="5" width="369" height="224" rx="16" fill="white"/>
</clipPath>
</defs>
</svg>
