<svg width="113" height="126" viewBox="0 0 113 126" fill="none" xmlns="http://www.w3.org/2000/svg">
<g filter="url(#filter0_dd)">
<path d="M73 50.775V65.719C73 73.2879 73 77.0723 70.564 79.1671C68.1279 81.2618 64.3862 80.6949 56.9027 79.561L53.6031 79.0611C47.1133 78.0778 43.8684 77.5861 41.9342 75.3368C40 73.0874 40 69.8055 40 63.2416V53.3532C40 46.969 40 43.7769 41.858 41.5506C43.716 39.3244 46.8566 38.7533 53.1378 37.6113L56.4956 37.0008C64.1455 35.6099 67.9705 34.9145 70.4852 37.0132C73 39.112 73 42.9997 73 50.775Z" fill="#FF3F26"/>
</g>
<g filter="url(#filter1_ddii)">
<path d="M73 48.8742C73 41.8999 73 38.4127 70.7977 36.3398C68.5954 34.2669 65.1146 34.4779 58.1531 34.8998L41.2563 35.9239C40.6285 35.9619 40.3146 35.9809 40.0004 35.9753C39.6863 35.9696 39.3733 35.9394 38.7472 35.8788L26.5412 34.6975C18.3437 33.9042 14.245 33.5076 11.6225 35.8885C9 38.2695 9 42.3874 9 50.6231V65.9345C9 73.9334 9 77.9329 11.5283 80.3034C14.0566 82.6738 18.0477 82.4163 26.0301 81.9013L40 81L58.5759 81.5629C65.3576 81.7684 68.7484 81.8712 70.8742 79.8088C73 77.7465 73 74.3541 73 67.5693V48.8742Z" fill="url(#paint0_linear)"/>
<path d="M73 48.8742C73 41.8999 73 38.4127 70.7977 36.3398C68.5954 34.2669 65.1146 34.4779 58.1531 34.8998L41.2563 35.9239C40.6285 35.9619 40.3146 35.9809 40.0004 35.9753C39.6863 35.9696 39.3733 35.9394 38.7472 35.8788L26.5412 34.6975C18.3437 33.9042 14.245 33.5076 11.6225 35.8885C9 38.2695 9 42.3874 9 50.6231V65.9345C9 73.9334 9 77.9329 11.5283 80.3034C14.0566 82.6738 18.0477 82.4163 26.0301 81.9013L40 81L58.5759 81.5629C65.3576 81.7684 68.7484 81.8712 70.8742 79.8088C73 77.7465 73 74.3541 73 67.5693V48.8742Z" fill="url(#paint1_radial)"/>
<path d="M73 48.8742C73 41.8999 73 38.4127 70.7977 36.3398C68.5954 34.2669 65.1146 34.4779 58.1531 34.8998L41.2563 35.9239C40.6285 35.9619 40.3146 35.9809 40.0004 35.9753C39.6863 35.9696 39.3733 35.9394 38.7472 35.8788L26.5412 34.6975C18.3437 33.9042 14.245 33.5076 11.6225 35.8885C9 38.2695 9 42.3874 9 50.6231V65.9345C9 73.9334 9 77.9329 11.5283 80.3034C14.0566 82.6738 18.0477 82.4163 26.0301 81.9013L40 81L58.5759 81.5629C65.3576 81.7684 68.7484 81.8712 70.8742 79.8088C73 77.7465 73 74.3541 73 67.5693V48.8742Z" fill="url(#paint2_linear)" fill-opacity="0.9"/>
</g>
<g filter="url(#filter2_f)">
<path opacity="0.7" d="M51.2478 57.9599C51.2478 68.4311 52.108 76.9198 52.108 76.9198C52.108 76.9198 52.9683 68.4311 52.9683 57.9599C52.9683 47.4886 52.108 39 52.108 39C52.108 39 51.2478 47.4886 51.2478 57.9599Z" fill="#FF5520"/>
<path opacity="0.6" d="M47.7399 58.4116C47.7399 68.6328 48.4938 76.9187 48.4938 76.9187C48.4938 76.9187 49.2478 68.6328 49.2478 58.4116C49.2478 48.1904 48.4938 39.9045 48.4938 39.9045C48.4938 39.9045 47.7399 48.1904 47.7399 58.4116Z" fill="#FF5520"/>
<path opacity="0.5" d="M45.7399 57.9413C45.7399 67.4032 45.0616 75.0736 45.0616 75.0736C45.0616 75.0736 44.3832 67.4032 44.3832 57.9413C44.3832 48.4794 45.0616 40.8091 45.0616 40.8091C45.0616 40.8091 45.7399 48.4794 45.7399 57.9413Z" fill="#FF5520"/>
<path opacity="0.4" d="M42.3832 57.0897C42.3832 60.0862 42.2315 62.5154 42.2315 62.5154C42.2315 62.5154 42.0798 60.0862 42.0798 57.0897C42.0798 54.0932 42.2315 51.6641 42.2315 51.6641C42.2315 51.6641 42.3832 54.0932 42.3832 57.0897Z" fill="#FF5520"/>
<path opacity="0.7" d="M56.4762 58.4116C56.4762 68.6328 55.7222 76.9187 55.7222 76.9187C55.7222 76.9187 54.9683 68.6328 54.9683 58.4116C54.9683 48.1904 55.7222 39.9045 55.7222 39.9045C55.7222 39.9045 56.4762 48.1904 56.4762 58.4116Z" fill="#FF5520"/>
<path opacity="0.7" d="M59.9841 58.4116C59.9841 68.6328 59.2302 76.9187 59.2302 76.9187C59.2302 76.9187 58.4762 68.6328 58.4762 58.4116C58.4762 48.1904 59.2302 39.9045 59.2302 39.9045C59.2302 39.9045 59.9841 48.1904 59.9841 58.4116Z" fill="#FF5520"/>
<path opacity="0.6" d="M63.4921 58.4116C63.4921 68.6328 62.7381 76.9187 62.7381 76.9187C62.7381 76.9187 61.9841 68.6328 61.9841 58.4116C61.9841 48.1904 62.7381 39.9045 62.7381 39.9045C62.7381 39.9045 63.4921 48.1904 63.4921 58.4116Z" fill="#FF5520"/>
<path opacity="0.3" d="M67 58.4116C67 68.6328 66.246 76.9187 66.246 76.9187C66.246 76.9187 65.4921 68.6328 65.4921 58.4116C65.4921 48.1904 66.246 39.9045 66.246 39.9045C66.246 39.9045 67 48.1904 67 58.4116Z" fill="#FF5520"/>
</g>
<g opacity="0.3" filter="url(#filter3_f)">
<path opacity="0.7" d="M24.8865 57.9599C24.8865 68.4311 25.4388 76.9198 25.4388 76.9198C25.4388 76.9198 25.9911 68.4311 25.9911 57.9599C25.9911 47.4886 25.4388 39 25.4388 39C25.4388 39 24.8865 47.4886 24.8865 57.9599Z" fill="#F43838"/>
<path opacity="0.6" d="M22.634 58.4116C22.634 68.6328 23.1181 76.9187 23.1181 76.9187C23.1181 76.9187 23.6022 68.6328 23.6022 58.4116C23.6022 48.1904 23.1181 39.9045 23.1181 39.9045C23.1181 39.9045 22.634 48.1904 22.634 58.4116Z" fill="#F43838"/>
<path opacity="0.5" d="M21.3502 57.9413C21.3502 67.4032 20.9147 75.0736 20.9147 75.0736C20.9147 75.0736 20.4791 67.4032 20.4791 57.9413C20.4791 48.4794 20.9147 40.8091 20.9147 40.8091C20.9147 40.8091 21.3502 48.4794 21.3502 57.9413Z" fill="#F43838"/>
<path opacity="0.4" d="M19.1949 57.0897C19.1949 60.0862 19.0975 62.5154 19.0975 62.5154C19.0975 62.5154 19.0001 60.0862 19.0001 57.0897C19.0001 54.0932 19.0975 51.6641 19.0975 51.6641C19.0975 51.6641 19.1949 54.0932 19.1949 57.0897Z" fill="#F43838"/>
<path opacity="0.7" d="M28.2433 58.4116C28.2433 68.6328 27.7592 76.9187 27.7592 76.9187C27.7592 76.9187 27.2751 68.6328 27.2751 58.4116C27.2751 48.1904 27.7592 39.9045 27.7592 39.9045C27.7592 39.9045 28.2433 48.1904 28.2433 58.4116Z" fill="#F43838"/>
<path opacity="0.7" d="M30.4955 58.4116C30.4955 68.6328 30.0114 76.9187 30.0114 76.9187C30.0114 76.9187 29.5273 68.6328 29.5273 58.4116C29.5273 48.1904 30.0114 39.9045 30.0114 39.9045C30.0114 39.9045 30.4955 48.1904 30.4955 58.4116Z" fill="#F43838"/>
<path opacity="0.6" d="M32.7476 58.4116C32.7476 68.6328 32.2635 76.9187 32.2635 76.9187C32.2635 76.9187 31.7794 68.6328 31.7794 58.4116C31.7794 48.1904 32.2635 39.9045 32.2635 39.9045C32.2635 39.9045 32.7476 48.1904 32.7476 58.4116Z" fill="#F43838"/>
<path opacity="0.3" d="M35.0001 58.4116C35.0001 68.6328 34.5161 76.9187 34.5161 76.9187C34.5161 76.9187 34.032 68.6328 34.032 58.4116C34.032 48.1904 34.5161 39.9045 34.5161 39.9045C34.5161 39.9045 35.0001 48.1904 35.0001 58.4116Z" fill="#F43838"/>
</g>
<defs>
<filter id="filter0_dd" x="0" y="0.686035" width="113" height="124.89" filterUnits="userSpaceOnUse" color-interpolation-filters="sRGB">
<feFlood flood-opacity="0" result="BackgroundImageFix"/>
<feColorMatrix in="SourceAlpha" type="matrix" values="0 0 0 0 0 0 0 0 0 0 0 0 0 0 0 0 0 0 127 0"/>
<feOffset dy="5"/>
<feGaussianBlur stdDeviation="20"/>
<feColorMatrix type="matrix" values="0 0 0 0 0.841667 0 0 0 0 0.0969662 0 0 0 0 0 0 0 0 1 0"/>
<feBlend mode="normal" in2="BackgroundImageFix" result="effect1_dropShadow"/>
<feColorMatrix in="SourceAlpha" type="matrix" values="0 0 0 0 0 0 0 0 0 0 0 0 0 0 0 0 0 0 127 0"/>
<feOffset/>
<feGaussianBlur stdDeviation="3"/>
<feColorMatrix type="matrix" values="0 0 0 0 0.766667 0 0 0 0 0 0 0 0 0 0.0161002 0 0 0 1 0"/>
<feBlend mode="normal" in2="effect1_dropShadow" result="effect2_dropShadow"/>
<feBlend mode="normal" in="SourceGraphic" in2="effect2_dropShadow" result="shape"/>
</filter>
<filter id="filter1_ddii" x="1" y="28.0835" width="78" height="62.1637" filterUnits="userSpaceOnUse" color-interpolation-filters="sRGB">
<feFlood flood-opacity="0" result="BackgroundImageFix"/>
<feColorMatrix in="SourceAlpha" type="matrix" values="0 0 0 0 0 0 0 0 0 0 0 0 0 0 0 0 0 0 127 0"/>
<feOffset dx="-2" dy="2"/>
<feGaussianBlur stdDeviation="3"/>
<feColorMatrix type="matrix" values="0 0 0 0 0.102 0 0 0 0 0.114145 0 0 0 0 0.138 0 0 0 0.6 0"/>
<feBlend mode="normal" in2="BackgroundImageFix" result="effect1_dropShadow"/>
<feColorMatrix in="SourceAlpha" type="matrix" values="0 0 0 0 0 0 0 0 0 0 0 0 0 0 0 0 0 0 127 0"/>
<feOffset dx="2" dy="-2"/>
<feGaussianBlur stdDeviation="2"/>
<feColorMatrix type="matrix" values="0 0 0 0 1 0 0 0 0 1 0 0 0 0 1 0 0 0 0.02 0"/>
<feBlend mode="normal" in2="effect1_dropShadow" result="effect2_dropShadow"/>
<feBlend mode="normal" in="SourceGraphic" in2="effect2_dropShadow" result="shape"/>
<feColorMatrix in="SourceAlpha" type="matrix" values="0 0 0 0 0 0 0 0 0 0 0 0 0 0 0 0 0 0 127 0" result="hardAlpha"/>
<feOffset dx="6" dy="-1"/>
<feGaussianBlur stdDeviation="1"/>
<feComposite in2="hardAlpha" operator="arithmetic" k2="-1" k3="1"/>
<feColorMatrix type="matrix" values="0 0 0 0 0.704094 0 0 0 0 0.139996 0 0 0 0 0.0650464 0 0 0 1 0"/>
<feBlend mode="normal" in2="shape" result="effect3_innerShadow"/>
<feColorMatrix in="SourceAlpha" type="matrix" values="0 0 0 0 0 0 0 0 0 0 0 0 0 0 0 0 0 0 127 0" result="hardAlpha"/>
<feOffset/>
<feGaussianBlur stdDeviation="4"/>
<feComposite in2="hardAlpha" operator="arithmetic" k2="-1" k3="1"/>
<feColorMatrix type="matrix" values="0 0 0 0 0 0 0 0 0 0 0 0 0 0 0 0 0 0 0.5 0"/>
<feBlend mode="normal" in2="effect3_innerShadow" result="effect4_innerShadow"/>
</filter>
<filter id="filter2_f" x="41.0798" y="38" width="26.9202" height="39.9198" filterUnits="userSpaceOnUse" color-interpolation-filters="sRGB">
<feFlood flood-opacity="0" result="BackgroundImageFix"/>
<feBlend mode="normal" in="SourceGraphic" in2="BackgroundImageFix" result="shape"/>
<feGaussianBlur stdDeviation="0.5" result="effect1_foregroundBlur"/>
</filter>
<filter id="filter3_f" x="18.0001" y="38" width="18" height="39.9198" filterUnits="userSpaceOnUse" color-interpolation-filters="sRGB">
<feFlood flood-opacity="0" result="BackgroundImageFix"/>
<feBlend mode="normal" in="SourceGraphic" in2="BackgroundImageFix" result="shape"/>
<feGaussianBlur stdDeviation="0.5" result="effect1_foregroundBlur"/>
</filter>
<linearGradient id="paint0_linear" x1="127.5" y1="41" x2="-11.5" y2="41" gradientUnits="userSpaceOnUse">
<stop stop-color="#FF553E"/>
<stop offset="0.886175" stop-color="#6F0D00"/>
</linearGradient>
<radialGradient id="paint1_radial" cx="0" cy="0" r="1" gradientUnits="userSpaceOnUse" gradientTransform="translate(54 60.5) scale(30 89.8039)">
<stop stop-color="#D12008"/>
<stop offset="0.552083" stop-color="#FF3E24" stop-opacity="0"/>
</radialGradient>
<linearGradient id="paint2_linear" x1="56" y1="47" x2="37" y2="47" gradientUnits="userSpaceOnUse">
<stop stop-color="#F12B10"/>
<stop offset="1" stop-color="#C5250F" stop-opacity="0"/>
</linearGradient>
</defs>
</svg>
