<svg width="48" height="48" viewBox="0 0 48 48" fill="none" xmlns="http://www.w3.org/2000/svg">
<path d="M41.5314 0H6.4681C2.89594 0 0 2.89582 0 6.4681V41.5317C0 45.1039 2.89582 47.9998 6.4681 47.9998H23.7612L23.7906 30.8472H19.3344C18.7553 30.8472 18.2853 30.379 18.283 29.7999L18.2617 24.2709C18.2594 23.6886 18.7309 23.2154 19.3132 23.2154H23.7613V17.873C23.7613 11.6732 27.5477 8.29739 33.0783 8.29739H37.6166C38.1973 8.29739 38.6681 8.76812 38.6681 9.34889V14.0109C38.6681 14.5915 38.1976 15.0621 37.6172 15.0624L34.8321 15.0637C31.8244 15.0637 31.242 16.493 31.242 18.5904V23.2155H37.851C38.4807 23.2155 38.9693 23.7654 38.8951 24.3908L38.2398 29.9197C38.1771 30.4488 37.7284 30.8475 37.1957 30.8475H31.2715L31.242 48H41.5317C45.1038 48 47.9996 45.1042 47.9996 41.532V6.4681C47.9995 2.89582 45.1037 0 41.5314 0Z" fill="#E6E6E9"/>
</svg>
