<svg width="24" height="24" viewBox="0 0 24 24" fill="none" xmlns="http://www.w3.org/2000/svg">
<path d="M21 1H3C2.46957 1 1.96086 1.21071 1.58579 1.58579C1.21071 1.96086 1 2.46957 1 3V21C1 21.5304 1.21071 22.0391 1.58579 22.4142C1.96086 22.7893 2.46957 23 3 23H10.5C10.6326 23 10.7598 22.9473 10.8536 22.8536C10.9473 22.7598 11 22.6326 11 22.5V15.5C11 15.3674 10.9473 15.2402 10.8536 15.1464C10.7598 15.0527 10.6326 15 10.5 15H9.5C9.36739 15 9.24021 14.9473 9.14645 14.8536C9.05268 14.7598 9 14.6326 9 14.5V11.5C9 11.3674 9.05268 11.2402 9.14645 11.1464C9.24021 11.0527 9.36739 11 9.5 11H10.5C10.6326 11 10.7598 10.9473 10.8536 10.8536C10.9473 10.7598 11 10.6326 11 10.5V9.5C11 8.30653 11.4741 7.16193 12.318 6.31802C13.1619 5.47411 14.3065 5 15.5 5H18.5C18.6326 5 18.7598 5.05268 18.8536 5.14645C18.9473 5.24021 19 5.36739 19 5.5V8.5C19 8.63261 18.9473 8.75979 18.8536 8.85355C18.7598 8.94732 18.6326 9 18.5 9H15.5C15.3674 9 15.2402 9.05268 15.1464 9.14645C15.0527 9.24021 15 9.36739 15 9.5V10.5C15 10.6326 15.0527 10.7598 15.1464 10.8536C15.2402 10.9473 15.3674 11 15.5 11H18.5C18.5721 11.0005 18.6433 11.0166 18.7086 11.0472C18.7739 11.0778 18.8318 11.1222 18.8784 11.1773C18.9249 11.2324 18.959 11.2969 18.9783 11.3664C18.9975 11.4359 19.0015 11.5088 18.99 11.58L18.49 14.58C18.4711 14.6966 18.4115 14.8028 18.3218 14.8796C18.2321 14.9565 18.1181 14.9992 18 15H15.5C15.3674 15 15.2402 15.0527 15.1464 15.1464C15.0527 15.2402 15 15.3674 15 15.5V22.5C15 22.6326 15.0527 22.7598 15.1464 22.8536C15.2402 22.9473 15.3674 23 15.5 23H21C21.5304 23 22.0391 22.7893 22.4142 22.4142C22.7893 22.0391 23 21.5304 23 21V3C23 2.46957 22.7893 1.96086 22.4142 1.58579C22.0391 1.21071 21.5304 1 21 1Z" fill="white"/>
</svg>
