<svg width="42" height="42" viewBox="0 0 42 42" fill="none" xmlns="http://www.w3.org/2000/svg">
<path d="M29.488 0H12.512C5.61287 0 0 5.61287 0 12.512V29.488C0 36.3871 5.61287 42 12.512 42H29.488C36.3871 42 42 36.3871 42 29.488V12.512C41.9999 5.61287 36.3871 0 29.488 0ZM37.7748 29.488C37.7748 34.0646 34.0646 37.7748 29.488 37.7748H12.512C7.93538 37.7748 4.2252 34.0646 4.2252 29.488V12.512C4.2252 7.9353 7.93538 4.2252 12.512 4.2252H29.488C34.0646 4.2252 37.7748 7.9353 37.7748 12.512V29.488Z" fill="#F0F0F3"/>
<path d="M20.9999 10.1372C15.0102 10.1372 10.1372 15.0102 10.1372 20.9998C10.1372 26.9894 15.0102 31.8625 20.9999 31.8625C26.9896 31.8625 31.8626 26.9895 31.8626 20.9998C31.8626 15.0101 26.9896 10.1372 20.9999 10.1372ZM20.9999 27.6374C17.3341 27.6374 14.3624 24.6657 14.3624 20.9999C14.3624 17.3341 17.3342 14.3624 20.9999 14.3624C24.6657 14.3624 27.6374 17.3341 27.6374 20.9999C27.6374 24.6656 24.6656 27.6374 20.9999 27.6374Z" fill="#F0F0F3"/>
<path d="M31.8837 12.8216C33.3212 12.8216 34.4866 11.6562 34.4866 10.2186C34.4866 8.78109 33.3212 7.61572 31.8837 7.61572C30.4461 7.61572 29.2808 8.78109 29.2808 10.2186C29.2808 11.6562 30.4461 12.8216 31.8837 12.8216Z" fill="#F0F0F3"/>
</svg>
