<svg width="53" height="52" viewBox="0 0 53 52" fill="none" xmlns="http://www.w3.org/2000/svg">
<path d="M14.67 10.8333C14.8 12.7617 15.125 14.6467 15.645 16.445L13.045 19.045C12.1567 16.445 11.5933 13.6933 11.3983 10.8333H14.67V10.8333ZM36.0333 36.8767C37.875 37.3967 39.76 37.7217 41.6667 37.8517V41.08C38.8067 40.885 36.055 40.3217 33.4333 39.455L36.0333 36.8767V36.8767ZM16.75 6.5H9.16667C7.975 6.5 7 7.475 7 8.66667C7 29.0117 23.4883 45.5 43.8333 45.5C45.025 45.5 46 44.525 46 43.3333V35.7717C46 34.58 45.025 33.605 43.8333 33.605C41.1467 33.605 38.525 33.1717 36.0983 32.37C35.8817 32.2833 35.6433 32.2617 35.4267 32.2617C34.8633 32.2617 34.3217 32.4783 33.8883 32.89L29.1217 37.6567C22.99 34.515 17.9633 29.51 14.8433 23.3783L19.61 18.6117C20.2167 18.005 20.39 17.16 20.1517 16.4017C19.35 13.975 18.9167 11.375 18.9167 8.66667C18.9167 7.475 17.9417 6.5 16.75 6.5Z" fill="white"/>
</svg>
