<svg width="52" height="52" viewBox="0 0 52 52" fill="none" xmlns="http://www.w3.org/2000/svg">
<path d="M25.9999 50.9163C39.761 50.9163 50.9166 39.7608 50.9166 25.9997C50.9166 12.2386 39.761 1.08301 25.9999 1.08301C12.2388 1.08301 1.08325 12.2386 1.08325 25.9997C1.08325 39.7608 12.2388 50.9163 25.9999 50.9163Z" stroke="white" stroke-width="2" stroke-linecap="round" stroke-linejoin="round"/>
<path d="M8.905 44.1346C20.3667 26.693 34.4283 24.028 50.7433 28.8596M16.5317 2.94629C28.4483 17.333 34.6667 31.113 36.8333 48.4463L34.6754 37L33 31.3775L30.5202 25L27.8392 19.5L24.6253 14L21.1588 8.89917L16.5317 2.94629ZM1.5 23.5206C22.82 23.044 34.0009 19.9492 43.1442 8.89917L39.7698 12.5L36.0918 15.5L32 17.9771L27.9667 19.7617L21.1588 21.7518L14.5 22.8798L7.5 23.5206H1.5Z" stroke="white" stroke-width="2" stroke-linecap="round" stroke-linejoin="round"/>
</svg>
