<svg width="53" height="53" viewBox="0 0 53 53" fill="none" xmlns="http://www.w3.org/2000/svg">
<path d="M26.4783 4.83301C14.5183 4.83301 4.83325 14.5397 4.83325 26.4997C4.83325 38.4597 14.5183 48.1663 26.4783 48.1663C38.4599 48.1663 48.1666 38.4597 48.1666 26.4997C48.1666 14.5397 38.4599 4.83301 26.4783 4.83301ZM41.4933 17.833H35.1016C34.4083 15.1247 33.4116 12.5247 32.1116 10.1197C36.0983 11.4847 39.4133 14.258 41.4933 17.833ZM26.4999 9.25301C28.2983 11.853 29.7066 14.7347 30.6383 17.833H22.3616C23.2933 14.7347 24.7016 11.853 26.4999 9.25301ZM9.72992 30.833C9.38325 29.4463 9.16659 27.9947 9.16659 26.4997C9.16659 25.0047 9.38325 23.553 9.72992 22.1663H17.0533C16.8799 23.5963 16.7499 25.0263 16.7499 26.4997C16.7499 27.973 16.8799 29.403 17.0533 30.833H9.72992ZM11.5066 35.1663H17.8983C18.5916 37.8747 19.5883 40.4747 20.8883 42.8797C16.9016 41.5147 13.5866 38.763 11.5066 35.1663V35.1663ZM17.8983 17.833H11.5066C13.5866 14.2363 16.9016 11.4847 20.8883 10.1197C19.5883 12.5247 18.5916 15.1247 17.8983 17.833V17.833ZM26.4999 43.7463C24.7016 41.1463 23.2933 38.2647 22.3616 35.1663H30.6383C29.7066 38.2647 28.2983 41.1463 26.4999 43.7463ZM31.5699 30.833H21.4299C21.2349 29.403 21.0833 27.973 21.0833 26.4997C21.0833 25.0263 21.2349 23.5747 21.4299 22.1663H31.5699C31.7649 23.5747 31.9166 25.0263 31.9166 26.4997C31.9166 27.973 31.7649 29.403 31.5699 30.833ZM32.1116 42.8797C33.4116 40.4747 34.4083 37.8747 35.1016 35.1663H41.4933C39.4133 38.7413 36.0983 41.5147 32.1116 42.8797V42.8797ZM35.9466 30.833C36.1199 29.403 36.2499 27.973 36.2499 26.4997C36.2499 25.0263 36.1199 23.5963 35.9466 22.1663H43.2699C43.6166 23.553 43.8333 25.0047 43.8333 26.4997C43.8333 27.9947 43.6166 29.4463 43.2699 30.833H35.9466Z" fill="white"/>
</svg>
