<svg width="48" height="48" viewBox="0 0 48 48" fill="none" xmlns="http://www.w3.org/2000/svg">
<g clip-path="url(#clip0)">
<path d="M22.8362 0.0277589C10.1595 0.631353 0.155746 11.1886 0.194202 23.8797C0.205911 27.7451 1.13908 31.3935 2.78525 34.6172L0.257799 46.8857C0.121078 47.5494 0.719621 48.1305 1.37889 47.9743L13.4006 45.1262C16.4892 46.6646 19.9583 47.5533 23.6298 47.6093C36.5867 47.8072 47.3904 37.5191 47.7943 24.5671C48.2272 10.6834 36.7685 -0.635758 22.8362 0.0277589ZM37.1807 36.9867C33.6601 40.5074 28.979 42.4463 24.0001 42.4463C21.0848 42.4463 18.2937 41.7922 15.704 40.5022L14.0298 39.6682L6.65925 41.4145L8.21071 33.8831L7.38591 32.2679C6.04154 29.6351 5.35988 26.7881 5.35988 23.806C5.35988 18.827 7.29878 14.1461 10.8194 10.6253C14.3086 7.13612 19.066 5.16566 24.0005 5.16566C28.9794 5.16577 33.6602 7.10466 37.1808 10.6252C40.7015 14.1459 42.6404 18.8268 42.6405 23.8057C42.6404 28.7403 40.6699 33.4976 37.1807 36.9867Z" fill="#EAEAED"/>
<path d="M35.5536 28.9683L30.9423 27.6443C30.3361 27.4702 29.6833 27.6422 29.2415 28.0923L28.1139 29.2412C27.6384 29.7256 26.9169 29.8813 26.2876 29.6267C24.1063 28.7439 19.5177 24.6641 18.3458 22.6233C18.0078 22.0347 18.0637 21.2987 18.4788 20.7616L19.4632 19.4879C19.849 18.9889 19.9303 18.3187 19.6753 17.7419L17.7352 13.3541C17.2705 12.3031 15.9275 11.9972 15.0502 12.7392C13.7632 13.8277 12.2362 15.4818 12.0506 17.3143C11.7233 20.5451 13.1089 24.6178 18.3485 29.5081C24.4016 35.1577 29.249 35.9041 32.4051 35.1396C34.1952 34.706 35.6258 32.9678 36.5286 31.5446C37.1442 30.5742 36.6581 29.2855 35.5536 28.9683Z" fill="#EAEAED"/>
</g>
<defs>
<clipPath id="clip0">
<rect width="48" height="48" fill="white"/>
</clipPath>
</defs>
</svg>
