<svg width="42" height="42" viewBox="0 0 42 42" fill="none" xmlns="http://www.w3.org/2000/svg">
<path d="M19.9431 25.1L18.3401 30H17.1221L16.0441 26.682L14.9311 30H13.7201L12.1101 25.1H13.2861L14.3921 28.544L15.5471 25.1H16.5971L17.7171 28.572L18.8581 25.1H19.9431ZM24.3701 29.09V30H20.5761V25.1H24.2791V26.01H21.7031V27.074H23.9781V27.956H21.7031V29.09H24.3701ZM28.8704 27.452C29.1504 27.5407 29.3697 27.69 29.5284 27.9C29.6871 28.1053 29.7664 28.3597 29.7664 28.663C29.7664 29.0923 29.5984 29.4237 29.2624 29.657C28.9311 29.8857 28.4457 30 27.8064 30H25.2724V25.1H27.6664C28.2637 25.1 28.7211 25.2143 29.0384 25.443C29.3604 25.6717 29.5214 25.982 29.5214 26.374C29.5214 26.612 29.4631 26.8243 29.3464 27.011C29.2344 27.1977 29.0757 27.3447 28.8704 27.452ZM26.3994 25.954V27.109H27.5264C27.8064 27.109 28.0187 27.06 28.1634 26.962C28.3081 26.864 28.3804 26.7193 28.3804 26.528C28.3804 26.3367 28.3081 26.1943 28.1634 26.101C28.0187 26.003 27.8064 25.954 27.5264 25.954H26.3994ZM27.7224 29.146C28.0211 29.146 28.2451 29.097 28.3944 28.999C28.5484 28.901 28.6254 28.7493 28.6254 28.544C28.6254 28.138 28.3244 27.935 27.7224 27.935H26.3994V29.146H27.7224Z" fill="#728AB7"/>
<rect x="2" y="2" width="38" height="38" rx="8" stroke="#728AB7" stroke-width="4"/>
<rect x="2" y="14" width="38" height="3" fill="#728AB7"/>
<rect x="8" y="9" width="13" height="2" rx="1" fill="#728AB7"/>
</svg>
