<svg width="48" height="48" viewBox="0 0 48 48" fill="none" xmlns="http://www.w3.org/2000/svg">
<g clip-path="url(#clip0)">
<path fill-rule="evenodd" clip-rule="evenodd" d="M19.919 18.5308C15.4333 21.1206 22.2775 33.9516 27.186 31.1176C28.0577 32.6274 30.8655 37.4906 31.7371 39.0003C29.6662 40.1961 27.9131 40.9498 25.5121 39.5773C18.8455 35.7663 11.5071 23.0611 11.7163 15.4825C11.7888 12.8504 13.3396 11.8191 15.368 10.6479C16.2397 12.1577 19.0475 17.0208 19.9192 18.5306L19.919 18.5308Z" fill="#728AB7"/>
<path fill-rule="evenodd" clip-rule="evenodd" d="M21.7998 18.3167C21.3151 18.5965 20.6914 18.4295 20.4115 17.9448L16.1211 10.5134C15.8412 10.0286 16.0082 9.40496 16.4929 9.12511L18.7479 7.82319C19.2326 7.5433 19.8565 7.71048 20.1363 8.1952L24.4268 15.6265C24.7066 16.1111 24.5395 16.7348 24.0548 17.0147L21.7999 18.3166L21.7998 18.3167Z" fill="#728AB7"/>
<path fill-rule="evenodd" clip-rule="evenodd" d="M33.5214 38.6179C33.0368 38.8977 32.4131 38.7307 32.1332 38.2459L27.8428 30.8146C27.5629 30.3299 27.7299 29.7061 28.2146 29.4263L30.4696 28.1244C30.9543 27.8446 31.5781 28.0118 31.858 28.4964L36.1484 35.9277C36.4283 36.4124 36.2612 37.0362 35.7765 37.3159L33.5216 38.6179L33.5214 38.6179Z" fill="#728AB7"/>
<path d="M24.0003 0H24.0006V0.00558965C30.6304 0.00569128 36.6302 2.69047 40.9697 7.03041C45.3094 11.3701 47.9941 17.3697 47.9943 23.9995H47.9999V24.0006H47.9943C47.9942 30.6304 45.3094 36.6302 40.9694 40.9697C36.6297 45.3094 30.6302 47.9941 24.0004 47.9943V47.9999H23.9992V47.9943C17.3694 47.9942 11.3696 45.3094 7.03017 40.9694C2.69047 36.6297 0.00575437 30.6302 0.00558965 24.0004H0V23.9992H0.00558965C0.00569128 17.3694 2.69047 11.3696 7.03041 7.03017C11.3701 2.69047 17.3697 0.00575437 23.9995 0.00558965V0H24.0003V0ZM24.0006 2.86261V2.8682H23.9995V2.86261C18.1692 2.86276 12.8861 5.23065 9.0589 9.05808C5.23114 12.8858 2.86317 18.1694 2.86317 23.9995H2.86876V24.0006H2.86317C2.86332 29.8309 5.23122 35.114 9.05865 38.9412C12.8863 42.769 18.1699 45.1369 24.0001 45.1369V45.1314H24.0012V45.1369C29.8315 45.1368 35.1146 42.7689 38.9418 38.9415C42.7695 35.1138 45.1375 29.8302 45.1375 24H45.1319V23.9989H45.1375C45.1374 18.1686 42.7695 12.8855 38.942 9.05833C35.1144 5.23057 29.8307 2.86261 24.0006 2.86261V2.86261Z" fill="#728AB7"/>
<path fill-rule="evenodd" clip-rule="evenodd" d="M16.64 0H31.36C44.8 0 48 3.2 48 16.64V31.36C48 44.8 44.8 48 31.36 48H16.64C3.2 48 0 44.8 0 31.36V16.64C0 3.2 3.2 0 16.64 0Z" fill="#728AB7"/>
<path fill-rule="evenodd" clip-rule="evenodd" d="M39.3083 16.5366C39.5306 15.7949 39.3083 15.25 38.2498 15.25H34.7498C33.8599 15.25 33.4496 15.7207 33.2271 16.2398C33.2271 16.2398 31.4472 20.5782 28.9258 23.3963C28.1101 24.212 27.7392 24.4716 27.2943 24.4716C27.0718 24.4716 26.7498 24.212 26.7498 23.4705V16.5366C26.7498 15.6466 26.4915 15.25 25.7498 15.25H20.2498C19.6937 15.25 19.3592 15.663 19.3592 16.0545C19.3592 16.8981 20.6199 17.0927 20.7498 19.4658V24.62C20.7498 25.75 20.5457 25.9549 20.1008 25.9549C18.9143 25.9549 16.028 21.5971 14.3163 16.6107C13.9808 15.6415 13.6443 15.25 12.7498 15.25H9.24981C8.24981 15.25 8.0498 15.7207 8.0498 16.2398C8.0498 17.1669 9.23638 21.7648 13.5747 27.8459C16.4669 31.9988 20.5418 34.25 24.2498 34.25C26.4746 34.25 26.7498 33.75 26.7498 32.8887V29.75C26.7498 28.75 26.9606 28.5504 27.6651 28.5504C28.1842 28.5504 29.0741 28.81 31.1506 30.8123C33.5237 33.1854 33.915 34.25 35.2498 34.25H38.7498C39.7498 34.25 40.2498 33.75 39.9614 32.7633C39.6457 31.7799 38.5127 30.353 37.0093 28.6617C36.1935 27.6976 34.9699 26.6594 34.599 26.1402C34.0799 25.4728 34.2283 25.1761 34.599 24.5829C34.599 24.5829 38.8633 18.5759 39.3083 16.5366V16.5366Z" fill="#EBF3FA"/>
</g>
<defs>
<clipPath id="clip0">
<rect width="48" height="48" fill="white"/>
</clipPath>
</defs>
</svg>
