<svg width="48" height="48" viewBox="0 0 48 48" fill="none" xmlns="http://www.w3.org/2000/svg">
<g clip-path="url(#clip0)">
<path fill-rule="evenodd" clip-rule="evenodd" d="M19.919 18.5308C15.4333 21.1206 22.2775 33.9516 27.186 31.1176C28.0577 32.6274 30.8655 37.4906 31.7371 39.0003C29.6662 40.1961 27.9131 40.9498 25.5121 39.5773C18.8455 35.7663 11.5071 23.0611 11.7163 15.4825C11.7888 12.8504 13.3396 11.8191 15.368 10.6479C16.2397 12.1577 19.0475 17.0208 19.9192 18.5306L19.919 18.5308Z" fill="#728AB7"/>
<path fill-rule="evenodd" clip-rule="evenodd" d="M21.7998 18.3167C21.3151 18.5965 20.6914 18.4295 20.4115 17.9448L16.1211 10.5134C15.8412 10.0286 16.0082 9.40496 16.4929 9.12511L18.7479 7.82319C19.2326 7.5433 19.8565 7.71048 20.1363 8.1952L24.4268 15.6265C24.7066 16.1111 24.5395 16.7348 24.0548 17.0147L21.7999 18.3166L21.7998 18.3167Z" fill="#728AB7"/>
<path fill-rule="evenodd" clip-rule="evenodd" d="M33.5214 38.6179C33.0368 38.8977 32.4131 38.7307 32.1332 38.2459L27.8428 30.8146C27.5629 30.3299 27.7299 29.7061 28.2146 29.4263L30.4696 28.1244C30.9543 27.8446 31.5781 28.0118 31.858 28.4964L36.1484 35.9277C36.4283 36.4124 36.2612 37.0362 35.7765 37.3159L33.5216 38.6179L33.5214 38.6179Z" fill="#728AB7"/>
<path d="M24.0003 0H24.0006V0.00558965C30.6304 0.00569128 36.6302 2.69047 40.9697 7.03041C45.3094 11.3701 47.9941 17.3697 47.9943 23.9995H47.9999V24.0006H47.9943C47.9942 30.6304 45.3094 36.6302 40.9694 40.9697C36.6297 45.3094 30.6302 47.9941 24.0004 47.9943V47.9999H23.9992V47.9943C17.3694 47.9942 11.3696 45.3094 7.03017 40.9694C2.69047 36.6297 0.00575437 30.6302 0.00558965 24.0004H0V23.9992H0.00558965C0.00569128 17.3694 2.69047 11.3696 7.03041 7.03017C11.3701 2.69047 17.3697 0.00575437 23.9995 0.00558965V0H24.0003V0ZM24.0006 2.86261V2.8682H23.9995V2.86261C18.1692 2.86276 12.8861 5.23065 9.0589 9.05808C5.23114 12.8858 2.86317 18.1694 2.86317 23.9995H2.86876V24.0006H2.86317C2.86332 29.8309 5.23122 35.114 9.05865 38.9412C12.8863 42.769 18.1699 45.1369 24.0001 45.1369V45.1314H24.0012V45.1369C29.8315 45.1368 35.1146 42.7689 38.9418 38.9415C42.7695 35.1138 45.1375 29.8302 45.1375 24H45.1319V23.9989H45.1375C45.1374 18.1686 42.7695 12.8855 38.942 9.05833C35.1144 5.23057 29.8307 2.86261 24.0006 2.86261V2.86261Z" fill="#728AB7"/>
</g>
<defs>
<clipPath id="clip0">
<rect width="48" height="48" fill="white"/>
</clipPath>
</defs>
</svg>
