<svg width="48" height="48" viewBox="0 0 48 48" fill="none" xmlns="http://www.w3.org/2000/svg">
<path d="M24 48C37.2548 48 48 37.2548 48 24C48 10.7452 37.2548 0 24 0C10.7452 0 0 10.7452 0 24C0 37.2548 10.7452 48 24 48Z" fill="#728AB7"/>
<path d="M9.98861 23.7918L26.1504 17.1328C27.7458 16.4392 33.1562 14.2195 33.1562 14.2195C33.1562 14.2195 35.6533 13.2484 35.4452 15.6068C35.3759 16.5779 34.821 19.9768 34.266 23.6531L32.5319 34.5432C32.5319 34.5432 32.3932 36.1386 31.214 36.4161C30.0348 36.6935 28.0926 35.445 27.7458 35.1675C27.4684 34.9594 22.5435 31.838 20.74 30.312C20.2545 29.8958 19.6996 29.0635 20.8094 28.0924C23.3065 25.8034 26.2892 22.9594 28.0926 21.156C28.925 20.3236 29.7574 18.3814 26.2892 20.7398L16.5088 27.3294C16.5088 27.3294 15.399 28.023 13.3181 27.3987C11.2372 26.7745 8.80942 25.9421 8.80942 25.9421C8.80942 25.9421 7.14468 24.9016 9.98861 23.7918V23.7918Z" fill="#EBF3FA"/>
</svg>
