<svg width="48" height="48" viewBox="0 0 48 48" fill="none" xmlns="http://www.w3.org/2000/svg">
<path d="M24 48C37.2548 48 48 37.2548 48 24C48 10.7452 37.2548 0 24 0C10.7452 0 0 10.7452 0 24C0 37.2548 10.7452 48 24 48Z" fill="#E6E6E9"/>
<path d="M9.98837 23.7918L26.1502 17.1328C27.7456 16.4392 33.156 14.2195 33.156 14.2195C33.156 14.2195 35.6531 13.2484 35.445 15.6068C35.3756 16.5779 34.8207 19.9768 34.2658 23.6531L32.5317 34.5432C32.5317 34.5432 32.393 36.1386 31.2138 36.4161C30.0346 36.6935 28.0924 35.445 27.7456 35.1675C27.4681 34.9594 22.5433 31.838 20.7398 30.312C20.2543 29.8958 19.6993 29.0635 20.8092 28.0924C23.3063 25.8034 26.2889 22.9594 28.0924 21.156C28.9248 20.3236 29.7571 18.3814 26.2889 20.7398L16.5086 27.3294C16.5086 27.3294 15.3988 28.023 13.3178 27.3987C11.2369 26.7745 8.80918 25.9421 8.80918 25.9421C8.80918 25.9421 7.14444 24.9016 9.98837 23.7918V23.7918Z" fill="#1C2125"/>
</svg>
